SplineFontDB: 3.0
FontName: Proto-Sianitic
FullName: Proto-Sianitic
FamilyName: Proto-Sianitic
Weight: Black
Copyright: Copyright (c) 2021-2022, (http://beitdina.net/ | contact@beitdina.net)
Version: 0.3
ItalicAngle: 0
UnderlinePosition: -150
UnderlineWidth: 21
Ascent: 819
Descent: 205
InvalidEm: 0
sfntRevision: 0x00004ccd
LayerCount: 2
Layer: 0 0 "Back" 1
Layer: 1 0 "Fore" 0
XUID: [1021 501 -296948436 16076]
FSType: 0
OS2Version: 0
OS2_WeightWidthSlopeOnly: 0
OS2_UseTypoMetrics: 0
CreationTime: 1628456915
ModificationTime: 1638709272
PfmFamily: 17
TTFWeight: 1024
TTFWidth: 5
LineGap: 92
VLineGap: 92
Panose: 1 1 3 1 1 1 1 1 1 1
OS2TypoAscent: 0
OS2TypoAOffset: 1
OS2TypoDescent: 0
OS2TypoDOffset: 1
OS2TypoLinegap: 92
OS2WinAscent: 0
OS2WinAOffset: 1
OS2WinDescent: 0
OS2WinDOffset: 1
HheadAscent: 0
HheadAOffset: 1
HheadDescent: 0
HheadDOffset: 1
OS2Vendor: 'PfEd'
MarkAttachClasses: 1
DEI: 91125
LangName: 1033 "" "" "" "" "" "" "" "" "" "" "" "" "http://scripts.sil.org/OFL" "SIL Free Open Source"
Encoding: Original
UnicodeInterp: none
NameList: Adobe Glyph List
DisplaySize: -96
AntiAlias: 1
FitToEm: 0
WinInfo: 8 8 6
BeginPrivate: 0
EndPrivate
BeginChars: 55 54

StartChar: .notdef
Encoding: 0 0 0
Width: 512
Flags: W
LayerCount: 2
Fore
SplineSet
242.9375 67.625 m 0
 242.23522 67.66565 241.58878 68.011148 240.9375 68.53125 c 0
 240.28622 69.051352 239.63324 69.769402 238.84375 70.6875 c 0
 235.68577 74.359891 230.64264 81.2284 219.1875 90.6875 c 2
 219.0938 90.75 l 1
 219.0626 90.84375 l 2
 214.25443 99.822783 209.35623 113.09123 204.1876 126.0625 c 0
 199.02325 139.02302 193.56957 151.68848 187.71885 159.375 c 0
 187.71385 159.381 187.72385 159.3999 187.71885 159.4062 c 0
 129.84461 224.60094 92.305331 280.98088 67.6875 354.9375 c 0
 51.211726 404.43384 43.448533 466.75712 49.90625 531.90625 c 0
 55.902729 588.16072 72.135574 640.73421 97.65625 686.9375 c 0
 129.13998 743.85684 160.03324 795.61462 191.625 836.09375 c 0
 205.35141 853.68164 220.4187 869.91132 237.96875 884.9375 c 0
 237.98035 884.9491 237.98845 884.9572 237.99995 884.9687 c 0
 242.53982 889.51222 246.32187 890.87829 249.6562 889.99995 c 0
 254.42408 888.744 257.97059 883.22144 262.06245 877.0312 c 0
 272.17069 861.54446 285.72029 844.62311 299.1562 827.5937 c 0
 312.6689 810.46698 319.6221 789.20013 329.2812 773.3437 c 0
 354.76389 731.51117 378.33861 689.50721 396.87495 648.68745 c 0
 417.67103 601.64424 435.05392 543.99303 435.18745 479.5937 c 0
 433.12889 401.63797 405.00877 329.3446 368.5312 264.0312 c 1
 368.5 264 l 1
 358.72423 246.83695 342.19226 223.74495 325.84375 200 c 0
 309.49524 176.25505 293.35678 151.87472 284.34375 132.28125 c 0
 279.72378 122.23788 279.65178 116.75827 278.59375 111.375 c 0
 277.53572 105.99173 275.43677 100.77639 266.9375 91.625 c 0
 256.15253 80.775908 250.81848 73.953243 247.46875 70.46875 c 0
 246.55296 69.516114 245.78281 68.79022 245.0625 68.3125 c 0
 244.34219 67.83478 243.63978 67.584347 242.9375 67.625 c 0
243 68.625 m 0
 243.43044 68.60008 243.91946 68.750499 244.53125 69.15625 c 0
 245.14304 69.562001 245.85768 70.228031 246.75 71.15625 c 0
 250.01387 74.551437 255.40214 81.431572 266.21875 92.3125 c 0
 274.64546 101.38578 276.55903 106.32907 277.59375 111.59375 c 0
 278.62847 116.85843 278.7613 122.52192 283.4375 132.6875 c 0
 292.50852 152.40706 308.67611 176.80792 325.03125 200.5625 c 0
 341.38639 224.31708 357.92941 247.42287 367.65625 264.5 c 0
 404.08742 329.73032 432.13486 401.8622 434.1875 479.59375 c 0
 434.05435 543.8143 416.72603 601.32582 395.96875 648.28125 c 0
 377.45753 689.04569 353.90793 731.03136 328.4375 772.84375 c 0
 318.68368 788.85566 311.74152 810.02729 298.375 826.96875 c 0
 284.94189 843.99462 271.3993 860.95036 261.25 876.5 c 0
 257.15836 882.6899 253.57247 887.9338 249.40625 889.03125 c 0
 246.48527 889.8007 243.1212 888.69922 238.6875 884.25 c 2
 238.6563 884.2188 l 2
 221.14717 869.23192 206.1067 853.05463 192.40625 835.5 c 0
 160.87451 795.09779 130.00524 743.33924 98.53125 686.4375 c 0
 73.078886 640.35789 56.889509 587.94295 50.90625 531.8125 c 0
 44.462471 466.80397 52.198976 404.59688 68.625 355.25 c 0
 93.197051 281.43091 130.63297 225.18011 188.46875 160.03125 c 1
 188.49995 160.03125 l 1
 188.49995 160.00005 l 1
 194.4947 152.13363 199.94974 139.42534 205.12495 126.43755 c 0
 210.28476 113.48841 215.17215 100.27142 219.9062 91.4063 c 0
 231.36697 81.9273 236.50477 74.935895 239.5937 71.3438 c 0
 240.36808 70.443276 241.00375 69.758716 241.56245 69.31255 c 0
 242.12115 68.866384 242.56951 68.649967 243 68.625 c 0
243.625 182.03125 m 1
 243.1875 182.5625 l 2
 196.62531 239.82865 144.95799 297.40709 124.1875 363.21875 c 1
 124.1875 363.24995 l 1
 108.37234 415.88077 103.73667 480.35292 109.625 533.81245 c 0
 114.2654 576.07818 126.58535 615.91708 145.125 652.5937 c 0
 171.28034 704.3363 195.96415 773.63634 243.125 810.7812 c 2
 243.53125 811.0937 l 1
 243.84375 810.7187 l 2
 292.60232 751.28241 323.80221 689.81517 357.59375 613.7187 c 0
 374.8783 570.53877 386.01704 520.94439 382.875 479.3125 c 0
 377.58167 421.04269 351.78427 360.04804 321.0625 302.5625 c 0
 298.61553 260.56048 265.60385 218.41339 244 182.625 c 2
 243.625 182.03125 l 1
243.5313 183.78125 m 1
 265.19286 219.52659 297.92705 261.40939 320.18755 303.0625 c 0
 350.87506 360.48395 376.59629 421.34349 381.87505 479.375 c 0
 381.87582 479.3852 381.87428 479.3961 381.87505 479.4062 c 0
 384.99082 520.78654 373.8874 570.25696 356.6563 613.31245 c 0
 356.6523 613.32145 356.6603 613.33475 356.6563 613.34365 c 0
 322.9571 689.23012 291.85751 750.48248 243.375 809.6875 c 1
 196.80348 772.73785 172.16288 703.85194 146.03125 652.15625 c 0
 127.54276 615.58081 115.2519 575.86154 110.625 533.71875 c 0
 104.75251 480.40304 109.39043 415.99787 125.15625 363.53125 c 0
 145.76775 298.22335 197.0654 240.89198 243.5313 183.78125 c 1
EndSplineSet
EndChar

StartChar: Alef
Encoding: 4 1488 4
Width: 1024
Flags: W
LayerCount: 2
Fore
SplineSet
345.15252 342.68218 m 1
 345.15252 355.55677 349.74283 366.62079 358.92362 375.87433 c 0
 368.10452 385.12797 379.35098 389.75466 392.66309 389.75466 c 0
 405.97524 389.75466 417.45127 385.12797 427.09115 375.87433 c 0
 436.731 366.62079 441.55082 355.55677 441.55082 342.68218 c 0
 441.55082 329.80871 436.731 318.74476 427.09115 309.49107 c 0
 417.45127 300.23753 405.97524 295.61082 392.66309 295.61082 c 0
 379.35098 295.61082 368.10452 300.23753 358.92362 309.49107 c 0
 349.74283 318.74476 345.15252 342.68218 345.15252 342.68218 c 1
297.21094 459.24648 m 0
 269.03263 428.56853 241.18516 392.66123 203.77057 369.09324 c 0
 165.75989 345.14877 152.94214 323.46963 135.73109 285.04528 c 0
 126.74002 266.15857 87.392488 233.51935 75.750404 205.4207 c 0
 58.444316 163.65088 66.199848 116.05321 70.677874 88.372872 c 1
 80.19375 69.204502 85.106708 64.740582 97.079593 63.554382 c 0
 99.935944 63.271372 103.55732 63.819182 105.39005 63.671382 c 0
 110.40697 63.266792 111.38228 62.469182 117.96278 61.901602 c 0
 140.68855 60.372242 161.01749 63.158542 182.358 65.606192 c 0
 203.97314 68.085352 225.50742 73.605122 246.78551 78.216562 c 0
 277.84261 85.015622 307.84757 94.151442 334.62346 104.68004 c 0
 349.63024 108.72704 365.02933 114.29432 380.40373 120.20341 c 0
 403.90881 129.23689 427.35616 139.06812 449.25533 145.48361 c 0
 470.01033 154.65995 493.04124 160.41035 515.71748 166.26307 c 0
 542.66266 173.2176 569.10701 180.31478 590.63631 193.46965 c 0
 609.68455 205.77539 613.7427 228.16514 619.53325 247.07754 c 0
 632.42746 292.68249 664.6666 310.60295 669.9523 316.57551 c 0
 679.45436 325.73387 682.77817 349.70902 682.16054 357.11353 c 0
 681.11237 369.68573 668.70168 364.67158 655.87821 377.44303 c 0
 650.46691 382.59006 650.58918 398.21719 635.87682 407.7392 c 1
 626.97062 406.97832 604.43925 421.9019 570.53644 437.31344 c 0
 553.84682 444.90022 480.77913 459.70558 469.27436 463.03183 c 0
 460.74587 465.4976 454.66102 452.79265 452.53058 452.4342 c 0
 432.05835 448.98975 428.60688 456.13633 411.90222 461.99293 c 0
 398.50968 466.6891 418.37542 469.90343 391.33418 479.24324 c 0
 385.2406 479.95057 381.23961 484.01448 376.52744 487.5086 c 0
 367.94374 494.12773 363.84846 490.31032 353.91425 487.85289 c 0
 345.30937 485.58239 339.5474 484.11454 332.74134 483.67631 c 0
 316.94412 484.8378 309.24676 470.75814 297.21094 459.24648 c 0
367.05256 909.23738 m 0
 368.42232 898.36679 367.77168 887.84476 365.9646 877.60751 c 0
 363.33655 862.60402 351.31879 854.01694 352.89145 839.99504 c 0
 358.44337 812.01484 365.24665 780.27729 370.13065 755.13939 c 0
 376.14384 724.2681 382.75601 693.42173 394.15811 662.50182 c 0
 403.79521 636.36828 412.46987 615.48603 429.86431 581.1166 c 0
 434.9846 570.99948 451.65847 540.81544 457.81209 532.52433 c 1
 487.36364 529.17011 522.7149 516.28453 557.49543 503.91344 c 0
 602.35812 487.95631 638.57829 470.74227 669.63415 453.80118 c 1
 756.82361 455.05347 774.59544 499.42495 816.55187 558.6475 c 1
 846.69253 590.2125 838.95121 644.49911 858.92784 672.25867 c 0
 873.75136 690.5102 871.42449 709.02332 871.52537 723.15335 c 0
 871.52537 741.66052 838.41857 763.40408 835.66435 782.71576 c 0
 830.61613 801.78873 835.28696 821.07083 845.5587 835.76962 c 0
 858.10457 853.72276 879.00621 864.83737 900.75895 860.37813 c 0
 921.41567 855.3579 927.77287 851.00947 940.64178 832.30727 c 0
 962.67577 794.48835 944.84757 779.39317 944.84757 724.67644 c 0
 944.84757 675.99668 931.65138 671.33019 921.36077 656.16858 c 0
 897.47864 614.87644 879.7171 570.60048 860.82362 530.46566 c 1
 852.89495 503.22627 838.27551 482.52127 820.78316 464.82367 c 0
 795.457 439.19956 764.10823 419.8818 738.32376 396.16525 c 1
 740.59621 388.11261 737.51309 366.69016 741.376 355.50921 c 0
 742.37677 328.75228 734.34365 322.41518 727.62089 303.4136 c 1
 723.74458 247.51672 692.1916 277.20172 680.88891 244.95998 c 0
 650.2346 168.16867 644.35043 151.62165 606.82767 136.39963 c 0
 595.26395 131.70842 580.69563 127.14403 561.47123 120.97927 c 0
 535.24563 112.45217 498.27821 96.857482 460.28689 86.805142 c 0
 414.97756 74.083202 381.95347 60.373492 360.43534 57.056692 c 0
 328.29609 52.102752 265.02993 36.307592 211.68359 25.232502 c 0
 200.44159 22.898582 191.35813 20.774262 181.87347 19.005192 c 0
 161.62591 15.466082 137.8405 13.257132 120.06793 16.840962 c 0
 104.98496 19.979222 96.398059 19.682882 90.368654 18.657712 c 0
 56.362341 10.151642 31.676447 49.823492 18.393567 83.847712 c 0
 9.5337817 110.95734 14.853123 135.60988 18.955154 175.39079 c 0
 23.901105 216.9486 25.992262 225.96134 43.351716 252.23557 c 0
 57.355964 273.43221 72.620353 292.82221 92.030062 315.51312 c 0
 108.40126 336.10125 135.3679 387.09899 172.57172 410.19318 c 0
 206.96392 431.54136 233.82393 451.30704 238.46932 464.58189 c 0
 256.40245 507.7142 294.27205 516.68432 319.09907 535.51856 c 0
 333.68027 546.5796 364.15921 532.98965 363.06135 559.77625 c 0
 366.28221 594.17436 350.45937 618.26251 341.53198 644.40105 c 0
 327.04592 677.91521 320.52534 714.10001 313.52885 748.05714 c 0
 307.86174 775.56005 304.40542 811.9924 293.62803 833.96685 c 1
 276.1441 838.98187 267.22234 852.12497 259.10146 865.39775 c 0
 252.56278 876.15538 247.64514 887.92599 245.07661 899.52546 c 0
 242.59422 917.74488 244.56969 933.72873 254.28887 947.14247 c 0
 264.59578 962.50025 286.92925 971.30253 303.76914 973.13032 c 0
 307.36142 973.43016 310.9391 973.31416 314.46107 972.80227 c 0
 322.52696 971.62996 331.74247 968.38131 338.73054 963.29599 c 0
 345.0554 957.63125 351.75177 952.08343 357.18915 943.0407 c 0
 363.97945 931.74798 367.36461 918.665 367.05256 909.23738 c 0
EndSplineSet
EndChar

StartChar: AlefPhoenician
Encoding: 5 67840 5
Width: 1159
Flags: W
LayerCount: 2
Fore
SplineSet
327.52078 362.00328 m 0
 324.79215 373.78782 327.26986 384.85648 334.95333 395.20858 c 0
 342.63667 405.56076 353.47019 412.10114 367.45314 414.82969 c 0
 381.43725 417.55836 394.47373 415.67512 406.56139 409.18142 c 0
 418.64911 402.6874 426.05727 393.54786 428.78573 381.76317 c 0
 431.51417 369.97939 428.79273 358.86376 420.63046 348.41748 c 0
 412.46521 337.97122 401.39002 331.38356 387.40593 328.65488 c 0
 373.42294 325.92635 360.62816 327.85553 349.02258 334.44447 c 0
 337.41691 341.03288 327.52078 362.00328 327.52078 362.00328 c 0
201.18169 364.4838 m 1
 166.32717 334.77462 153.48749 312.30298 143.55124 273.60314 c 0
 138.10795 254.47187 95.754131 194.66991 89.479084 166.5633 c 1
 138.52309 119.18591 138.57875 115.32368 158.54546 109.07649 c 1
 183.66585 109.10609 224.03898 130.08489 257.35126 130.34757 c 1
 310.5635 143.83902 355.31932 169.34724 403.79427 187.2178 c 0
 437.61102 199.6906 474.47378 213.55526 502.03927 227.53184 c 0
 538.45115 245.99387 547.4556 268.75762 551.72923 274.09736 c 0
 558.83261 285.90465 563.6002 299.12668 565.23423 314.28773 c 0
 569.11394 358.67624 595.85494 383.67271 600.14124 390.22319 c 0
 608.18314 400.55436 574.82024 411.71396 572.60257 418.36518 c 0
 553.22712 471.91135 538.0591 470.18573 488.88806 474.81788 c 1
 470.72683 488.55594 468.70939 508.2425 465.89819 522.56966 c 0
 461.60939 535.69666 464.30721 548.28514 466.79163 560.13804 c 0
 470.46219 581.65808 466.77573 591.8654 459.68513 594.63704 c 0
 451.8748 597.6895 439.93435 591.72115 429.14632 581.91228 c 0
 420.7127 570.3613 386.87185 554.53661 375.88968 546.29168 c 0
 339.37901 518.87882 316.15735 511.15289 282.27212 477.3598 c 0
 244.32937 439.19696 249.2162 407.54019 201.2034 364.48798 c 1
 201.18169 364.4838 l 1
311.49287 895.72202 m 1
 316.80276 866.57211 333.74261 827.2813 347.41896 802.67332 c 0
 361.7027 776.97245 372.73098 765.98836 377.87723 736.77974 c 1
 377.20067 699.44832 341.38041 579.9712 364.35292 591.48107 c 0
 382.23314 600.43955 386.13276 602.8494 403.59021 620.88564 c 0
 414.49534 632.15232 452.43756 647.36481 473.11003 646.16668 c 0
 494.71447 644.91412 501.67838 623.53687 508.17924 621.01133 c 0
 541.18622 608.18896 507.41527 548.85199 524.27344 563.54889 c 0
 551.55071 588.53916 542.28126 630.8832 571.26185 636.66446 c 0
 603.99096 643.81362 650.36268 645.1248 660.60915 655.2965 c 0
 696.74055 691.16392 749.99195 676.18815 769.14193 698.48451 c 0
 780.84526 718.22957 790.3518 723.76837 787.46298 736.72309 c 0
 783.54072 753.66357 744.15384 766.78045 737.16749 783.89276 c 0
 727.82268 800.3166 728.63987 818.9234 736.31779 834.48426 c 0
 745.69242 853.48941 765.2935 867.94762 789.08986 868.32475 c 0
 811.85411 867.96374 819.45391 865.2867 836.93667 850.80557 c 0
 868.09845 820.70445 852.56951 803.23251 864.16598 753.1474 c 0
 874.48322 708.58813 858.04198 679.84521 850.44512 663.85744 c 0
 824.85814 627.00343 801.51179 650.31621 762.87872 623.75162 c 0
 754.62893 618.07894 714.70028 616.35957 706.74845 611.33901 c 0
 666.28198 560.99446 646.86931 556.85993 619.21872 558.5347 c 1
 597.29365 527.77446 570.07482 528.93772 582.33324 498.38145 c 1
 618.90829 474.51163 663.13627 446.06155 666.92116 440.50238 c 0
 673.64045 416.21506 666.54707 408.76802 663.51208 389.99682 c 1
 653.55858 381.07007 638.9243 349.02845 633.71214 322.82355 c 0
 627.62174 292.2012 631.49543 266.8852 626.63173 255.24617 c 0
 605.91287 223.59263 576.74627 203.54757 544.28109 186.92508 c 0
 508.32518 168.5158 468.32203 154.30389 431.26297 133.16915 c 1
 401.23219 129.24337 371.24498 120.59236 341.41877 110.77223 c 0
 283.36704 91.658083 225.92466 68.111683 169.94773 66.339116 c 0
 90.035523 62.659387 36.713026 122.56879 36.181065 127.43321 c 0
 32.568745 166.48708 40.792782 197.02564 53.460235 224.63348 c 0
 63.67887 246.90716 75.604562 267.78505 91.185323 292.53385 c 1
 88.02665 330.10728 122.81873 352.15415 154.8226 391.01634 c 0
 181.0114 422.81709 201.39971 470.69254 230.52574 507.24652 c 0
 243.71717 523.80271 282.91466 535.52005 294.68905 556.99125 c 0
 312.1391 588.81229 300.10135 630.20476 303.34831 644.3641 c 0
 306.7644 659.26103 308.66749 690.97182 301.70878 712.53834 c 0
 279.17625 770.03361 210.01789 805.33528 199.02756 857.1171 c 0
 194.11164 888.51884 208.70278 922.68885 237.09727 930.98708 c 0
 264.15086 938.35744 295.07423 925.3309 311.49287 895.72202 c 1
EndSplineSet
EndChar

StartChar: Beth
Encoding: 6 1489 6
Width: 1024
Flags: W
LayerCount: 2
Fore
SplineSet
448.70625 773.18592 m 0
 447.96249 768.66075 447.15782 764.2539 446.30483 759.96402 c 0
 438.84674 722.45553 429.05421 693.61316 422.62283 673.05018 c 0
 416.04415 646.38447 406.1552 649.96397 379.29664 653.35895 c 0
 335.10738 657.95418 297.53662 665.35637 246.86498 672.77131 c 0
 237.91447 673.62484 194.41078 676.00847 194.41078 676.00847 c 1
 168.5 552.01225 146.09371 423.33902 123.88944 330.3409 c 1
 137.12722 312.09884 153.01461 290.39716 161.51462 278.9307 c 1
 226.58314 253.24242 299.76015 233.40941 372.55325 213.43787 c 0
 478.76758 178.90604 557.51411 153.10172 669.65811 129.93926 c 1
 745.00949 152.08596 l 1
 859.65361 527.82334 l 1
 833.36638 534.34308 670.70381 574.58931 669.19931 582.80832 c 0
 670.56304 628.87697 675.58366 672.2973 688.31278 715.2479 c 0
 693.82073 733.83271 694.99306 743.27284 703.11758 762.72893 c 0
 706.6713 777.59634 705.55856 787.58227 701.78413 788.1787 c 0
 694.78662 795.80973 685.85074 804.11045 677.20918 802.08089 c 0
 664.22631 799.03173 651.90781 788.32039 647.82516 779.68363 c 0
 646.0116 774.6793 647.04513 762.25369 645.10513 754.34196 c 0
 643.48573 747.73781 643.86773 739.54702 642.30157 731.71837 c 0
 629.20423 666.24904 610.50436 560.1796 617.20197 554.52325 c 0
 626.179 548.24766 637.46994 536.00748 650.27235 535.33581 c 0
 700.12289 525.23846 759.26358 504.57651 801.68108 497.08615 c 1
 779.0334 414.32803 771.63543 393.95689 751.98329 328.37136 c 0
 733.80685 277.05425 721.20337 223.29593 699.96 172.04753 c 1
 688.3374 177.98562 480.50039 228.39056 386.50256 255.59677 c 0
 304.66564 279.33482 230.27402 301.49821 173.09638 318.6702 c 1
 180.69728 371.5183 191.82092 422.02387 203.50982 469.81883 c 0
 217.14504 527.31607 224.28345 570.95823 238.52406 625.63232 c 1
 278.54134 618.79677 311.15713 616.38593 346.69673 611.62576 c 0
 358.98131 609.52964 373.10902 607.25391 386.03402 606.56829 c 0
 407.45796 605.59741 428.40126 608.03032 449.06004 618.76334 c 0
 459.08971 627.09431 461.54162 641.57786 467.38252 654.51665 c 0
 479.13947 690.76787 488.81857 718.91481 494.30887 749.45806 c 0
 496.80303 774.25826 505.78474 797.02944 502.75417 816.33899 c 0
 501.4267 824.79677 497.79462 832.59047 490.30333 839.5996 c 0
 485.2401 844.93544 475.11926 848.99608 465.09812 843.62778 c 0
 456.04393 838.58867 448.14401 826.93923 445.23658 814.28022 c 0
 443.08216 798.50193 447.5415 785.18101 448.70625 773.18592 c 0
EndSplineSet
EndChar

StartChar: BetPhoenician
Encoding: 7 67841 7
Width: 1159
Flags: W
LayerCount: 2
Fore
SplineSet
200.78677 555.29037 m 0
 158.45428 525.6328 128.57204 488.61201 109.39112 448.44988 c 0
 83.39952 383.15545 79.070305 321.39103 91.732725 264.07898 c 0
 108.91029 202.62188 127.04326 185.83567 163.89214 151.60214 c 0
 191.91137 125.57172 227.98582 107.04573 275.71715 95.468495 c 0
 322.88699 84.142415 365.45944 84.404425 422.96107 84.611915 c 0
 573.86664 85.156975 757.18139 110.91672 869.57265 117.27828 c 1
 895.9626 148.86753 l 1
 838.19482 813.02419 l 1
 814.01844 840.44266 l 1
 128.46426 829.90929 l 1
 122.55796 812.12814 112.80874 825.20854 108.78446 792.16279 c 1
 122.53855 762.22186 114.3746 753.85575 133.14992 753.20703 c 2
 704.39004 756.82252 l 1
 723.32877 743.28625 772.01022 701.64687 772.01022 701.64687 c 1
 783.52388 567.68923 825.01999 341.27543 810.26181 232.86613 c 0
 806.09617 202.26657 814.77049 196.26611 783.20138 177.55038 c 1
 724.76234 177.59168 662.30589 165.53379 609.91682 162.69088 c 0
 546.84196 159.26803 484.49117 154.81296 414.0493 151.88015 c 0
 339.34309 148.78423 274.398 157.68207 225.98197 190.97982 c 0
 199.77722 209.00182 183.19851 203.74464 167.75088 238.02907 c 0
 143.30689 294.29721 144.94114 360.16572 166.19731 419.70994 c 0
 183.02606 464.58118 219.88761 496.46671 287.04715 556.24743 c 1
 272.27992 564.13496 256.87998 567.62492 240.84724 566.71741 c 0
 229.03359 566.04951 215.68012 562.23973 200.78677 555.29037 c 0
EndSplineSet
EndChar

StartChar: Gimel
Encoding: 8 1490 8
Width: 1024
Flags: W
LayerCount: 2
Fore
SplineSet
426.14899 778.39167 m 1
 427.71734 767.95238 425.18345 753.1909 420.16311 738.66238 c 0
 411.56581 722.33926 402.69661 705.67011 393.60931 688.8383 c 0
 349.72613 607.55384 300.76475 522.47613 252.83313 454.26045 c 1
 355.31689 322.57366 379.80944 298.02071 454.63907 177.50664 c 1
 448.38129 162.1685 420.14112 146.6982 381.56523 133.8096 c 1
 307.44196 254.59854 225.60826 348.36621 137.09215 462.64426 c 0
 134.13767 469.855 157.73468 550.81443 173.83588 570.27483 c 1
 189.22609 610.73039 210.32624 647.39255 235.19655 682.4077 c 0
 254.24124 709.2207 275.49642 735.06793 298.09202 760.9131 c 1
 303.79327 773.61894 324.57002 788.48497 332.61658 795.38761 c 0
 344.55827 805.63383 358.17417 809.90157 370.77536 809.43374 c 0
 388.1574 808.78759 407.06786 797.9868 426.15246 778.3949 c 1
 426.14899 778.39167 l 1
EndSplineSet
EndChar

StartChar: GamlPhoenician
Encoding: 9 67842 9
Width: 1159
Flags: W
LayerCount: 2
Fore
SplineSet
482.05614 760.35723 m 1
 483.93432 749.79671 480.89991 734.8638 474.88788 720.16655 c 0
 464.59237 703.65386 453.97129 686.79113 443.089 669.76384 c 0
 390.53773 587.53538 331.90516 501.46962 274.5058 432.46172 c 1
 397.23284 299.24559 426.56329 274.4075 516.17379 152.49384 c 1
 508.67989 136.97758 474.86156 121.3276 428.66589 108.28932 c 1
 339.9013 230.48104 241.90327 325.33767 135.90284 440.9429 c 0
 132.36478 448.23738 160.62284 530.13703 179.90445 549.82343 c 1
 198.33464 590.74882 223.60261 627.83675 253.3855 663.25855 c 0
 276.19199 690.38294 301.64566 716.53035 328.70453 742.67568 c 1
 335.53189 755.52908 360.41264 770.56775 370.04856 777.55057 c 0
 384.34911 787.91577 400.65449 792.23307 415.74475 791.7598 c 0
 436.56018 791.10616 459.206 780.17993 482.0603 760.3605 c 1
 482.05614 760.35723 l 1
EndSplineSet
EndChar

StartChar: Dal
Encoding: 10 1491 10
Width: 1159
LayerCount: 2
Fore
SplineSet
550.84505 611.31677 m 0
 545.89141 608.09038 537.24249 601.3048 531.62522 596.2377 c 0
 518.66674 584.54833 473.15201 557.1933 439.04692 540.59674 c 0
 413.41936 528.12564 411.66336 527.79628 369.83552 527.6154 c 0
 337.76456 527.47667 323.35423 528.9078 312.81379 533.27818 c 0
 305.05604 536.49477 295.22073 539.16207 290.95756 539.20546 c 0
 286.69439 539.24886 279.10829 542.40655 274.09957 546.22258 c 0
 260.8621 556.30793 251.83494 554.92292 239.49387 540.91319 c 0
 229.47843 529.54353 226.48517 528.3409 203.65365 526.51324 c 0
 189.952 525.41641 174.68253 523.01589 169.72149 521.17873 c 0
 164.76045 519.34157 154.47799 517.83845 146.87158 517.83845 c 0
 128.55647 517.83845 87.095346 499.2252 66.963546 481.96509 c 0
 58.111446 474.3757 48.849556 468.16621 46.381556 468.16621 c 0
 43.913556 468.16621 35.128646 461.01714 26.859526 452.2794 c 0
 13.606166 438.27495 11.824776 434.37983 11.824776 419.40489 c 0
 11.824776 398.9163 21.123606 380.4801 36.676986 370.13202 c 0
 48.094146 362.5359 93.367236 353.96495 117.97499 354.74097 c 0
 124.70573 354.95315 141.68723 354.9716 155.71164 354.78217 c 0
 169.73606 354.59235 195.14393 356.23338 212.17358 358.42861 c 0
 229.20323 360.62388 247.23462 362.94325 252.24334 363.58278 c 0
 284.74204 367.73233 311.58536 372.88923 330.56151 378.6285 c 0
 342.58243 382.26422 355.69617 384.17689 359.70315 382.87892 c 0
 363.71013 381.58095 370.6768 379.29751 375.18465 377.80465 c 0
 379.6925 376.31175 383.38074 373.79461 383.38074 372.21102 c 0
 383.38074 370.6274 392.58225 365.97851 403.82852 361.88012 c 0
 427.68248 353.1872 434.37861 355.87436 434.37861 374.13994 c 0
 434.37861 384.74046 432.74435 386.37421 414.40591 394.10658 c 0
 387.87019 405.29532 387.75723 412.70802 413.82395 432.29563 c 0
 442.4648 453.81751 463.76377 458.93747 512.69678 456.06329 c 0
 534.73515 454.7688 559.32341 452.96119 567.33736 452.04637 c 0
 604.59747 447.79294 634.40849 448.65312 640.07698 454.1452 c 0
 647.66441 461.49658 649.64127 490.91578 645.2395 530.97289 c 0
 639.86053 579.92233 635.29495 591.98523 617.00467 605.57307 c 0
 603.5758 615.54938 598.4551 617.18307 580.61419 617.18307 c 0
 567.36275 617.18307 556.59338 615.06093 550.84505 611.31677 c 0
594.44587 595.43507 m 0
 613.35191 589.01571 618.55121 573.19028 629.26492 489.45431 c 0
 631.71668 470.29165 628.16927 467.65101 601.61136 468.86929 c 2
 578.26548 469.94022 l 1
 578.87472 482.35828 l 2
 581.10132 527.74096 564.11812 529.68031 556.49937 484.91338 c 2
 554.21696 471.50238 l 1
 504.31524 472.18715 l 2
 454.60663 472.86929 454.32184 472.82707 430.73591 461.2798 c 0
 417.71323 454.90412 399.68184 443.76338 390.66615 436.52262 c 0
 341.51865 397.0509 322.32906 386.71872 285.02769 379.64404 c 0
 253.02518 373.57442 188.90308 366.08707 184.08128 367.85689 c 0
 181.65318 368.74812 178.56526 372.92215 177.21923 377.13254 c 0
 171.89933 393.7732 139.14246 460.82491 128.02742 477.82576 c 0
 118.75959 492.00122 121.34101 496.55705 138.62377 496.52679 c 0
 146.01861 496.51259 166.38082 499.17435 183.87313 502.43906 c 0
 210.7827 507.46135 217.87112 507.66966 229.9321 503.79263 c 0
 241.28405 500.14353 247.91256 500.08098 262.48252 503.48537 c 0
 276.66137 506.7984 282.60408 506.80855 288.89274 503.53047 c 0
 294.98564 500.35443 300.2796 500.28159 310.1417 503.23812 c 0
 317.36562 505.40375 347.86436 508.52253 377.91668 510.16878 c 2
 432.55726 513.16192 l 1
 459.87755 528.21931 l 2
 474.90371 536.50088 500.31158 551.9112 516.33948 562.46442 c 0
 532.36739 573.01764 546.51169 581.66352 547.77122 581.67746 c 0
 549.03076 581.69166 552.07577 576.96591 554.53788 571.17639 c 0
 561.00423 555.97101 567.75598 551.31587 574.93113 557.11592 c 0
 579.33687 560.67735 580.14686 565.39774 578.35221 577.05404 c 0
 576.33983 590.12483 577.68305 599.44288 581.57957 599.44288 c 0
 582.16412 599.44288 587.95395 597.63938 594.44587 595.43507 c 0
130.98492 446.87811 m 0
 156.50447 396.80318 166.04472 372.14499 161.58121 367.7975 c 0
 157.10329 363.43599 95.700526 364.0944 70.357396 368.77569 c 0
 34.805316 375.34275 16.036226 400.78284 26.309276 428.47962 c 0
 32.072076 444.01646 37.390926 448.40922 59.179946 455.6271 c 0
 69.401386 459.01304 79.464946 465.81168 85.913176 473.68721 c 0
 102.58929 494.05453 108.83614 490.33887 130.98492 446.87811 c 0
EndSplineSet
EndChar

StartChar: DeltPhoenician
Encoding: 11 67843 11
Width: 1159
LayerCount: 2
Fore
SplineSet
828.37153 388.53111 m 0
 820.19793 391.37979 805.49317 398.08183 795.69438 403.42476 c 0
 773.08946 415.75027 748.86123 430.40114 694.70128 441.58812 c 1
 666.23515 438.10935 639.5844 424.68944 613.93163 411.35681 c 0
 591.80713 399.85803 570.42493 388.42407 549.26072 383.48861 c 0
 520.93362 377.03152 496.70928 369.4474 472.06858 363.12577 c 0
 466.09564 361.34796 450.37587 358.4147 444.77581 350.67752 c 0
 429.9756 330.22915 416.77234 328.67869 394.16134 344.73292 c 0
 375.81134 357.76173 370.33309 354.13369 337.57025 347.69866 c 0
 317.9086 343.83691 296.37403 345.5296 288.71298 346.29137 c 0
 282.90322 347.90436 281.27476 355.38265 276.85624 357.89381 c 0
 260.09301 367.42126 248.94823 367.36009 234.79077 371.88928 c 0
 222.49163 375.47889 206.96959 371.74556 197.68323 376.49805 c 0
 189.70485 380.58093 183.35871 363.52121 174.22282 362.85498 c 0
 165.8473 362.2441 154.34202 378.27885 153.72983 376.23673 c 0
 152.2049 371.15052 142.50922 355.80623 135.08076 358.15486 c 0
 131.85482 359.17484 133.1776 376.65706 128.91387 377.88856 c 0
 120.67265 380.26873 106.68247 379.71171 101.17943 383.32351 c 0
 96.830537 386.1776 117.37625 400.81196 114.87391 403.79272 c 0
 103.62979 417.18665 91.438389 417.11561 86.827499 435.48897 c 0
 79.114995 466.22154 85.238522 497.61303 103.19338 519.38627 c 0
 116.37342 535.36905 176.74899 566.42154 211.61136 575.14783 c 0
 221.1469 577.53477 245.01033 584.33235 264.64121 590.25327 c 0
 283.71157 598.3105 299.89525 601.91783 320.57727 607.76892 c 1
 360.80752 608.51337 355.64303 614.96613 370.69673 615.01458 c 1
 381.29159 619.07297 397.44945 633.19524 408.77611 634.56842 c 0
 414.15565 634.89267 419.11412 622.25699 427.89812 621.53609 c 0
 443.48841 620.25656 444.20016 634.71864 451.63218 634.46544 c 0
 454.2348 634.37614 462.04769 634.12468 467.73082 627.56108 c 0
 472.26526 622.32411 473.7401 610.71788 482.56684 609.13399 c 0
 491.87777 607.46322 517.576 622.37595 522.96636 622.25049 c 0
 550.98621 621.59821 552.13342 631.91367 566.06186 630.09674 c 1
 609.52204 609.06795 550.69492 598.58995 598.18236 577.72464 c 0
 616.18689 569.98787 628.43478 566.15278 640.21287 565.62513 c 0
 660.05608 564.73642 678.56621 573.2359 721.02557 588.28288 c 0
 751.49892 599.08228 785.3613 611.67615 796.27528 616.26935 c 0
 847.01912 637.6251 889.22289 648.31651 899.25365 642.35675 c 0
 912.68015 634.37923 926.53161 591.04535 935.4264 529.19114 c 0
 946.29575 453.60562 939.73413 451.4704 919.15387 423.73753 c 0
 904.04368 403.37591 897.46484 398.86728 872.40096 391.69673 c 0
 853.78466 386.37072 837.85656 385.22529 828.37153 388.53111 c 0
904.5516 453.85057 m 0
 910.73855 477.41489 897.722 604.69519 888.98746 611.856 c 0
 879.49717 618.51785 860.6739 614.39937 847.04211 606.23145 c 0
 831.50842 596.50467 813.18972 588.42471 794.12167 581.70602 c 0
 767.46546 572.3135 739.3447 565.58115 715.32019 560.72851 c 0
 691.36519 552.31375 677.06723 543.37851 652.27154 538.75431 c 1
 644.26543 532.91432 629.88315 533.67365 615.29968 537.98469 c 0
 600.28861 542.422 585.06437 550.62227 576.36144 559.26168 c 1
 549.98685 570.36151 517.72753 570.88591 488.55742 571.6761 c 0
 454.18944 575.4147 424.80229 577.16762 396.34456 575.72704 c 0
 364.35573 574.10769 343.69976 570.07083 308.30522 558.66556 c 1
 308.77754 552.18505 306.82955 516.95928 307.49687 479.69776 c 0
 308.27907 436.01554 304.49249 408.02839 305.21894 396.09818 c 1
 325.12725 392.41357 341.74011 389.63351 358.11071 387.33332 c 0
 376.48203 384.75191 394.54808 382.77475 416.62407 380.80165 c 0
 428.60546 380.5517 445.53743 386.6541 463.42729 390.69597 c 0
 490.34739 396.77807 519.43621 402.28502 537.08917 407.06918 c 0
 559.23341 410.01462 584.41669 427.0577 608.01256 443.17634 c 0
 631.04643 458.91133 652.56766 473.76533 668.2723 473.76452 c 0
 674.63409 473.80372 688.71511 481.54838 749.6132 481.02777 c 1
 782.35818 486.10329 777.33839 480.53044 781.82369 457.64655 c 1
 789.23608 448.08906 817.66798 424.95752 833.90375 418.85418 c 0
 852.26016 411.95361 858.94065 422.76857 874.7272 424.32797 c 0
 894.03886 426.23557 900.50324 438.88709 904.5516 453.85057 c 0
273.99845 550.75462 m 1
 238.99391 540.99225 219.7671 539.44598 178.98902 519.40495 c 0
 131.51565 495.26534 109.17651 473.2025 134.03447 435.7867 c 0
 139.29221 431.70869 159.18624 417.31237 171.30109 412.75747 c 1
 183.46329 412.55434 203.39628 408.69746 222.26093 405.17538 c 0
 242.84276 401.33271 262.15295 397.88858 268.71184 400.02354 c 1
 269.44973 425.5297 270.69281 452.1986 271.6131 477.90762 c 0
 272.60154 505.52221 274.78055 527.98536 273.99845 550.75462 c 1
EndSplineSet
EndChar

StartChar: Hei
Encoding: 12 1492 12
Width: 1159
LayerCount: 2
Fore
SplineSet
498.38911 547.88759 m 1
 519.40128 540.82685 540.8535 545.19984 562.74512 561.01008 c 0
 577.14464 573.77323 587.46093 586.53766 594.09829 599.95301 c 0
 603.72857 624.62931 603.27364 656.97423 597.28685 675.06313 c 0
 586.63245 694.21331 573.49608 712.42873 559.38308 717.66198 c 0
 531.5588 720.84105 509.75581 712.67277 493.23777 698.20866 c 0
 472.8426 680.34905 460.50496 652.89122 454.83823 625.34476 c 1
 457.08909 590.10143 475.10771 569.38162 498.38911 547.88759 c 1
658.66325 423.2338 m 1
 621.38471 369.69766 l 1
 565.53765 412.77435 548.73532 426.89037 506.7955 455.3016 c 1
 468.82682 322.53347 l 1
 564.73798 127.33297 l 1
 506.08003 104.7587 l 2
 492.43968 97.75834 429.47185 241.64387 408.88326 251.87309 c 0
 401.33923 254.40349 227.35952 201.28417 222.68399 214.44808 c 2
 207.46771 279.13021 l 1
 400.6168 336.864 l 1
 444.62102 476.36308 l 1
 388.03064 476.99889 345.90246 474.23406 288.75332 472.75243 c 1
 294.71035 487.53316 293.08821 522.76622 297.74094 531.08125 c 1
 338.69684 536.70209 434.35854 530.9528 425.76157 548.52758 c 0
 412.03288 576.57787 398.61476 610.38581 402.03918 638.44412 c 0
 407.56978 683.75932 432.54645 726.77692 474.26688 758.07852 c 0
 509.18217 783.58074 543.47602 790.672 577.1478 779.35194 c 0
 610.81894 768.03029 634.23236 741.74486 647.38835 700.49534 c 0
 659.4835 662.46246 657.45772 621.66764 644.19409 586.43972 c 0
 632.40855 555.13876 611.75063 528.23261 584.24198 511.5637 c 0
 574.74118 506.04176 563.76482 496.91526 555.06908 497.22964 c 1
 658.66325 423.2338 l 1
EndSplineSet
EndChar

StartChar: HePhoenician
Encoding: 13 67844 13
Width: 1159
LayerCount: 2
Fore
SplineSet
358.37402 792.73747 m 0
 356.15153 794.74092 353.97224 796.35777 352.25216 797.40682 c 0
 349.50608 799.08163 345.86331 800.48554 342.80863 800.70904 c 0
 338.11393 800.31757 333.80961 798.12184 330.18883 795.09867 c 0
 326.43049 791.96066 323.40861 787.93115 321.45099 784.10257 c 0
 318.84766 778.90654 317.48597 773.10399 317.93047 767.71784 c 0
 318.60233 761.22935 321.19554 757.97921 323.93113 756.10758 c 0
 332.0586 752.5084 332.58175 750.47118 335.10417 742.41487 c 0
 337.61361 734.35046 338.94744 727.20046 340.48483 731.48203 c 0
 343.47746 734.6281 348.03595 736.47766 352.14329 737.94935 c 0
 358.59165 739.46085 362.26158 743.04986 365.0081 748.28011 c 0
 366.36226 750.68561 367.3151 753.26511 367.94048 755.92135 c 0
 369.54082 762.71857 368.99684 770.01828 367.54636 776.19062 c 0
 365.99175 782.57709 363.06865 788.40102 358.37402 792.73747 c 0
459.19208 567.38194 m 1
 445.46161 520.91642 l 1
 407.81031 541.21086 432.42304 541.16362 404.81573 544.20719 c 1
 403.88124 513.8389 l 1
 418.08911 510.85082 434.32702 514.4594 448.40118 510.88976 c 0
 453.58915 510.06829 467.11577 509.00137 483.72639 508.00763 c 0
 501.80307 509.62548 517.65376 504.38909 534.45116 503.39769 c 0
 546.69456 505.40781 586.53154 504.35332 591.14106 511.33191 c 1
 573.61553 734.97068 l 2
 573.3804 737.97132 567.18537 742.09118 564.31753 746.77927 c 0
 558.74746 755.88472 554.72075 767.13144 554.09638 776.27339 c 0
 553.93165 789.1978 559.99731 800.44925 570.07846 810.0488 c 0
 573.14038 812.96443 578.10527 816.45119 583.7633 819.19338 c 0
 594.39991 824.55199 613.49687 824.02314 623.74172 821.05966 c 0
 628.07911 819.77451 631.93456 818.45688 634.5803 818.09171 c 0
 647.44117 811.49192 659.13113 798.61917 661.07458 785.96543 c 0
 662.73739 772.61832 667.14103 756.51406 657.79964 739.27597 c 1
 664.54843 507.67877 l 2
 665.60668 502.79965 686.42086 439.74088 667.56095 436.11464 c 0
 649.37949 433.19015 628.37223 427.58736 610.32062 424.35667 c 0
 586.6217 420.93583 553.87653 423.49704 531.25249 421.02529 c 0
 513.52443 419.12957 496.39103 418.54663 482.81745 417.79637 c 0
 463.43816 416.71712 467.67047 422.69107 439.34226 425.84473 c 0
 429.11353 427.11973 421.50274 426.07312 415.83764 426.70009 c 1
 419.562 389.10535 417.40333 359.68468 418.33238 323.75781 c 0
 418.77741 306.87472 419.44113 290.36944 419.51504 274.6009 c 1
 429.82078 273.83475 440.34706 275.24205 450.86634 274.6712 c 0
 461.4854 273.67097 472.16129 273.47675 482.71167 273.53411 c 0
 494.27537 273.59701 505.68829 273.96205 516.71035 273.89931 c 0
 528.51354 273.79652 540.07859 273.78509 551.3808 273.77326 c 0
 560.09912 273.76426 568.66104 273.75476 577.05523 273.70306 c 0
 585.70134 273.62406 594.65413 273.52265 603.4021 273.43037 c 0
 611.84674 273.34127 620.10052 273.26071 627.70331 273.21704 c 0
 640.25576 273.56848 646.98146 267.96054 660.42444 260.61007 c 0
 666.52893 257.07386 671.52717 251.93967 675.35063 245.57424 c 0
 680.37315 237.90875 682.36652 230.72617 682.98435 223.6688 c 0
 683.98526 212.2356 682.15537 209.7397 682.96695 197.44279 c 0
 682.21812 190.27394 681.73724 182.14309 681.38597 173.53282 c 0
 680.32935 147.63211 685.12151 118.17587 682.64574 96.734618 c 0
 681.53089 87.079428 683.43944 76.089978 678.03317 68.105128 c 0
 674.73917 63.240018 673.29347 59.982408 666.88584 57.394438 c 0
 657.5556 53.619958 639.10841 52.256848 628.14619 52.777008 c 0
 616.52171 53.328588 605.42697 55.997818 597.9314 60.155028 c 0
 593.85361 62.899958 591.32376 66.553228 589.80508 70.752648 c 0
 588.13163 74.969878 587.49546 84.644408 587.38851 96.811658 c 0
 587.2004 118.21062 588.64921 147.31993 588.97085 168.01238 c 0
 589.2001 182.76042 587.46964 186.99082 585.553 187.34882 c 0
 580.928 187.8986 580.25299 188.43162 574.88879 188.84388 c 0
 569.52029 189.25648 559.46286 189.54812 555.49959 189.61456 c 0
 541.79049 189.77526 527.26311 189.66886 512.55611 189.45784 c 0
 501.67864 189.30178 490.70292 189.08852 479.88735 188.88383 c 0
 469.02003 188.67816 458.31439 188.48113 448.03255 188.35946 c 0
 434.33224 188.19734 421.38439 188.16902 409.80915 188.43236 c 0
 386.70602 190.54098 361.47242 190.70718 338.6614 192.27166 c 0
 328.3202 193.97891 323.56603 202.39322 321.47711 213.68654 c 0
 319.89508 227.22806 318.90716 241.21473 318.13824 255.20551 c 0
 316.86829 278.31255 316.19569 301.43076 314.43037 322.57309 c 0
 313.49756 357.20656 318.89292 391.72848 320.23851 423.91228 c 1
 253.16025 424.69181 78.631399 421.69373 68.599985 432.6003 c 1
 59.247474 693.79417 l 1
 58.80811 743.5345 l 1
 31.194336 772.41968 l 2
 27.603593 775.72852 24.748869 782.13194 28.793321 787.34156 c 2
 50.468921 817.2912 l 2
 58.785278 827.36908 58.800198 827.8148 69.81199 826.77335 c 2
 102.81653 823.65194 l 2
 112.00824 822.17833 115.52375 820.90179 118.23424 810.6529 c 2
 140.35984 696.00425 l 1
 138.76221 512.52844 l 1
 307.34903 512.32605 l 1
 305.84982 556.52769 l 1
 286.69856 550.80667 285.16655 545.47278 281.75889 537.02832 c 0
 279.35165 529.32774 273.32022 518.06773 267.89746 514.99219 c 0
 259.22596 510.76934 249.28454 522.50429 231.00152 539.02475 c 0
 214.15245 553.56485 210.85566 567.38667 211.46859 569.42358 c 0
 224.39929 574.77805 242.67108 575.68838 297.07172 603.85146 c 0
 299.5092 606.15871 302.0582 609.01079 304.23548 611.95863 c 0
 307.03877 615.75401 309.22589 619.70813 309.76547 622.86255 c 0
 310.45664 627.27572 310.78765 634.03682 310.85889 640.09163 c 0
 311.05057 656.37793 310.13562 671.28004 310.13767 679.74773 c 0
 309.79668 686.34233 309.66079 694.28951 309.29306 700.11169 c 0
 309.51096 703.70906 308.25808 703.2567 305.63542 704.07871 c 0
 300.96516 705.56627 295.38252 709.74436 290.68579 713.42451 c 0
 277.92698 723.54242 273.78815 739.59087 269.41944 754.61576 c 0
 266.37616 765.63058 264.17276 788.41733 269.12644 806.99713 c 0
 272.12579 815.20128 275.77675 822.34485 280.03777 828.47305 c 0
 287.93328 839.82829 297.92348 847.69726 309.74429 852.36751 c 0
 321.7941 856.3766 331.93393 857.99619 341.40178 856.96004 c 0
 351.1966 855.8881 360.27223 851.97381 369.99942 844.92238 c 0
 382.67322 833.34922 391.66398 820.58735 397.46297 806.44141 c 0
 401.47126 796.66367 403.95465 786.22466 405.07532 775.05988 c 0
 405.00062 764.47469 403.67753 754.23868 401.40659 744.54553 c 0
 398.0212 730.09553 392.52943 716.85191 385.92699 705.45618 c 0
 383.97349 700.78672 387.18199 705.29499 387.97736 679.88966 c 0
 388.06376 673.42591 386.82011 661.44249 389.11488 640.24013 c 0
 389.13128 635.66953 389.76051 630.29511 390.66428 624.28471 c 0
 392.57177 619.12397 394.37209 615.48831 396.73545 612.63616 c 0
 399.492 609.30949 403.0145 607.04872 408.36639 604.67715 c 0
 438.03885 591.74658 434.26039 590.48796 456.98776 575.12937 c 1
 459.19208 567.38194 l 1
EndSplineSet
EndChar

StartChar: Wav
Encoding: 14 1493 14
Width: 1159
Flags: W
LayerCount: 2
Fore
SplineSet
383.06588 526.99639 m 1
 406.28805 520.68293 429.99653 524.5931 454.19064 538.73005 c 0
 470.10465 550.14241 481.50598 561.55591 488.84143 573.55143 c 0
 499.48458 595.6161 502.98437 652.04562 496.36791 668.22006 c 0
 484.59291 685.34348 470.07491 701.63105 454.47754 706.31045 c 0
 423.7268 709.15305 399.63065 701.84927 381.3753 688.91598 c 0
 358.83504 672.94655 341.19721 620.8869 334.93447 596.25584 c 1
 337.42207 564.7425 357.33583 546.21559 383.06588 526.99639 c 1
276.72704 112.14034 m 1
 261.65204 105.88086 259.50347 98.771457 236.74943 107.91806 c 0
 228.41195 110.18066 216.92839 116.55184 211.76111 128.3234 c 1
 213.57695 165.27731 335.20282 469.52976 334.79627 485.70133 c 0
 333.47725 499.07336 308.07432 516.72366 302.80068 527.56865 c 0
 283.80604 551.05204 272.79866 582.88007 276.58325 607.96882 c 0
 282.69554 648.48805 314.30172 714.46069 360.41017 742.44948 c 0
 398.99773 765.25265 436.89849 771.59339 474.11175 761.47141 c 0
 511.32431 751.34799 537.20026 727.8445 551.73996 690.96065 c 0
 565.10723 656.953 558.86584 592.96788 544.20718 561.46833 c 0
 531.18208 533.48012 508.35143 509.42161 477.94951 494.51686 c 0
 451.06557 483.92743 416.96304 480.86057 403.81934 471.94023 c 1
 379.25926 411.88883 303.19568 181.06412 276.72704 112.14034 c 1
EndSplineSet
EndChar

StartChar: WauPhoenician-x10905
Encoding: 15 67845 15
Width: 1024
Flags: W
LayerCount: 2
Fore
SplineSet
386.93585 564.60642 m 1
 410.68263 557.73219 434.92672 561.98966 459.6674 577.38225 c 0
 475.94092 589.80825 487.59982 602.2355 495.10098 615.29645 c 0
 505.98458 639.3209 509.56343 700.76246 502.7975 718.37351 c 0
 490.75649 737.01782 475.91051 754.75205 459.96078 759.84707 c 0
 428.51534 762.94216 403.87483 754.98966 385.20707 740.90763 c 0
 362.1576 723.5198 344.12131 666.83624 337.71709 640.01745 c 1
 340.26089 605.70512 360.62452 585.53265 386.93585 564.60642 c 1
278.1947 112.90302 m 1
 262.77913 106.08757 260.58202 98.34673 237.31395 108.30572 c 0
 228.78811 110.76929 217.04513 117.70635 211.76111 130.52345 c 1
 213.61798 170.75959 337.99151 502.03562 337.57577 519.64354 c 0
 336.22695 534.20327 310.25015 553.42127 304.85736 565.2295 c 0
 285.43361 590.79868 274.17757 625.45366 278.04765 652.77078 c 0
 284.29803 696.88891 316.61823 768.72122 363.76832 799.19595 c 0
 403.22762 824.0245 441.9846 830.92842 480.03854 819.90741 c 0
 518.09178 808.88483 544.5523 783.29377 559.42046 743.13391 c 0
 573.08972 706.10571 566.70732 636.43747 551.71751 602.14014 c 0
 538.39816 571.66603 515.05174 545.47064 483.96301 529.24207 c 0
 456.47173 517.71208 421.59878 514.37283 408.15815 504.66019 c 1
 383.04323 439.27505 305.26129 187.94859 278.1947 112.90302 c 1
EndSplineSet
EndChar

StartChar: Zain
Encoding: 16 1494 16
Width: 1159
Flags: W
LayerCount: 2
Fore
SplineSet
194.36561 146.28373 m 1
 630.56637 785.10754 l 1
 652.35143 783.63848 669.76335 776.643006667 682.80213 764.12112 c 0
 690.769956667 756.468433333 700.076043333 740.23672 710.72039 715.42598 c 1
 271.51156 72.196589 l 1
 247.776753333 69.0534556667 230.142356667 72.2098356667 218.60837 81.665729 c 0
 207.686516667 93.7751956667 199.605073333 115.314409333 194.36404 146.28337 c 1
 194.36561 146.28373 l 1
41.576567 312.46832 m 1
 468.75259 938.07515 l 1
 493.88009 941.501283333 512.057736667 937.822993333 523.28553 927.04028 c 0
 534.513756667 916.25766 540.546856667 898.30625 541.38483 873.18605 c 1
 107.1898 237.29901 l 1
 81.0580973333 242.942016667 63.6740836667 249.100146667 55.037759 255.7734 c 0
 44.8406656667 267.1872 40.353513 286.085506667 41.576301 312.46832 c 1
 41.576567 312.46832 l 1
EndSplineSet
EndChar

StartChar: ZaiPhoenician-x10906
Encoding: 17 67846 17
Width: 1024
Flags: W
LayerCount: 2
Fore
SplineSet
164.44131 150.00836 m 1
 493.54166 785.88945 l 1
 512.046986667 784.882683333 527.198403333 778.363006667 538.99591 766.33042 c 0
 546.205563333 758.97708 555.07804 743.227523333 565.61334 719.08175 c 1
 234.24332 78.815302 l 1
 214.37592 75.2554153333 199.274386667 78.001782 188.93872 87.054402 c 0
 178.956433333 98.7246406667 170.79063 119.709293333 164.44131 150.00836 c 1
24.990767 310.10523 m 1
 347.28219 932.83008 l 1
 368.30937 936.696066667 383.902463333 933.44833 394.06147 923.08687 c 0
 404.220496667 912.725376667 410.432893333 895.22208 412.69866 870.57698 c 1
 85.111345 237.61941 l 1
 62.6734243333 242.637123333 47.5974913333 248.33535 39.883546 254.71409 c 0
 30.5566473333 265.715856667 25.5923876667 284.17957 24.990767 310.10523 c 1
EndSplineSet
EndChar

StartChar: Het
Encoding: 18 1495 18
Width: 700
Flags: W
LayerCount: 2
Fore
SplineSet
287.51067 108.08658 m 1
 262.69047 77.20334 241.50418 56.12486 214.37495 78.04015 c 1
 176.40351 117.94703 21.687379 271.00908 44.179449 308.03412 c 1
 79.604337 292.4765 115.4608 280.9332 148.60466 271.91888 c 1
 166.92928 245.82039 184.68925 221.23674 204.24914 197.68821 c 0
 225.07199 174.25221 230.32096 175.39114 236.55816 180.9 c 0
 259.01614 200.11162 278.53474 218.49469 296.91455 236.50128 c 1
 285.56489 254.73447 271.3986 270.56875 257.96028 286.06776 c 0
 231.42584 329.62659 222.75617 389.75838 230.03385 436.59001 c 0
 238.12161 479.38925 257.50706 511.69572 283.76519 539.43368 c 0
 293.47267 549.68825 308.75558 562.57151 319.38365 570.04048 c 1
 305.14851 581.13362 288.99442 594.27398 277.10245 607.35286 c 0
 257.28844 629.26174 239.81872 656.35636 229.25336 681.53175 c 0
 220.02365 703.83558 214.43524 727.47423 213.32282 752.033 c 0
 211.48156 802.57175 225.57602 851.27286 265.28864 892.21883 c 0
 338.66011 958.97831 421.75169 966.72205 485.60279 912.75072 c 1
 522.96484 869.89205 545.17248 823.18247 551.00231 775.30556 c 0
 554.3663 747.67905 552.27703 719.66384 544.49941 691.77559 c 0
 534.90324 657.75775 517.78364 626.54958 491.58911 607.04814 c 2
 441.15257 566.1834 l 1
 475.36244 531.51193 l 2
 538.24129 470.89508 544.95122 373.53648 500.57111 308.00487 c 0
 485.66913 286.40161 465.85795 266.74724 453.44391 243.30655 c 1
 475.37285 223.91281 481.63152 194.24155 506.29979 172.12804 c 0
 531.936 149.14811 575.47522 133.42481 570.13121 96.88492 c 1
 560.68229 95.89942 546.48739 83.75837 536.59734 79.59138 c 0
 524.78974 74.61485 517.48192 77.34589 509.29543 73.90762 c 1
 493.82252 91.69719 464.95788 107.92046 451.56355 127.19366 c 0
 437.15588 147.92337 438.08733 171.51567 417.06106 184.78346 c 1
 392.05342 191.90107 371.17156 186.91746 352.79468 175.61505 c 0
 327.76545 160.17526 307.37407 132.88594 287.51103 108.08658 c 1
 287.51067 108.08658 l 1
448.73357 459.08321 m 0
 439.0801 485.48247 386.27492 528.81776 378.27054 527.25799 c 0
 359.42478 518.47607 344.03251 502.82513 331.90192 484.85614 c 0
 317.42908 462.13757 307.23021 438.76485 302.48437 415.27254 c 0
 297.93174 392.73664 298.39718 370.09068 304.92152 347.80659 c 0
 322.48601 310.92869 355.90545 295.70049 387.34275 299.69951 c 0
 401.09701 301.44885 414.4718 306.8787 425.97343 315.78652 c 0
 445.05002 334.27615 455.126 354.03705 459.0568 374.5172 c 0
 464.30507 401.86163 458.59853 430.48826 448.73357 459.08321 c 0
440.80542 651.95214 m 1
 451.08438 667.27952 467.76609 688.59278 475.51041 709.86805 c 0
 486.91059 752.78201 488.75268 787.35488 465.53169 821.63919 c 0
 451.19845 842.62495 431.73085 860.33805 410.36416 868.31646 c 0
 369.3182 879.74254 340.97856 863.54599 316.21617 840.23604 c 0
 279.61525 806.07726 280.83143 745.7349 294.34893 705.31299 c 0
 300.62182 686.55639 320.79787 660.86822 320.79787 660.86822 c 1
 342.38043 637.54168 363.57195 623.04233 384.69915 608.86922 c 1
 406.38275 621.11364 427.90277 634.41124 440.80595 651.95214 c 1
 440.80542 651.95214 l 1
EndSplineSet
EndChar

StartChar: HetPhoenician-x10907
Encoding: 19 67847 19
Width: 700
Flags: W
LayerCount: 2
Fore
SplineSet
286.24348 115.37569 m 1
 260.79147 89.910816 239.06584 72.531606 211.24582 90.600396 c 1
 184.19175 113.4635 107.04476 166.88712 62.222116 217.42403 c 0
 42.532768 239.62349 27.876099 276.64994 29.826447 288.36266 c 1
 66.34869 277.95014 86.65673 280.40591 122.51386 277.83922 c 1
 134.16542 256.9383 163.1602 227.10477 183.0395 206.35585 c 0
 235.28109 154.18127 226.0406 176.49112 247.25053 183.10302 c 1
 295.88677 221.25919 l 1
 281.56176 241.35728 261.67942 252.69485 249.57392 271.16638 c 0
 227.52956 304.90156 221.46432 342.73981 228.30934 378.15621 c 0
 233.17701 403.34174 244.57397 427.30331 261.39638 447.69255 c 0
 278.39063 472.00918 294.91596 479.5521 312.8742 495.81451 c 1
 290.99904 511.26625 269.09568 525.66213 250.97368 546.27014 c 0
 225.68523 575.02772 207.7602 612.16559 207.5506 648.26436 c 1
 213.12852 690.28553 225.10815 723.61002 248.4345 750.32788 c 0
 264.47309 768.69838 288.17634 787.86891 311.07312 800.67211 c 0
 345.14211 817.59816 385.47039 821.02571 419.35088 813.97018 c 0
 447.40353 805.29351 488.89845 788.27591 506.01949 767.28402 c 0
 528.55814 738.55516 545.82412 702.53053 551.37764 669.61431 c 0
 553.34861 657.1069 553.86163 645.23665 553.21137 634.74034 c 0
 550.48442 590.72305 527.62181 564.95869 485.95883 522.02669 c 1
 452.96222 496.86681 l 1
 485.56913 471.78008 513.49776 436.11443 525.57882 401.70856 c 0
 533.21647 379.95719 536.32082 356.98175 530.95026 330.19315 c 0
 521.36294 284.2219 483.20405 268.93614 456.40108 226.87073 c 1
 478.8883 210.88134 485.30656 186.41513 510.60262 168.18203 c 0
 536.89156 149.23318 581.53927 136.26766 576.05912 106.13955 c 1
 566.36967 105.33603 551.81336 95.316346 541.67159 91.880306 c 0
 529.56318 87.777206 522.06951 90.028786 513.67457 87.194106 c 1
 497.80772 101.86193 468.20811 115.23943 454.47271 131.13124 c 0
 439.69849 148.2241 440.65359 167.67589 419.09204 178.61601 c 1
 393.44772 184.48582 372.03424 180.37612 353.18944 171.05602 c 0
 327.52311 158.32625 306.61241 135.82423 286.24396 115.37569 c 1
 286.24348 115.37569 l 1
376.86172 462.47498 m 0
 370.76104 462.48768 340.90939 441.06159 328.52146 429.13856 c 0
 310.21193 411.51617 293.02685 393.76199 289.74813 377.01648 c 0
 282.1313 346.44064 291.17389 313.25055 309.7752 294.74004 c 0
 329.63004 274.98213 360.23867 270.9924 388.61866 273.37085 c 0
 402.72313 274.82061 416.43844 279.28976 428.23303 286.63483 c 0
 450.58235 303.8978 461.8221 321.06532 466.66974 341.17842 c 0
 472.06073 359.57982 474.5977 373.87116 468.71704 388.82824 c 0
 459.15618 413.1457 435.26368 436.66472 411.75554 450.98678 c 0
 399.12561 457.81189 380.32343 461.59478 376.86172 462.47498 c 0
438.04626 559.4077 m 0
 444.24406 566.83826 460.55852 579.40877 468.0984 589.24291 c 0
 484.99856 608.22035 494.72018 629.61083 493.89224 650.38853 c 0
 491.81362 674.933 482.17547 697.16182 467.66369 715.33521 c 0
 422.48461 768.99424 361.81395 768.5456 313.51378 727.72009 c 0
 291.40119 708.58468 276.04071 682.63212 270.74684 651.44139 c 0
 267.85744 630.1558 276.81454 609.68196 294.78355 589.14738 c 0
 310.00184 572.15583 330.52522 557.60592 351.89756 547.78832 c 0
 370.87272 539.35359 383.03616 532.56907 386.78718 531.51449 c 0
 406.5973 540.69166 414.83182 545.57797 438.04626 559.4077 c 0
EndSplineSet
EndChar

StartChar: Tet
Encoding: 20 1496 20
Width: 1159
Flags: W
LayerCount: 2
Fore
SplineSet
584.51472 453.70103 m 1
 607.98348 449.41372 635.30647 448.88868 661.19669 448.00713 c 0
 708.95545 446.94897 761.92165 443.51937 803.84624 441.97259 c 0
 826.39365 441.16973 848.79292 440.81276 871.23232 441.44752 c 0
 892.49966 440.49248 911.77193 445.45306 923.34868 462.1699 c 0
 936.97643 482.31883 938.08636 511.76648 920.33511 528.17544 c 0
 906.01256 540.8268 882.77745 546.51977 858.47634 547.68557 c 0
 838.79582 548.14992 817.88326 548.59125 796.1246 549.08436 c 0
 754.83873 550.02 710.50666 551.14201 665.76485 552.96125 c 0
 637.93844 554.09271 616.08894 557.0064 588.5798 558.8001 c 1
 592.67772 636.21168 594.35925 697.64941 599.19537 768.63562 c 0
 603.14323 827.73801 615.31941 887.43991 602.92739 938.98504 c 0
 596.24542 974.86714 564.99588 991.60642 537.65865 993.5164 c 0
 506.01497 995.72728 471.39266 978.06879 458.93111 947.23106 c 1
 447.75721 882.68073 443.36841 825.02601 438.61938 767.32843 c 0
 432.79656 696.68884 425.2079 630.14216 417.3921 555.90604 c 1
 357.93917 546.62196 295.07293 540.46669 237.25736 533.8503 c 0
 173.66805 526.57317 115.54523 519.00097 59.851633 512.19781 c 1
 47.970758 504.82202 34.902554 485.68483 32.378491 467.95097 c 0
 30.000863 451.24596 54.370162 420.83095 64.652055 412.40733 c 1
 148.05734 419.73641 193.43312 425.73806 241.12735 430.01084 c 0
 300.30795 435.31265 346.64145 443.86727 412.92171 451.05742 c 1
 410.8576 404.18844 408.39601 394.14854 404.3982 338.47699 c 0
 399.83422 274.91923 391.43691 200.6258 390.94344 144.68633 c 1
 395.12193 95.421155 424.04861 69.528205 471.41374 66.571895 c 0
 513.81839 62.998625 552.76575 100.83671 556.12012 140.25578 c 0
 564.67819 215.08303 567.78547 261.66774 574.06666 320.53106 c 0
 580.8333 379.55485 580.482 401.88175 584.51472 453.70103 c 1
EndSplineSet
EndChar

StartChar: TetPhoenician-x10908
Encoding: 21 67848 21
Width: 1024
Flags: W
LayerCount: 2
Fore
SplineSet
584.51472 453.70103 m 1
 607.98348 449.41372 635.30647 448.88868 661.19669 448.00713 c 0
 708.95545 446.94897 761.92165 443.51937 803.84624 441.97259 c 0
 826.39365 441.16973 848.79292 440.81276 871.23232 441.44752 c 0
 892.49966 440.49248 911.77193 445.45306 923.34868 462.1699 c 0
 936.97643 482.31883 938.08636 511.76648 920.33511 528.17544 c 0
 906.01256 540.8268 882.77745 546.51977 858.47634 547.68557 c 0
 838.79582 548.14992 817.88326 548.59125 796.1246 549.08436 c 0
 754.83873 550.02 710.50666 551.14201 665.76485 552.96125 c 0
 637.93844 554.09271 616.08894 557.0064 588.5798 558.8001 c 1
 592.67772 636.21168 594.35925 697.64941 599.19537 768.63562 c 0
 603.14323 827.73801 615.31941 887.43991 602.92739 938.98504 c 0
 596.24542 974.86714 564.99588 991.60642 537.65865 993.5164 c 0
 506.01497 995.72728 471.39266 978.06879 458.93111 947.23106 c 1
 447.75721 882.68073 443.36841 825.02601 438.61938 767.32843 c 0
 432.79656 696.68884 425.2079 630.14216 417.3921 555.90604 c 1
 357.93917 546.62196 295.07293 540.46669 237.25736 533.8503 c 0
 173.66805 526.57317 115.54523 519.00097 59.851633 512.19781 c 1
 47.970758 504.82202 34.902554 485.68483 32.378491 467.95097 c 0
 30.000863 451.24596 54.370162 420.83095 64.652055 412.40733 c 1
 148.05734 419.73641 193.43312 425.73806 241.12735 430.01084 c 0
 300.30795 435.31265 346.64145 443.86727 412.92171 451.05742 c 1
 410.8576 404.18844 408.39601 394.14854 404.3982 338.47699 c 0
 399.83422 274.91923 391.43691 200.6258 390.94344 144.68633 c 1
 395.12193 95.421155 424.04861 69.528205 471.41374 66.571895 c 0
 513.81839 62.998625 552.76575 100.83671 556.12012 140.25578 c 0
 564.67819 215.08303 567.78547 261.66774 574.06666 320.53106 c 0
 580.8333 379.55485 580.482 401.88175 584.51472 453.70103 c 1
EndSplineSet
EndChar

StartChar: Yod
Encoding: 22 1497 22
Width: 1159
Flags: W
LayerCount: 2
Fore
SplineSet
53.373583 246.554 m 1
 91.6304 267.32037 132.57993 280.55813 167.7764 300.94006 c 0
 211.16699 326.06702 243.11595 362.43952 280.1377 401.02453 c 1
 312.88749 468.84786 347.6103 456.18822 390.50761 491.27596 c 0
 416.38476 512.75672 431.25196 536.17303 462.45153 549.80678 c 1
 492.4546 557.67956 515.96757 559.11 545.23103 553.05194 c 0
 593.96066 539.93943 625.31677 534.62665 646.37646 533.13316 c 1
 724.3978 545.68238 734.22276 540.48991 749.76711 542.01642 c 0
 773.78663 544.67038 791.15182 547.66381 818.56085 555.02475 c 0
 827.6431 557.39914 839.39485 549.63372 845.76956 547.7228 c 0
 849.57811 542.46954 879.1451 541.93602 882.24214 537.70516 c 0
 891.51073 525.04403 900.03609 524.83295 913.56376 510.07078 c 0
 921.02981 502.34355 925.79259 507.24336 936.39215 499.82166 c 0
 945.92103 490.80155 966.69617 472.52797 983.47559 475.21113 c 0
 1002.1433 479.7562 996.55374 500.70636 987.99551 517.26897 c 0
 979.12887 535.92109 950.34232 546.51356 932.30063 559.87711 c 0
 921.53962 567.84793 920.69928 578.83945 913.33749 587.49224 c 0
 906.7716 601.68492 911.70736 610.66779 911.42449 622.513 c 0
 911.49319 632.79519 903.40341 632.75733 933.68494 647.0965 c 0
 951.64063 655.59896 995.47005 675.23973 1006.4567 675.31793 c 0
 1020.224 677.9301 1064.3942 654.74972 1081.445 660.86434 c 0
 1102.7117 668.49107 1101.6475 716.67232 1096.6705 724.94066 c 0
 1090.3261 735.48051 1020.4361 756.44436 1003.5086 754.55726 c 0
 981.60593 751.81653 909.47252 723.38466 877.49387 703.35722 c 0
 850.86975 686.68308 833.03225 679.31338 814.58949 671.02858 c 1
 797.17085 668.90464 777.48394 670.99868 758.48823 669.72725 c 0
 734.29665 663.67925 710.95293 661.70795 689.28703 662.07714 c 0
 639.28918 662.92917 598.22632 676.24523 576.29788 680.68891 c 0
 522.74407 697.17645 474.00709 707.2108 428.15433 703.60395 c 0
 387.58186 700.41247 349.26758 686.54064 311.87263 657.00881 c 0
 293.5362 642.29542 278.23238 623.65327 256.96334 592.0209 c 0
 237.6552 563.63324 219.09966 542.56929 195.95462 519.89017 c 0
 164.59307 489.7092 126.22305 474.93017 70.083147 461.36887 c 0
 46.479127 455.59778 27.108144 449.56381 19.896944 439.45125 c 1
 24.575399 424.4961 30.48075 364.12329 39.190764 315.38632 c 0
 44.537787 285.46705 46.700541 247.60863 53.373583 246.554 c 1
EndSplineSet
EndChar

StartChar: YodPhoenician-x10909
Encoding: 23 67849 23
Width: 1159
LayerCount: 2
Fore
SplineSet
456.81943 540.18517 m 1
 399.08272 539.35586 299.41005 589.12905 270.36381 608.97514 c 0
 241.31738 628.82088 217.93621 657.47494 200.22028 694.93763 c 2
 190.60809 715.26302 l 1
 188.91359 718.84992 l 2
 178.73505 740.37053 164.40463 755.31248 145.91837 763.67374 c 0
 127.43194 772.03501 109.50839 773.78399 92.147366 768.92057 c 0
 68.746563 762.366 57.984573 748.06721 59.85978 726.02574 c 0
 67.002064 674.76914 78.112582 633.19985 93.19024 601.31652 c 0
 114.91402 555.37941 131.18616 514.12967 174.81953 488.83335 c 0
 252.57862 449.94124 317.9254 468.07371 335.3377 444.29523 c 1
 334.605 430.55202 333.54503 419.31583 332.11108 409.70016 c 0
 327.31235 377.51702 318.33358 363.48896 303.49937 334.38037 c 1
 275.62798 315.50051 254.12619 307.80487 238.61638 286.26529 c 0
 221.25882 262.15988 215.03504 233.98514 227.53859 196.36073 c 0
 237.96951 172.92027 251.37611 157.93544 267.85789 148.49262 c 1
 301.5758 137.89656 338.26904 136.56405 370.20719 142.84558 c 0
 387.78366 148.58716 407.98278 157.01059 426.78883 167.44325 c 0
 451.89904 181.37292 474.52624 198.88501 485.11187 218.37926 c 0
 500.56787 248.8144 494.21609 285.54104 505.75223 310.03532 c 1
 516.07242 287.92207 539.15651 250.92717 555.17432 234.04729 c 0
 572.3848 215.91083 582.78024 207.53744 600.71561 190.44814 c 0
 644.79841 156.98082 663.17832 136.61457 707.12802 106.05796 c 0
 724.4078 94.044121 744.20346 88.733491 768.50188 95.220271 c 0
 797.1856 103.2553 817.85595 121.90929 830.51332 151.1809 c 1
 842.79434 212.37109 788.08827 260.45609 727.36333 318.78762 c 0
 685.10719 359.37856 637.63903 441.0633 610.09745 488.9954 c 1
 641.27327 774.96461 l 1
 637.80469 793.82685 629.93111 812.45491 620.20966 828.37122 c 0
 609.75275 845.49161 597.15792 859.47461 585.60778 867.23677 c 0
 562.40896 882.8536 505.72914 888.75823 492.14144 884.95228 c 0
 453.40354 874.79679 449.47694 864.30928 444.42441 835.97982 c 1
 456.81943 540.18517 l 1
EndSplineSet
EndChar

StartChar: FinalKaf
Encoding: 24 1498 24
Width: 1159
Flags: W
LayerCount: 2
Fore
SplineSet
472.02575 877.59618 m 1
 491.99961 904.33406 510.47333 919.7534 523.16998 925.28107 c 0
 539.77323 932.50943 553.83246 932.89808 573.90183 923.59347 c 1
 592.20032 849.58007 607.51477 781.67532 619.55313 713.3901 c 0
 623.95118 687.41795 627.97333 660.74578 631.59547 633.75177 c 0
 644.35578 538.65483 652.15142 439.56345 653.92824 353.01236 c 1
 638.09085 333.48817 630.85961 324.62421 614.25635 317.39573 c 0
 600.58301 311.44299 583.28185 322.48541 559.07607 324.5765 c 1
 561.16441 370.72647 559.55167 416.62761 555.37922 461.95003 c 0
 541.08672 609.60155 502.63941 744.30134 472.02575 877.59618 c 1
280.43061 782.92364 m 1
 300.40464 809.66135 317.395 821.44453 331.06824 827.39738 c 0
 353.94359 834.74274 373.0761 843.33686 381.39329 833.78388 c 1
 410.53882 688.90998 449.00467 562.28422 479.13086 430.25447 c 0
 487.87864 391.75687 495.69484 353.30074 502.03894 314.31783 c 1
 486.20155 294.79352 483.48881 266.77934 467.01008 258.70298 c 0
 453.33673 252.75024 434.33494 251.24329 410.00468 254.18228 c 1
 389.72605 352.15644 367.39354 441.22477 344.62588 529.64679 c 0
 338.34043 554.05756 332.02176 578.4191 325.70403 602.90516 c 0
 309.3357 666.3577 293.3878 728.78513 280.43061 782.92364 c 1
511.31196 42.946094 m 0
 473.61438 38.361519 438.43783 41.389802 406.47723 49.073751 c 0
 341.9328 64.591486 290.504 99.096231 257.91477 128.23149 c 0
 213.38622 168.8403 185.00353 218.70807 157.81414 275.03388 c 0
 142.70422 306.55709 129.90578 339.20868 120.45167 373.38643 c 0
 108.24663 411.88828 102.32555 452.077 91.331188 496.40118 c 0
 78.520498 548.04811 72.032608 605.8374 67.907508 650.94397 c 1
 73.242078 665.6992 88.751398 672.58153 114.86412 683.64729 c 0
 146.00067 693.91406 164.66017 693.48933 177.45938 676.94479 c 1
 183.51393 626.78327 189.78306 577.99141 198.08429 530.69075 c 0
 208.4709 471.50727 222.03869 414.65849 242.34779 360.38248 c 0
 258.54851 317.6194 278.48606 276.32513 303.45506 235.26235 c 0
 324.17747 203.31886 350.33791 179.73651 379.93457 163.06121 c 0
 400.14395 151.67488 421.95547 143.50898 444.73182 138.10057 c 0
 473.52207 131.38253 504.17132 127.85948 531.02905 126.91621 c 0
 544.97032 123.96465 553.67395 114.22238 557.14 97.689401 c 0
 560.9698 56.48707 541.75004 46.700331 511.31196 42.946094 c 0
624.22446 162.65658 m 1
 680.47992 194.94604 704.62793 224.81196 732.05715 265.17892 c 0
 758.53749 304.22142 766.85519 351.40623 774.11838 401.02641 c 0
 779.70053 466.34405 776.34951 528.00956 769.7734 587.68723 c 0
 762.41718 654.44342 751.02541 718.71229 743.58753 782.82319 c 0
 737.90905 831.11026 730.37169 878.86274 713.11505 926.05565 c 1
 718.93849 954.16654 741.55789 969.99904 765.24835 975.89554 c 0
 782.99002 980.31137 801.33242 979.15461 813.67066 973.409 c 1
 815.03992 964.08194 824.65514 952.24394 828.81523 927.44315 c 0
 832.9753 902.64238 836.38458 874.33432 838.37604 860.76769 c 0
 843.47922 826.00347 848.64877 799.28343 851.47789 769.39275 c 0
 858.6906 728.40453 863.03282 685.84785 866.68591 646.72937 c 0
 869.89302 583.55149 874.61654 513.82375 869.09498 452.38701 c 0
 868.26565 403.66785 861.17891 357.83022 843.01686 313.57589 c 0
 829.76941 281.2964 807.27607 248.67212 793.56063 222.24209 c 0
 775.03559 194.83098 751.84127 169.08193 724.76753 146.36251 c 0
 697.06415 123.11468 665.29878 103.03895 630.31762 87.600641 c 1
 619.90961 94.796651 613.74096 104.96598 611.81174 118.1085 c 0
 609.88251 131.25115 614.62055 143.13975 624.22446 162.65658 c 1
EndSplineSet
EndChar

StartChar: Kaf
Encoding: 25 1499 25
Width: 1159
Flags: W
LayerCount: 2
Fore
SplineSet
472.02575 877.59618 m 1
 491.99961 904.33406 510.47333 919.7534 523.16998 925.28107 c 0
 539.77323 932.50943 553.83246 932.89808 573.90183 923.59347 c 1
 592.20032 849.58007 607.51477 781.67532 619.55313 713.3901 c 0
 623.95118 687.41795 627.97333 660.74578 631.59547 633.75177 c 0
 644.35578 538.65483 652.15142 439.56345 653.92824 353.01236 c 1
 638.09085 333.48817 630.85961 324.62421 614.25635 317.39573 c 0
 600.58301 311.44299 583.28185 322.48541 559.07607 324.5765 c 1
 561.16441 370.72647 559.55167 416.62761 555.37922 461.95003 c 0
 541.08672 609.60155 502.63941 744.30134 472.02575 877.59618 c 1
280.43061 782.92364 m 1
 300.40464 809.66135 317.395 821.44453 331.06824 827.39738 c 0
 353.94359 834.74274 373.0761 843.33686 381.39329 833.78388 c 1
 410.53882 688.90998 449.00467 562.28422 479.13086 430.25447 c 0
 487.87864 391.75687 495.69484 353.30074 502.03894 314.31783 c 1
 486.20155 294.79352 483.48881 266.77934 467.01008 258.70298 c 0
 453.33673 252.75024 434.33494 251.24329 410.00468 254.18228 c 1
 389.72605 352.15644 367.39354 441.22477 344.62588 529.64679 c 0
 338.34043 554.05756 332.02176 578.4191 325.70403 602.90516 c 0
 309.3357 666.3577 293.3878 728.78513 280.43061 782.92364 c 1
511.31196 42.946094 m 0
 473.61438 38.361519 438.43783 41.389802 406.47723 49.073751 c 0
 341.9328 64.591486 290.504 99.096231 257.91477 128.23149 c 0
 213.38622 168.8403 185.00353 218.70807 157.81414 275.03388 c 0
 142.70422 306.55709 129.90578 339.20868 120.45167 373.38643 c 0
 108.24663 411.88828 102.32555 452.077 91.331188 496.40118 c 0
 78.520498 548.04811 72.032608 605.8374 67.907508 650.94397 c 1
 73.242078 665.6992 88.751398 672.58153 114.86412 683.64729 c 0
 146.00067 693.91406 164.66017 693.48933 177.45938 676.94479 c 1
 183.51393 626.78327 189.78306 577.99141 198.08429 530.69075 c 0
 208.4709 471.50727 222.03869 414.65849 242.34779 360.38248 c 0
 258.54851 317.6194 278.48606 276.32513 303.45506 235.26235 c 0
 324.17747 203.31886 350.33791 179.73651 379.93457 163.06121 c 0
 400.14395 151.67488 421.95547 143.50898 444.73182 138.10057 c 0
 473.52207 131.38253 504.17132 127.85948 531.02905 126.91621 c 0
 544.97032 123.96465 553.67395 114.22238 557.14 97.689401 c 0
 560.9698 56.48707 541.75004 46.700331 511.31196 42.946094 c 0
624.22446 162.65658 m 1
 680.47992 194.94604 704.62793 224.81196 732.05715 265.17892 c 0
 758.53749 304.22142 766.85519 351.40623 774.11838 401.02641 c 0
 779.70053 466.34405 776.34951 528.00956 769.7734 587.68723 c 0
 762.41718 654.44342 751.02541 718.71229 743.58753 782.82319 c 0
 737.90905 831.11026 730.37169 878.86274 713.11505 926.05565 c 1
 718.93849 954.16654 741.55789 969.99904 765.24835 975.89554 c 0
 782.99002 980.31137 801.33242 979.15461 813.67066 973.409 c 1
 815.03992 964.08194 824.65514 952.24394 828.81523 927.44315 c 0
 832.9753 902.64238 836.38458 874.33432 838.37604 860.76769 c 0
 843.47922 826.00347 848.64877 799.28343 851.47789 769.39275 c 0
 858.6906 728.40453 863.03282 685.84785 866.68591 646.72937 c 0
 869.89302 583.55149 874.61654 513.82375 869.09498 452.38701 c 0
 868.26565 403.66785 861.17891 357.83022 843.01686 313.57589 c 0
 829.76941 281.2964 807.27607 248.67212 793.56063 222.24209 c 0
 775.03559 194.83098 751.84127 169.08193 724.76753 146.36251 c 0
 697.06415 123.11468 665.29878 103.03895 630.31762 87.600641 c 1
 619.90961 94.796651 613.74096 104.96598 611.81174 118.1085 c 0
 609.88251 131.25115 614.62055 143.13975 624.22446 162.65658 c 1
EndSplineSet
EndChar

StartChar: KafPhoenician-x1090a
Encoding: 26 67850 26
Width: 1024
Flags: W
LayerCount: 2
Fore
SplineSet
472.02575 877.59618 m 1
 491.99961 904.33406 510.47333 919.7534 523.16998 925.28107 c 0
 539.77323 932.50943 553.83246 932.89808 573.90183 923.59347 c 1
 592.20032 849.58007 607.51477 781.67532 619.55313 713.3901 c 0
 623.95118 687.41795 627.97333 660.74578 631.59547 633.75177 c 0
 644.35578 538.65483 652.15142 439.56345 653.92824 353.01236 c 1
 638.09085 333.48817 630.85961 324.62421 614.25635 317.39573 c 0
 600.58301 311.44299 583.28185 322.48541 559.07607 324.5765 c 1
 561.16441 370.72647 559.55167 416.62761 555.37922 461.95003 c 0
 541.08672 609.60155 502.63941 744.30134 472.02575 877.59618 c 1
280.43061 782.92364 m 1
 300.40464 809.66135 317.395 821.44453 331.06824 827.39738 c 0
 353.94359 834.74274 373.0761 843.33686 381.39329 833.78388 c 1
 410.53882 688.90998 449.00467 562.28422 479.13086 430.25447 c 0
 487.87864 391.75687 495.69484 353.30074 502.03894 314.31783 c 1
 486.20155 294.79352 483.48881 266.77934 467.01008 258.70298 c 0
 453.33673 252.75024 434.33494 251.24329 410.00468 254.18228 c 1
 389.72605 352.15644 367.39354 441.22477 344.62588 529.64679 c 0
 338.34043 554.05756 332.02176 578.4191 325.70403 602.90516 c 0
 309.3357 666.3577 293.3878 728.78513 280.43061 782.92364 c 1
511.31196 42.946094 m 0
 473.61438 38.361519 438.43783 41.389802 406.47723 49.073751 c 0
 341.9328 64.591486 290.504 99.096231 257.91477 128.23149 c 0
 213.38622 168.8403 185.00353 218.70807 157.81414 275.03388 c 0
 142.70422 306.55709 129.90578 339.20868 120.45167 373.38643 c 0
 108.24663 411.88828 102.32555 452.077 91.331188 496.40118 c 0
 78.520498 548.04811 72.032608 605.8374 67.907508 650.94397 c 1
 73.242078 665.6992 88.751398 672.58153 114.86412 683.64729 c 0
 146.00067 693.91406 164.66017 693.48933 177.45938 676.94479 c 1
 183.51393 626.78327 189.78306 577.99141 198.08429 530.69075 c 0
 208.4709 471.50727 222.03869 414.65849 242.34779 360.38248 c 0
 258.54851 317.6194 278.48606 276.32513 303.45506 235.26235 c 0
 324.17747 203.31886 350.33791 179.73651 379.93457 163.06121 c 0
 400.14395 151.67488 421.95547 143.50898 444.73182 138.10057 c 0
 473.52207 131.38253 504.17132 127.85948 531.02905 126.91621 c 0
 544.97032 123.96465 553.67395 114.22238 557.14 97.689401 c 0
 560.9698 56.48707 541.75004 46.700331 511.31196 42.946094 c 0
624.22446 162.65658 m 1
 680.47992 194.94604 704.62793 224.81196 732.05715 265.17892 c 0
 758.53749 304.22142 766.85519 351.40623 774.11838 401.02641 c 0
 779.70053 466.34405 776.34951 528.00956 769.7734 587.68723 c 0
 762.41718 654.44342 751.02541 718.71229 743.58753 782.82319 c 0
 737.90905 831.11026 730.37169 878.86274 713.11505 926.05565 c 1
 718.93849 954.16654 741.55789 969.99904 765.24835 975.89554 c 0
 782.99002 980.31137 801.33242 979.15461 813.67066 973.409 c 1
 815.03992 964.08194 824.65514 952.24394 828.81523 927.44315 c 0
 832.9753 902.64238 836.38458 874.33432 838.37604 860.76769 c 0
 843.47922 826.00347 848.64877 799.28343 851.47789 769.39275 c 0
 858.6906 728.40453 863.03282 685.84785 866.68591 646.72937 c 0
 869.89302 583.55149 874.61654 513.82375 869.09498 452.38701 c 0
 868.26565 403.66785 861.17891 357.83022 843.01686 313.57589 c 0
 829.76941 281.2964 807.27607 248.67212 793.56063 222.24209 c 0
 775.03559 194.83098 751.84127 169.08193 724.76753 146.36251 c 0
 697.06415 123.11468 665.29878 103.03895 630.31762 87.600641 c 1
 619.90961 94.796651 613.74096 104.96598 611.81174 118.1085 c 0
 609.88251 131.25115 614.62055 143.13975 624.22446 162.65658 c 1
EndSplineSet
EndChar

StartChar: Lamed
Encoding: 27 1500 27
Width: 512
Flags: W
LayerCount: 2
Fore
SplineSet
147.88312 762.85578 m 0
 145.39531 780.92349 156.9314 799.05901 169.4375 810.72026 c 0
 201.25197 830.58507 229.72029 833.12279 253.43748 824.60296 c 0
 299.23945 808.15003 400.55577 750.45954 400.80415 696.68658 c 0
 400.67145 663.49521 394.30299 629.88093 389.51271 598.58035 c 0
 380.78443 541.39059 369.49936 484.98625 356.35047 434.09303 c 0
 345.80667 394.52589 334.26719 361.46193 324.66284 326.85252 c 0
 317.05868 299.45156 308.9026 272.78271 298.85299 245.54525 c 0
 290.50395 218.64492 272.138 201.61293 258.88499 181.8837 c 0
 249.17375 166.02086 241.72563 141.60334 244.87223 121.77339 c 0
 252.22463 89.597497 282.29353 87.138517 311.85848 88.250627 c 1
 328.63713 100.04327 343.08675 118.86479 350.66957 140.84748 c 1
 354.46438 169.40034 360.51677 197.29437 367.80304 224.68715 c 0
 375.15266 252.31727 383.75857 279.43755 392.57155 306.21131 c 0
 405.17433 344.49702 418.20127 382.07411 428.58606 419.41735 c 0
 443.64556 474.74866 454.26895 530.20287 461.59025 584.66144 c 0
 470.59269 652.46906 476.73859 695.43612 463.79084 734.54527 c 0
 452.98404 767.18795 428.87571 797.14288 382.02477 836.61075 c 0
 348.67999 864.67247 345.8901 861.37891 316.56768 875.62767 c 0
 294.24994 886.47243 253.05878 896.66113 228.87733 897.44388 c 0
 194.17311 898.56734 159.69527 888.70113 131.603 866.04543 c 0
 99.695562 837.94003 79.7374 796.517 83.569891 748.28257 c 0
 89.329864 710.10402 105.08766 682.38525 129.00992 665.92925 c 0
 168.5869 643.18284 211.35911 664.94966 252.54008 668.07472 c 1
 274.21206 677.32689 303.38537 686.32486 320.9973 702.65354 c 0
 328.57938 709.68326 334.0186 718.07148 335.794 728.42369 c 0
 335.58279 743.81574 324.29867 758.68396 310.3478 762.05197 c 0
 300.8948 763.89375 291.80427 763.38475 282.89757 761.63274 c 0
 272.31291 759.55097 261.98776 755.71392 251.62187 751.98117 c 0
 211.17772 730.02682 156.21103 710.35945 147.88312 762.85578 c 0
EndSplineSet
EndChar

StartChar: LamdPhoenician
Encoding: 28 67851 28
Width: 700
Flags: W
LayerCount: 2
Fore
SplineSet
239.95564 194.74266 m 1
 352.5933 245.71574 349.47432 316.78814 328.48924 416.53717 c 1
 306.8717 498.79901 260.8118 570.57345 220.60785 633.27395 c 0
 166.09621 718.09927 93.342231 820.64253 96.946573 845.39576 c 0
 107.27039 878.51658 132.76692 898.97893 174.28004 897.83411 c 1
 197.83935 885.69517 218.12848 866.32108 228.77573 843.69275 c 1
 233.2968 816.04615 240.97327 789.50895 250.74297 763.78199 c 0
 291.7897 655.6916 369.78504 561.90279 405.94216 460.21541 c 0
 424.21489 399.55481 430.39771 336.04734 417.81584 278.70266 c 0
 405.95907 224.66313 377.43841 176.09635 326.66776 140.54216 c 0
 303.25773 125.12395 282.57697 113.45054 259.07197 104.983 c 0
 216.64143 92.066432 179.03301 91.566972 145.00074 103.34571 c 0
 125.44042 110.11577 107.06144 120.94177 89.627371 135.79761 c 0
 63.532194 164.77276 46.153923 205.43087 43.371866 244.39796 c 0
 40.816481 280.19178 50.576843 314.55871 77.210174 337.13274 c 1
 105.44904 354.8926 139.79925 367.06843 172.90531 370.66103 c 0
 204.35167 374.07354 234.67525 369.74238 257.57214 355.09586 c 0
 268.21843 347.85975 275.85586 339.22518 278.3487 328.56903 c 0
 278.05179 312.72489 262.20785 297.42009 242.61908 293.95317 c 0
 229.34578 292.0574 216.58136 292.58125 204.07523 294.38421 c 0
 189.73895 296.17331 174.42108 295.02404 161.62326 290.20298 c 0
 144.85256 283.88445 132.40966 271.25844 132.17529 250.67028 c 0
 132.20279 231.72574 140.85632 212.6523 160.21786 198.03447 c 0
 162.03398 195.61174 178.34488 186.91024 197.80567 186.34179 c 0
 214.58544 185.85149 234.518 193.19603 239.95564 194.73984 c 1
 239.95564 194.74266 l 1
EndSplineSet
EndChar

StartChar: FinalMem
Encoding: 29 1501 29
Width: 1142
Flags: W
LayerCount: 2
Fore
SplineSet
145.98661 722.83863 m 0
 157.11925 751.02837 192.03625 780.16469 201.15748 796.5658 c 1
 217.4344 781.20089 227.0109 746.95064 233.24352 713.0301 c 1
 250.8657 687.51467 264.95841 643.99962 278.12658 615.83408 c 0
 294.74835 577.25498 303.56633 553.4835 319.13328 554.79127 c 0
 334.15155 556.05213 362.09374 555.44149 381.34587 594.63165 c 1
 429.63164 650.23917 l 1
 444.97152 688.26348 475.29863 676.72434 493.0661 679.75334 c 1
 502.34277 661.0043 523.07148 610.78475 534.72747 587.04183 c 0
 557.82142 539.99593 584.55556 473.77022 601.31319 427.3929 c 0
 608.30197 403.58913 657.6586 292.11191 671.66028 290.47424 c 1
 687.86703 304.90173 692.07077 339.34475 702.19019 364.64781 c 0
 721.62216 413.23384 728.59463 449.67384 746.36679 499.55888 c 0
 757.51663 530.27244 766.44757 572.28235 769.04118 569.64057 c 0
 784.21503 548.02174 792.66422 526.29663 812.96633 485.76349 c 0
 833.59136 444.58701 839.674 437.31376 860.36931 391.80405 c 0
 887.81122 331.46066 930.80858 274.53454 933.74793 287.73305 c 0
 933.2067 290.23895 961.32116 287.3329 950.16205 326.48158 c 0
 941.34744 353.24475 921.6931 395.09794 911.14486 417.7782 c 0
 895.28058 451.88547 887.9046 465.19714 872.39752 498.62188 c 0
 855.18342 535.77171 836.99746 576.73436 817.69354 611.91496 c 0
 797.23351 649.20233 793.10685 692.77052 769.9644 705.6437 c 1
 759.0416 689.50038 749.88582 669.99668 741.80325 649.07855 c 0
 729.45459 617.1187 719.60956 581.85705 709.78644 550.23358 c 0
 698.04176 503.02263 683.42804 470.21519 665.49221 444.43633 c 1
 654.46 462.22002 644.83849 493.19181 636.21064 511.64614 c 0
 607.17347 573.75538 589.38189 634.25654 566.84926 692.70779 c 0
 551.57615 732.32975 534.12339 771.00994 509.51256 808.61056 c 1
 503.62112 806.41581 475.39658 793.05641 470.48156 789.54661 c 0
 442.67422 765.1397 418.66044 746.94815 395.13653 727.03744 c 0
 372.08053 707.52354 349.49495 686.35842 324.26843 656.07231 c 1
 285.17405 745.41822 l 1
 240.68171 847.09961 l 1
 211.44514 894.44479 l 2
 205.30134 901.4644 190.72909 906.88759 184.27868 907.23876 c 0
 177.82825 907.59305 168.57571 904.08013 152.78055 877.24256 c 0
 142.2001 857.07549 106.04386 802.49189 73.736495 748.38074 c 0
 43.019826 696.93202 15.782018 645.91031 17.31846 625.30414 c 0
 18.275722 612.41742 48.542319 583.41157 54.568619 569.52573 c 0
 58.892328 557.79485 75.157779 602.25398 102.75527 646.3809 c 0
 125.1507 684.71887 131.26112 685.7063 145.98661 722.83863 c 0
EndSplineSet
EndChar

StartChar: Mem
Encoding: 30 1502 30
Width: 1142
Flags: W
LayerCount: 2
Fore
SplineSet
23.53557 357.0177 m 0
 26.064381 390.03868 28.681334 414.7885 32.210361 439.25441 c 0
 35.496697 462.03782 39.573973 484.575 45.10755 513.31606 c 0
 54.239398 560.74635 65.187701 605.22704 77.521712 652.45231 c 0
 82.706132 666.03049 85.352432 691.17737 95.214842 714.32603 c 0
 108.98969 742.08339 121.13121 755.44675 132.74749 758.09535 c 0
 149.16686 761.83906 164.5368 744.17542 181.98647 715.49472 c 0
 194.87085 695.26905 206.22429 673.95207 216.89247 652.67014 c 0
 228.38361 629.7465 239.0797 606.86354 250.03761 585.42897 c 0
 258.16518 567.42207 272.44636 538.87175 286.42381 512.72601 c 0
 297.80721 491.43257 315.7785 464.81024 323.2709 453.70068 c 1
 336.21178 471.69447 344.3844 490.99582 350.96056 510.61866 c 0
 358.76684 533.91218 364.32354 557.65872 372.93615 580.20889 c 0
 382.35403 604.75136 392.60712 628.06729 399.60984 650.15415 c 0
 406.95086 673.77476 415.22679 698.09842 423.37865 718.8924 c 0
 433.53515 744.79986 438.97286 768.05276 446.6962 766.76952 c 1
 457.97452 751.23853 470.88508 735.29397 481.94818 716.86675 c 0
 492.34182 694.55769 504.36945 672.97175 516.87465 652.12702 c 0
 531.52482 627.70682 546.83046 604.30393 560.93213 581.94741 c 0
 568.955 569.19685 576.5545 556.62927 583.50986 544.23463 c 1
 589.63068 557.68594 600.09951 575.91452 605.42749 589.16363 c 0
 614.55015 614.54882 620.56009 627.06839 629.1164 650.55703 c 0
 638.32935 675.84823 646.7839 700.61233 653.55392 726.08174 c 0
 661.06575 754.33321 669.22997 783.69448 684.19796 788.4883 c 1
 698.11434 788.4883 705.40694 783.68923 740.99243 720.98601 c 0
 753.47124 698.69713 767.74222 673.58291 780.9505 651.13256 c 0
 793.45967 629.87053 803.76739 606.61981 815.89735 586.73818 c 0
 834.39858 556.42967 848.63366 533.51538 850.84408 528.75265 c 0
 855.08981 519.60445 860.10525 514.51621 861.98951 517.44555 c 0
 863.87377 520.37491 881.0596 583.82995 900.18022 658.45674 c 0
 931.93271 782.38484 936.93277 794.43632 957.88584 797.54028 c 0
 992.57166 802.67864 1007.728 773.24964 993.58684 728.21963 c 0
 987.39605 708.50674 974.30155 656.76067 964.48761 613.22839 c 0
 949.95266 548.75465 929.79387 485.14947 912.37841 439.58114 c 0
 897.81979 401.48771 885.1781 375.99903 879.34152 373.14474 c 0
 865.76083 366.50335 857.93509 367.66873 817.55931 436.08953 c 0
 806.48944 454.84841 792.97291 478.66281 776.22014 508.7579 c 0
 736.7102 579.73464 721.28774 624.73408 701.71458 643.63205 c 1
 686.66771 611.75551 688.8756 614.526 679.10279 580.06479 c 0
 674.77475 564.80303 663.71713 545.89678 651.08721 513.12604 c 0
 641.1172 487.25691 626.24592 458.44485 612.40678 438.94932 c 0
 602.26027 424.65571 592.66857 415.37015 585.97011 415.9243 c 0
 577.35912 423.47302 569.6913 431.22153 562.61463 439.23754 c 0
 545.28898 458.86287 531.50656 480.09144 516.10101 503.91653 c 0
 497.2619 533.05173 474.48744 567.13713 458.60258 593.64155 c 1
 454.17412 582.63817 449.87938 571.30357 445.6637 559.77421 c 0
 432.1633 522.85233 419.47377 483.93312 405.80035 447.49818 c 0
 394.28269 416.80758 382.06688 387.87968 368.08032 363.39294 c 0
 356.8582 349.6132 346.61323 342.2355 336.88783 340.03744 c 0
 321.66212 336.59623 307.70991 345.85016 293.27548 363.10875 c 0
 282.49799 379.89735 262.32662 404.5727 247.68968 432.11146 c 0
 236.02581 454.0565 221.30191 484.74367 208.7272 507.78339 c 0
 188.9066 544.09919 177.85539 571.69332 160.14315 594.45876 c 1
 145.49882 597.45115 143.14635 557.49004 132.03807 501.34818 c 0
 127.06891 476.07451 122.54389 453.36575 118.43242 433.17832 c 0
 113.3065 408.00987 108.82336 386.76048 104.92374 369.34571 c 0
 101.73375 355.10001 98.934191 343.42028 96.492673 334.26035 c 0
 85.186682 291.84359 77.885982 290.97639 60.751931 290.97639 c 0
 48.906442 292.75754 35.498928 297.33254 28.696221 305.52161 c 0
 22.961868 312.4246 22.903202 322.22964 22.555927 331.73773 c 0
 22.35774 339.21457 24.466828 346.45937 23.53557 357.0177 c 0
EndSplineSet
EndChar

StartChar: MemPhoenician
Encoding: 31 67852 31
Width: 1042
Flags: W
LayerCount: 2
Fore
SplineSet
42.331524 524.6793 m 2
 121.71325 624.52943 l 1
 133.3514 729.53856 l 1
 159.28416 719.08159 l 1
 160.27377 764.48069 l 1
 190.58163 762.43333 l 1
 195.97078 804.20014 l 1
 216.72429 821.99478 l 2
 223.74317 828.821 229.92282 882.4192 238.44575 882.4192 c 0
 242.36873 882.4192 253.59131 860.01923 263.77866 849.96527 c 0
 271.8183 842.03091 277.62197 843.90288 280.27558 841.79518 c 2
 299.67612 689.77012 l 1
 335.68542 506.91734 l 1
 342.55001 509.45775 347.40341 534.9031 355.41787 546.30614 c 0
 364.64254 559.43084 377.02127 559.38507 384.37038 574.29981 c 0
 403.90664 613.94683 421.6775 643.77237 433.7916 680.31562 c 0
 437.55172 688.1674 443.86759 705.23719 449.55676 717.18593 c 0
 450.72322 719.63583 466.96229 692.60548 470.29733 681.68132 c 2
 578.27243 482.34216 l 1
 669.37607 669.38892 l 1
 679.40303 672.80232 685.92053 674.85002 688.92862 675.53315 c 0
 693.94208 675.53315 699.20623 673.48488 704.72108 669.38892 c 2
 804.75018 387.88644 l 1
 828.95447 425.831 l 1
 854.64022 448.11271 l 1
 862.29006 514.80246 l 1
 889.37397 563.02222 l 1
 904.69988 597.53757 l 1
 919.01889 648.40567 l 1
 960.92544 644.42949 l 1
 943.88381 571.07062 l 1
 916.81958 500.68667 l 1
 908.85683 436.60741 l 2
 906.8568 428.04822 889.74682 401.15071 881.4362 379.46738 c 0
 875.65526 364.38426 880.70228 355.52503 870.59564 341.65221 c 0
 856.94665 322.91724 856.26786 288.53468 838.18001 276.99435 c 0
 830.36149 272.0062 822.04624 232.24335 812.91462 234.18934 c 0
 802.38534 236.4331 792.8862 273.57361 788.80587 271.38748 c 1
 767.40787 334.00895 741.87671 346.19625 727.01187 375.4217 c 0
 724.24085 380.86981 725.47829 442.53861 718.01692 471.03687 c 0
 709.78315 502.48519 695.52485 535.84333 681.6373 574.51114 c 1
 636.61899 460.97411 l 1
 595.83053 358.10499 l 2
 590.81707 354.69159 596.94219 345.81597 580.79009 352.98519 c 0
 575.98217 355.11932 571.26449 354.69159 567.2537 358.10499 c 2
 449.06633 569.04949 l 1
 357.58128 381.31618 l 2
 352.56778 374.48997 347.42896 370.90592 342.1648 370.56464 c 0
 336.90065 370.21997 315.84947 390.53421 310.83601 398.0447 c 2
 266.28002 620.82899 l 1
 248.65799 705.60639 l 1
 214.08586 662.77912 l 1
 168.15629 576.0729 l 1
 155.90982 540.43369 l 1
 111.80148 513.56219 l 1
 75.649363 461.87985 l 1
 46.069845 473.48517 40.576808 474.16209 40.075457 502.15181 c 1
 35.301741 510.34374 40.827495 517.85308 42.331524 524.6793 c 2
EndSplineSet
EndChar

StartChar: FinalNun
Encoding: 32 1503 32
Width: 1024
Flags: W
LayerCount: 2
Fore
SplineSet
858.06741 131.46486 m 0
 824.35674 149.83364 779.64037 202.85189 749.36443 260.34932 c 0
 724.60307 307.37386 702.12318 346.67147 675.86441 372.27476 c 0
 640.82233 406.44215 604.30792 419.0709 597.3849 420.61901 c 0
 576.90387 424.67309 568.25764 431.0061 556.93872 439.10575 c 0
 541.26425 450.32214 515.80619 476.29083 501.389 497.09375 c 0
 483.32727 523.00743 476.50026 541.20863 460.69039 545.85243 c 0
 451.18933 548.64312 440.61024 543.31985 414.82109 522.77147 c 0
 396.38513 508.08195 374.3073 495.7532 364.73077 485.89793 c 0
 347.10636 473.26043 323.65816 460.62375 304.48687 463.48026 c 0
 283.03994 466.67583 265.25733 479.21362 250.80519 494.50564 c 0
 240.53775 505.74131 228.19279 533.98886 222.0872 555.76096 c 0
 217.59733 571.77158 205.45299 607.10227 188.41392 647.0947 c 0
 154.77693 726.04412 122.58524 770.8805 94.882601 777.36456 c 0
 65.415134 784.26169 31.206495 842.62038 40.272652 870.52705 c 0
 44.355633 883.0949 49.011088 885.37299 78.048872 889.01225 c 0
 96.264504 891.29517 126.72022 891.86079 145.7282 890.26916 c 0
 187.06889 886.80755 201.28036 874.50768 211.78927 833.09411 c 0
 221.62138 794.34751 231.68501 773.57461 256.40405 741.00257 c 0
 273.84424 718.02179 272.34197 705.36062 276.51907 677.89745 c 0
 280.28836 653.11522 295.22971 620.49001 307.92446 601.08288 c 0
 323.93656 571.34158 353.49281 590.59954 358.71513 611.35838 c 0
 364.13908 634.93182 374.82221 649.15746 391.25076 654.68277 c 0
 396.72307 656.52323 410.70956 662.11748 422.3318 667.11452 c 0
 440.19682 674.79563 449.42466 675.16913 482.02972 669.53079 c 0
 503.24136 665.86271 525.84132 658.86711 532.25192 653.98502 c 0
 538.66256 649.10289 550.35132 629.54063 558.22713 610.51327 c 0
 579.20833 559.82386 596.2647 536.59141 622.0407 523.5925 c 0
 685.63106 491.52367 718.12862 469.77487 754.41329 435.00285 c 0
 806.97454 381.53761 830.41211 322.6046 870.25394 251.25862 c 0
 873.5376 243.25333 878.34447 232.77369 880.93572 227.97053 c 0
 886.72048 212.52641 906.09507 174.10363 909.70604 147.1089 c 0
 911.24304 128.65396 906.51694 116.73672 888.77251 117.99956 c 0
 877.41578 118.94862 866.162 127.06739 858.06741 131.46486 c 0
888.18539 145.42405 m 0
 890.90667 150.57695 888.7777 155.72327 856.44456 222.14849 c 0
 826.417 283.83728 783.56171 359.99387 760.63579 392.40707 c 0
 743.0766 417.23273 660.66778 484.13978 647.64953 484.13978 c 0
 644.96214 484.13978 630.63216 490.41841 615.80504 498.09231 c 0
 582.28399 515.4415 554.93213 548.77767 535.52079 595.94155 c 0
 520.93135 631.38974 519.9262 632.44082 490.74732 642.75856 c 0
 437.6451 661.53571 384.62217 640.06872 371.89188 594.63842 c 1
 357.46074 565.12009 330.28598 545.55617 306.87284 564.95127 c 0
 299.38602 571.26124 292.19237 582.79149 280.73093 606.27941 c 0
 269.19578 629.91826 258.30424 660.60439 256.52743 674.47089 c 0
 254.30705 691.79902 245.67791 711.61076 228.93167 737.82839 c 0
 215.53086 758.80853 201.33841 785.01576 197.39294 796.06662 c 0
 185.94778 836.81988 197.22631 811.91365 186.03502 836.08106 c 0
 171.40756 859.54275 165.81409 862.46754 141.08859 865.25765 c 0
 113.71162 868.24676 78.317335 865.12419 70.078026 850.27982 c 0
 66.26574 841.94343 67.693338 836.86215 76.478784 827.49731 c 0
 82.697828 820.86809 92.342235 810.32839 97.910783 804.07574 c 0
 103.47931 797.82309 113.33757 792.7073 119.81797 792.7073 c 0
 139.56323 792.7073 167.89142 749.51829 201.80126 667.7161 c 0
 219.09891 625.98827 234.65212 584.8856 236.36393 576.37692 c 0
 238.07577 567.86824 246.44747 549.22304 251.88202 534.38569 c 0
 259.75285 512.89684 263.55776 504.65819 280.47104 495.6741 c 0
 312.62384 478.59497 326.9138 480.90094 358.4623 508.25961 c 0
 373.75981 521.52549 393.47975 540.29738 402.28448 549.97484 c 0
 415.0175 563.97 423.86284 568.11073 445.51421 570.21205 c 0
 481.43697 573.69834 499.33781 557.37892 526.54821 508.1388 c 0
 540.08403 483.39762 553.48734 467.19769 568.38523 459.46744 c 0
 606.22764 439.8317 655.74814 425.71744 692.95805 389.70199 c 0
 707.77065 375.08486 726.22147 348.24963 738.04949 324.1205 c 0
 784.49132 229.37871 817.32268 182.00356 853.24951 157.88875 c 0
 880.82416 139.38002 884.33248 138.12825 888.18539 145.42405 c 0
134.07601 846.06356 m 1
 145.35092 858.99094 163.96745 854.08805 159.75795 833.67758 c 1
 149.46623 822.67599 134.23357 832.14691 134.07601 846.06356 c 1
EndSplineSet
EndChar

StartChar: Nun
Encoding: 33 1504 33
Width: 1024
Flags: W
LayerCount: 2
Fore
SplineSet
114.63468 893.97669 m 2
 109.67049 893.76138 104.81442 893.21939 100.1251 892.39467 c 0
 90.74646 890.74524 82.160909 887.902 75.31043 884.0193 c 0
 68.45994 880.13662 63.271004 875.20799 60.965728 869.12976 c 0
 60.23297 867.3218 59.729668 865.57689 59.375892 863.80127 c 0
 59.147995 862.65744 58.982146 861.50087 58.85698 860.30649 c 0
 58.683432 858.81795 58.578144 857.31279 58.545689 855.87133 c 0
 58.499459 853.81824 58.600989 851.89436 58.863488 850.33172 c 0
 60.262803 844.32626 63.839017 838.34079 69.786893 830.69614 c 0
 78.119001 819.98706 91.05967 802.91789 98.5175 792.82086 c 0
 106.25187 782.34941 119.46145 773.92976 128.89694 773.92976 c 0
 135.00576 773.92976 142.09232 769.7967 149.96056 761.32018 c 0
 165.16517 740.98632 176.30312 723.64926 185.03554 707.67208 c 0
 197.07879 684.35421 205.97961 663.2647 212.84569 641.01349 c 0
 219.59554 619.13123 224.15911 602.92958 225.10846 597.23992 c 0
 227.43968 583.26834 235.27653 552.43793 242.58591 528.37578 c 0
 253.18398 493.48762 262.06722 480.28991 284.91925 465.65359 c 0
 306.58217 451.77891 322.51413 445.62123 338.42332 448.71673 c 0
 354.3325 451.81224 383.48783 449.62286 404.70953 471.81283 c 0
 425.27289 493.31437 429.46691 510.62062 441.36358 526.38698 c 0
 458.3337 548.87706 462.3846 560.05176 491.29157 563.43445 c 0
 513.78865 565.82464 520.3127 564.9081 534.90469 554.63683 c 0
 545.34375 547.28879 545.31699 504.75503 554.70989 494.50368 c 1
 563.50405 468.3749 574.52875 462.0356 589.65694 445.30431 c 0
 597.2287 436.59849 602.73914 428.10343 615.0947 420.11394 c 0
 623.48272 414.68999 639.34055 409.93056 644.4386 403.82626 c 0
 650.42444 396.65894 672.98358 370.77545 704.12102 344.73763 c 0
 750.70736 305.78112 799.82409 237.1836 808.71315 226.46652 c 0
 817.17873 216.26 825.55201 204.04412 833.86871 194.03062 c 0
 863.00418 161.22819 888.92423 119.09856 918.60238 97.129586 c 0
 936.95628 83.995586 948.20156 64.700166 959.80007 64.816486 c 0
 963.04202 66.325056 972.59365 76.571726 977.60806 84.008196 c 0
 981.01515 89.060986 982.42819 95.605776 981.50488 98.966196 c 0
 978.1408 110.59355 970.8628 128.18584 959.99018 148.22274 c 0
 952.41377 162.18515 943.41807 176.41417 931.4139 194.50823 c 0
 926.42352 202.03031 921.32594 208.34142 916.03568 216.39432 c 0
 909.80959 225.87181 903.31659 237.21059 896.41731 247.69416 c 0
 886.70738 262.44858 884.13127 276.19804 873.27826 291.03607 c 0
 857.16623 313.06416 854.28681 319.22504 833.71639 346.91672 c 0
 828.56109 354.23414 805.38964 401.3378 800.0818 408.84905 c 0
 792.95204 418.93853 774.46166 424.29703 747.92596 453.08774 c 0
 719.64035 483.77706 677.95624 516.17218 654.19151 547.79483 c 0
 627.71558 583.02515 627.71136 610.81377 619.25981 622.05377 c 0
 614.25135 628.7147 609.55235 635.76121 604.50556 641.54739 c 0
 599.27063 647.5493 593.68556 652.29028 588.35854 659.23437 c 0
 579.81064 667.64739 570.4673 674.14484 560.37479 680.5245 c 0
 552.33065 685.60933 543.75279 691.33723 535.14213 692.68869 c 0
 522.00434 694.75068 508.97436 691.62894 495.74187 687.96696 c 0
 479.81045 683.55809 465.40066 692.11206 452.79331 682.11692 c 0
 435.09731 668.08747 431.63918 664.53926 415.7746 644.11315 c 0
 402.83559 621.55865 395.7091 600.70891 377.54212 585.42612 c 0
 364.83463 575.06773 351.20287 564.56056 336.65084 569.78732 c 0
 327.59794 573.03895 321.24818 577.68968 314.02084 588.81802 c 0
 306.79352 599.94636 300.679 615.8132 288.98035 644.72001 c 0
 279.25338 668.75489 278.11386 690.61649 271.64556 711.77581 c 0
 268.22401 722.9685 254.96919 729.61693 254.10642 737.73552 c 2
 254.10642 737.73552 235.98373 756.39039 234.74917 771.85224 c 0
 229.86155 806.77949 216.9284 835.90542 213.35752 845.12026 c 2
 213.31642 845.21336 l 1
 213.27532 845.30646 l 2
 208.91434 853.00145 205.18827 858.94436 197.52913 865.08169 c 0
 189.87001 871.21901 178.32511 877.60101 158.16366 886.71806 c 0
 145.13291 892.40183 129.5275 894.62262 114.63492 893.97671 c 2
 114.63468 893.97669 l 2
168.11103 853.97446 m 0
 169.1077 849.62564 169.049 844.49509 167.33844 841.03422 c 0
 164.64781 835.5904 158.97944 832.08635 151.5017 833.16867 c 0
 148.80354 833.58638 145.2716 835.12033 143.0211 837.57688 c 0
 138.86218 842.11657 136.91387 849.19588 137.4136 853.89263 c 0
 137.9618 857.72507 140.34797 863.0585 143.82053 865.93723 c 0
 149.64893 869.44252 154.95515 869.58852 159.22456 867.25416 c 0
 163.62609 864.84756 166.4773 860.69044 168.11103 853.97446 c 0
145.88163 861.46022 m 0
 142.95153 859.00566 142.00248 857.04853 141.30934 853.3805 c 0
 140.72764 848.00207 142.64517 843.49051 145.80423 840.36986 c 0
 148.22586 838.51602 151.41118 837.90456 154.46818 838.28228 c 0
 159.22169 838.79711 162.24069 841.19015 163.61427 844.70751 c 0
 165.86549 850.47225 163.83054 858.65361 158.75807 862.06572 c 0
 154.87447 864.57546 149.77988 864.45674 145.88163 861.46022 c 0
EndSplineSet
EndChar

StartChar: NunPhoenician
Encoding: 34 67853 34
Width: 1024
Flags: W
LayerCount: 2
Fore
SplineSet
927.34875 140.1939 m 0
 890.59358 160.63917 841.83992 219.64796 808.8294 283.64316 c 0
 800.43761 299.91152 792.75629 314.44426 785.54496 327.49437 c 0
 767.58738 359.99198 752.54389 383.29825 736.70016 401.33928 c 0
 718.01541 422.61545 674.537 437.38466 647.53385 450.44931 c 0
 627.84964 460.16244 622.35149 462.7602 598.2726 477.74308 c 1
 575.8478 486.96456 548.6906 519.67711 538.96627 535.43709 c 0
 529.02119 552.78721 526.98209 578.83681 520.0711 600.73661 c 0
 515.90655 620.03303 510.5681 619.57488 492.40356 621.91526 c 0
 472.49903 622.096 462.89814 612.42224 453.03147 599.94753 c 0
 444.27125 584.18171 436.15476 570.81173 427.0774 558.77255 c 0
 415.70753 543.69284 402.83017 530.70102 385.29211 517.70419 c 0
 361.8955 505.42674 348.85789 497.25734 325.44019 501.65928 c 1
 305.79186 510.36944 285.433 515.15324 268.89174 525.44967 c 0
 259.65087 534.40234 247.38274 549.97265 243.57522 560.62374 c 0
 240.72079 570.30929 237.13118 581.35097 233.99165 592.59035 c 0
 231.56664 600.52792 236.57361 613.05997 234.19119 622.64161 c 0
 230.0771 639.18766 218.49389 653.40935 213.50612 666.62632 c 0
 205.89836 686.78595 199.50032 694.2544 192.1281 711.99311 c 0
 181.38409 737.73495 169.81251 777.38101 159.79288 795.35482 c 0
 148.83986 815.00302 138.13128 835.82012 128.60178 845.59641 c 0
 117.09125 857.40505 106.92617 856.29107 95.242419 859.08279 c 0
 78.132199 863.17111 68.027716 887.03848 54.112428 905.51511 c 0
 41.898931 921.73202 24.367055 931.92097 28.987447 946.43918 c 0
 32.95522 958.90692 32.264149 974.57916 55.813855 978.13341 c 0
 58.686797 978.57014 61.397769 980.64628 64.840186 981.08632 c 0
 80.035755 983.36399 100.98126 987.08547 114.99408 988.15488 c 0
 130.93001 988.32288 141.25343 988.50116 153.70666 984.18652 c 0
 158.97257 982.36206 171.64129 978.19566 180.45273 973.00354 c 0
 187.66589 968.75321 189.41915 961.12496 193.72974 959.03669 c 0
 207.93896 951.20149 214.45478 935.65646 217.22987 924.96018 c 0
 224.89131 894.13757 234.55293 878.86716 249.2817 859.42745 c 0
 255.16073 851.66802 261.84708 843.24432 269.53579 832.90218 c 0
 288.55175 807.32366 305.07944 772.50871 309.634 741.94274 c 0
 315.75054 721.91242 309.80752 698.65599 321.95965 682.6817 c 0
 330.62408 671.47577 345.90623 663.34415 355.13283 664.71157 c 0
 369.73943 668.93543 380.26713 676.9608 387.45406 687.47492 c 0
 403.47761 718.45582 424.03261 724.0218 452.26377 736.37442 c 0
 471.74165 744.92291 480.16906 747.37982 515.71971 741.10447 c 0
 550.45035 738.90738 568.0422 731.58472 580.60991 711.39553 c 0
 587.2667 700.70183 598.22995 683.73997 603.86793 670.28341 c 0
 615.43346 642.82582 623.99102 614.01709 645.2497 594.30283 c 1
 660.99583 566.77517 686.47921 566.33356 709.85255 557.7075 c 0
 742.35783 545.12764 763.25338 526.60021 775.39595 518.4581 c 0
 811.09845 492.07909 818.58723 477.43724 839.2998 443.28367 c 0
 861.49033 408.45355 873.64628 383.34872 902.22779 347.54433 c 0
 911.68842 329.44175 931.74777 292.23377 935.32853 283.3235 c 0
 938.90824 274.41445 961.29744 223.14688 964.12258 217.79992 c 0
 970.98566 200.02345 984.08902 176.20439 984.09887 156.00915 c 0
 984.10287 147.4363 978.8898 141.96618 972.69618 135.43877 c 0
 966.17526 129.39747 962.88751 125.14163 956.97428 125.69474 c 0
 946.6429 126.66111 937.02132 134.82921 927.34875 140.1939 c 0
960.18676 155.73111 m 0
 962.14572 159.51749 952.54276 181.81374 935.64395 217.80835 c 0
 926.94969 236.32717 916.32424 258.47193 904.34855 283.58738 c 0
 886.92803 318.91154 889.85053 312.00178 869.83242 346.54897 c 0
 857.08096 368.55538 843.63575 390.15409 829.28434 411.02651 c 0
 821.03546 422.93159 792.24088 470.62995 771.69035 490.39463 c 0
 744.54446 516.50246 715.80631 530.273 707.72767 530.273 c 0
 676.11199 535.18116 666.8599 544.59092 643.65139 561.95655 c 0
 607.26407 588.29526 589.52777 637.32198 577.62789 667.71389 c 1
 573.72308 699.36849 542.01425 706.5187 516.24134 715.79787 c 0
 489.32077 722.22136 472.91457 716.85137 451.59887 711.55771 c 0
 431.07726 702.58611 402.62725 673.0381 397.2681 655.70765 c 0
 391.41503 645.8866 379.36558 631.3528 362.89151 627.40664 c 0
 350.2947 624.38924 333.91187 630.2001 322.89056 633.29763 c 0
 289.04804 655.09703 279.75223 696.84131 275.56804 733.94577 c 0
 273.1472 753.23206 270.27099 769.15821 252.01266 798.33953 c 0
 242.30762 813.85058 227.53765 839.31458 217.45302 858.26993 c 0
 202.60148 889.32298 192.15248 919.18409 190.0855 923.71624 c 0
 187.54909 927.50567 184.52837 932.69808 180.46188 937.64871 c 0
 170.83004 947.34212 158.52163 956.87121 146.03227 960.49702 c 0
 141.03126 961.89529 135.51265 962.31483 126.97373 962.71461 c 0
 121.64467 962.96304 116.36497 963.17063 110.89679 963.00322 c 0
 92.728383 962.39332 74.540174 957.10134 65.24528 950.10526 c 0
 62.67305 947.62151 58.769729 937.24823 59.735818 935.45968 c 0
 62.110613 931.41291 67.893875 927.89465 73.956774 921.29745 c 0
 80.737562 913.9191 92.473595 895.77176 98.544386 888.81219 c 0
 104.61635 881.85263 120.67245 875.34307 127.73805 875.34307 c 0
 143.65558 875.34307 163.64767 855.02528 188.9958 801.03657 c 0
 197.93092 782.00561 203.19508 755.87219 212.83116 732.14371 c 0
 223.59319 705.64263 225.28738 699.10405 243.30861 665.81283 c 0
 252.0122 649.7344 259.30671 631.51589 260.10816 627.44987 c 0
 263.51378 619.23471 259.75921 611.10117 261.45035 603.04829 c 0
 263.92792 591.25062 271.54136 579.62606 276.54986 568.17157 c 0
 284.67805 549.92129 302.85774 538.75385 319.51827 534.00721 c 0
 340.97295 527.3982 361.30193 528.60472 385.8676 550.35113 c 0
 396.21665 562.24284 404.36714 572.92031 412.503 585.73944 c 0
 423.83184 603.58957 435.1323 623.29213 452.30072 635.78038 c 0
 459.06668 641.50594 483.33026 647.96583 494.99086 648.19425 c 0
 507.87992 648.45183 519.84714 642.40673 528.31016 635.07093 c 0
 538.68216 625.16298 544.85524 618.6663 550.08607 601.54128 c 0
 557.23513 578.1364 556.90089 553.79702 568.77087 539.42444 c 0
 577.41394 529.54783 593.42514 510.99753 602.91103 503.55092 c 0
 624.03345 486.97006 634.34488 482.47279 659.32617 473.37893 c 0
 684.5544 463.99284 721.662 444.29464 737.90672 428.91646 c 0
 772.74051 398.96976 802.4877 337.35077 807.17182 329.75408 c 0
 811.61163 322.55269 870.72287 206.68959 922.09579 169.60426 c 0
 941.37237 156.39649 949.86178 151.08401 954.57964 151.11241 c 0
 957.22009 151.12831 958.67917 152.81713 960.18676 155.73111 c 0
144.01478 914.80118 m 0
 142.35844 916.64651 138.73705 919.57904 136.79234 923.33252 c 0
 134.15585 928.42119 133.63336 934.53491 136.2346 936.97797 c 0
 146.1268 942.77184 160.81683 928.54108 159.7153 919.14933 c 0
 157.5884 912.57949 148.90199 911.28053 144.01478 914.80118 c 0
EndSplineSet
EndChar

StartChar: Samekh
Encoding: 35 1505 35
Width: 1000
Flags: W
LayerCount: 2
Fore
SplineSet
188.70934 716.71731 m 1
 139.97634 654.70145 121.957 608.92728 126.97929 558.95731 c 1
 136.48596 514.89423 154.52022 472.3875 178.14191 431.35804 c 0
 213.86552 369.30814 259.61656 314.35622 310.72806 258.78944 c 0
 364.14519 200.71584 423.16351 142.31363 470.67026 90.709234 c 0
 481.40482 79.249884 569.27854 44.698794 597.57936 77.630654 c 2
 904.73698 434.265 l 1
 944.68753 469.29394 928.95501 513.39954 906.9825 538.53655 c 2
 557.80829 956.1229 l 1
 542.63347 948.30629 530.94826 956.1259 521.22864 944.82297 c 0
 514.74885 937.28809 519.3723 919.85672 510.78811 900.04446 c 1
 856.2225 483.09617 l 1
 779.7665 399.29388 666.29687 235.56133 576.20203 163.72462 c 0
 553.75464 145.82615 549.02544 135.78526 517.55465 146.35042 c 1
 477.22841 190.31228 436.44396 235.32693 396.1469 280.59439 c 0
 367.00722 313.32836 338.12247 346.19447 309.85017 378.89027 c 1
 255.06345 457.28618 191.94227 504.79141 188.72667 569.37706 c 0
 187.28897 598.25187 197.82516 630.54075 226.43321 670.53029 c 0
 250.66209 703.74938 282.87679 727.654 305.69573 749.49038 c 0
 322.11683 764.52559 339.84303 777.88616 358.14951 790.32247 c 0
 382.82907 807.08818 405.51868 821.93594 427.66203 836.95645 c 0
 447.38559 850.33537 466.6756 863.8514 486.55267 878.98161 c 1
 509.49641 914.06849 510.70444 923.63838 494.94135 926.47503 c 0
 469.26776 928.24612 444.20811 918.95595 421.80415 908.12457 c 0
 391.09269 893.14708 367.49759 872.7576 327.0068 844.44169 c 0
 307.49239 830.75743 288.55035 816.71801 270.53351 801.31108 c 0
 239.33611 774.47854 212.48102 744.41238 188.70955 716.717 c 1
 188.70934 716.71731 l 1
EndSplineSet
EndChar

StartChar: SemkPhoenician
Encoding: 36 67854 36
Width: 1024
Flags: W
LayerCount: 2
Fore
SplineSet
254.79017 950.16394 m 1
 346.67444 952.13817 432.88817 952.38302 517.95062 951.6739 c 0
 631.07669 950.73084 728.29529 953.64903 847.97902 951.15553 c 1
 882.08832 941.55285 916.88851 912.3295 928.56826 890.12794 c 0
 942.59692 863.46137 956.55828 820.49908 955.32502 779.78627 c 2
 949.12287 293.08544 l 1
 956.41649 226.40642 934.7024 211.14282 893.72015 211.70283 c 1
 852.64516 181.71455 804.75858 149.14171 757.82866 126.94618 c 0
 676.01039 88.250177 591.44182 69.779845 510.33721 70.320528 c 0
 393.04839 75.472537 287.22564 96.906592 194.96003 164.97169 c 0
 173.3012 181.71604 176.47786 186.02404 176.79654 226.16454 c 1
 192.86512 236.22354 221.75382 256.81984 239.60088 258.26327 c 1
 339.32716 216.17841 420.35363 176.98051 512.40771 174.59003 c 0
 620.24795 172.05301 703.04579 218.78722 859.11624 303.63869 c 1
 858.93744 444.62381 861.477 583.64624 866.23164 767.2792 c 0
 867.17511 803.71813 846.89781 819.31463 809.38013 840.80536 c 1
 687.46169 844.15884 608.47445 846.37565 506.84266 846.70424 c 0
 390.08077 847.08175 346.11614 846.51314 256.84376 844.86892 c 1
 223.07736 838.42431 197.31989 835.3147 180.4061 821.62399 c 1
 170.01328 803.09779 164.15919 752.31996 164.03538 705.82185 c 0
 162.43793 653.80733 163.74353 572.24299 163.28865 519.02001 c 0
 162.83985 466.50777 152.20728 436.77253 165.31262 387.73759 c 0
 175.1236 356.73099 199.54736 325.32446 205.0012 296.52756 c 1
 196.72584 246.05851 138.54092 240.70181 121.79341 253.46304 c 0
 108.65926 260.3466 102.79645 279.51402 93.867521 294.42121 c 0
 73.451403 329.67051 74.146862 348.34788 70.554326 385.77286 c 0
 65.536995 429.13924 63.70984 472.93285 63.466869 516.2961 c 0
 63.142266 574.22839 65.645166 648.03803 67.146093 702.38918 c 0
 69.187429 746.80994 75.208627 791.31739 83.592292 833.33688 c 1
 96.993004 876.33683 126.32513 901.48294 161.43779 917.69546 c 0
 200.92353 934.71613 217.5778 942.64753 254.79017 950.16394 c 1
EndSplineSet
EndChar

StartChar: Ayin
Encoding: 37 1506 37
Width: 1000
Flags: W
LayerCount: 2
Fore
SplineSet
541.64043 501.75783 m 0
 528.42039 513.47901 514.16208 518.72424 500.94073 517.83263 c 0
 485.24098 516.77389 471.0034 507.06189 461.70265 489.26447 c 0
 454.89617 474.58549 453.87131 462.4608 456.66203 451.21427 c 0
 460.88256 437.34389 466.78283 427.75922 474.78929 420.73515 c 0
 486.72492 411.39583 497.57206 407.37748 508.39191 407.70972 c 0
 517.04173 407.97534 525.67409 411.02143 534.83119 416.35222 c 0
 546.95549 428.83972 553.42473 442.31727 555.04117 455.76077 c 0
 556.95904 471.71121 552.04547 487.61371 541.64043 501.75783 c 0
180.93792 457.7769 m 1
 229.13903 515.05967 267.03487 538.02722 312.2886 570.97258 c 0
 401.18259 631.05659 436.29041 654.4692 512.01004 658.46177 c 0
 567.53251 664.17831 613.82755 651.06838 655.41429 629.12847 c 0
 726.63336 591.55542 784.04392 528.08577 850.3435 488.92738 c 1
 811.08229 427.07952 779.27275 380.47211 721.62049 342.19882 c 0
 667.87556 309.57 620.95178 283.88112 563.09622 276.35778 c 0
 503.22359 268.79632 437.96581 277.97096 381.75765 300.29284 c 0
 309.06173 329.75517 245.98384 425.86263 180.93792 457.7769 c 1
74.951409 405.58317 m 1
 94.706705 391.99856 134.90709 391.80205 155.26718 378.92879 c 0
 235.13006 328.43317 292.91653 241.96681 369.99759 218.22001 c 0
 430.7124 197.33735 517.6197 192.85198 568.9803 199.08394 c 0
 650.15346 214.15152 720.86861 232.55652 769.99956 279.5772 c 1
 817.85689 339.45106 881.62231 394.42053 916.5639 450.67955 c 0
 922.61874 462.10224 934.52108 475.56064 942.28205 487.36372 c 0
 947.27528 493.75336 948.66024 498.82926 947.74689 503.28173 c 0
 946.44418 509.63231 940.46589 514.71462 933.61297 520.53166 c 0
 910.69004 539.89712 879.63049 557.10186 859.5218 571.97634 c 0
 801.60583 614.89247 747.9996 659.09353 690.85355 691.53376 c 0
 638.82146 721.07094 581.611 740.85804 510.41464 741.0476 c 0
 424.23536 738.12527 350.81727 689.99649 278.55598 638.17114 c 0
 221.16328 596.19266 135.35675 543.39885 75.931248 472.5259 c 0
 63.902803 457.17095 56.311877 449.54864 52.503699 444.84752 c 0
 44.174659 434.56549 53.940755 438.25725 74.951409 405.58317 c 1
EndSplineSet
EndChar

StartChar: AyinPhoenician
Encoding: 38 67855 38
Width: 1024
Flags: W
LayerCount: 2
Fore
SplineSet
541.64043 501.75783 m 0
 528.42039 513.47901 514.16208 518.72424 500.94073 517.83263 c 0
 485.24098 516.77389 471.0034 507.06189 461.70265 489.26447 c 0
 454.89617 474.58549 453.87131 462.4608 456.66203 451.21427 c 0
 460.88256 437.34389 466.78283 427.75922 474.78929 420.73515 c 0
 486.72492 411.39583 497.57206 407.37748 508.39191 407.70972 c 0
 517.04173 407.97534 525.67409 411.02143 534.83119 416.35222 c 0
 546.95549 428.83972 553.42473 442.31727 555.04117 455.76077 c 0
 556.95904 471.71121 552.04547 487.61371 541.64043 501.75783 c 0
184.20421 480.64091 m 1
 223.8738 511.39196 268.26774 547.00124 314.70412 578.86957 c 0
 378.31541 622.52467 445.75936 659.15981 510.14198 666.67028 c 0
 556.10085 671.12446 610.93638 655.30359 658.68058 630.76161 c 0
 703.80665 606.95445 745.68374 577.34006 786.55449 541.60399 c 0
 810.18696 520.94051 843.28183 503.94629 866.67493 479.12852 c 1
 825.70173 412.32554 759.04024 367.22359 701.70487 330.00603 c 0
 661.15686 303.68549 617.10519 286.2091 570.38162 279.62166 c 0
 511.27716 271.26179 439.93337 277.84429 381.75765 300.29284 c 0
 309.06173 329.75517 247.61699 414.43063 184.20421 480.64091 c 1
79.850839 454.57747 m 1
 99.606135 440.99286 141.31718 418.64075 158.53347 401.7928 c 0
 230.68822 319.53674 290.78345 254.92098 372.58716 219.95393 c 0
 427.30092 196.5665 496.23874 185.53986 568.28633 194.71057 c 0
 630.49598 203.22607 688.59605 226.29338 739.6784 262.52632 c 0
 801.55646 307.46711 880.04546 367.90779 923.09647 435.16469 c 0
 929.15131 446.58738 941.05365 460.04578 948.81462 471.84886 c 0
 953.80785 478.2385 955.19281 483.3144 954.27946 487.76687 c 0
 952.97675 494.11745 946.99846 499.19976 940.14554 505.0168 c 0
 905.77922 533.82143 870.61954 562.99878 835.34536 590.59193 c 0
 789.04447 626.81069 742.54631 660.30001 697.38612 686.63433 c 0
 645.35403 716.17151 581.611 740.85804 510.41464 741.0476 c 0
 424.23536 738.12527 344.2847 698.16221 272.02341 646.33686 c 0
 234.11673 618.61095 169.2043 571.81908 125.68157 546.10987 c 0
 103.3086 532.89398 101.00688 545.58305 80.830678 521.5202 c 0
 68.802233 506.16525 61.211307 498.54294 57.403129 493.84182 c 0
 49.074089 483.55979 58.840185 487.25155 79.850839 454.57747 c 1
EndSplineSet
EndChar

StartChar: FinalPeh
Encoding: 39 1507 39
Width: 512
Flags: W
LayerCount: 2
Fore
SplineSet
366.98283 718.84244 m 0
 381.25556 660.27256 376.12717 603.42301 357.30258 549.05548 c 1
 324.09776 476.08939 284.20634 408.71566 243.71461 343.72982 c 0
 217.38816 301.47809 201.98307 281.47367 176.82186 240.36005 c 0
 156.85037 207.9322 118.42863 160.5146 114.24854 131.89507 c 1
 133.07816 68.429328 165.10119 75.887658 189.86479 87.278868 c 1
 220.21805 119.41184 249.07848 155.90086 276.10699 194.84988 c 0
 356.15162 310.19693 420.12971 443.57951 459.23485 552.82968 c 0
 479.64023 612.37219 486.06787 673.98578 471.62845 740.5071 c 0
 461.88671 777.98391 444.53562 803.91326 426.36575 826.64859 c 0
 408.52125 849.42258 384.36639 866.26736 357.39977 877.48433 c 0
 309.96436 897.21546 253.82873 899.53291 208.0354 886.07727 c 0
 184.22044 878.59113 162.06154 866.60232 142.17206 849.47939 c 0
 110.48696 820.99798 91.448904 784.50557 86.922623 747.34265 c 0
 82.74205 713.01816 90.941138 678.12168 112.98911 648.43694 c 0
 134.72804 620.09966 168.63952 602.34057 214.00724 593.96659 c 0
 239.33202 591.0218 267.6519 590.59022 288.37654 599.00513 c 0
 307.53437 608.38727 316.44064 624.34335 316.4387 639.29327 c 0
 313.1444 658.39115 304.07215 667.14165 292.24573 671.44175 c 0
 270.90291 679.20204 240.59014 672.46812 219.07974 685.89959 c 0
 204.13546 695.62719 195.45499 712.31825 194.83662 737.48612 c 0
 195.85845 758.29114 208.6249 773.51988 225.76233 782.81936 c 0
 246.1855 793.90183 272.81641 796.56346 293.17497 790.20681 c 0
 326.85674 778.99318 359.43965 747.0279 366.98283 718.84244 c 0
EndSplineSet
EndChar

StartChar: Peh
Encoding: 40 1508 40
Width: 512
Flags: W
LayerCount: 2
Fore
SplineSet
238.89025 942.93528 m 1
 210.30098 922.22379 203.60913 916.9413 201.51642 913.4329 c 0
 200.20455 911.23356 200.24243 910.88041 202.0834 908.14508 c 0
 205.84362 902.55817 202.88093 893.57725 196.58826 891.48741 c 0
 192.05494 889.98183 186.1397 883.91732 178.93742 873.3912 c 0
 169.37194 859.41117 162.10461 853.23222 156.91153 854.66396 c 0
 151.82719 856.06575 149.83568 852.03008 148.1884 836.98715 c 0
 146.95149 825.69135 133.46018 822.65431 133.46018 822.65431 c 1
 122.4294 820.86418 118.37202 813.99262 113.27616 791.86034 c 0
 106.1696 760.99513 88.784078 766.58267 86.102294 754.99656 c 0
 79.179371 742.4346 69.14721 706.05201 69.928518 694.78854 c 0
 64.26127 675.89535 52.135875 644.27903 49.888711 632.21662 c 0
 43.100541 595.77922 44.475655 531.93604 48.631772 440.37134 c 0
 49.822806 414.13136 57.200293 390.04358 60.227894 379.54756 c 0
 72.312936 337.65167 74.746698 307.45558 88.232771 291.99693 c 0
 91.046916 288.77112 92.840517 287.6432 96.4729 286.81484 c 0
 102.28395 285.48966 103.94781 283.49337 104.76679 276.86374 c 0
 105.53722 270.6274 106.13865 269.38869 108.9706 268.20597 c 0
 110.98421 267.36499 111.1103 266.85037 111.1103 259.47315 c 0
 111.1103 249.6115 108.75668 244.31097 115.39054 234.1898 c 0
 122.25908 223.71065 134.59468 222.62353 141.3455 218.88537 c 0
 148.91351 214.69468 150.66274 210.98159 151.89647 196.48901 c 0
 152.38883 190.70514 153.4132 184.65265 154.17282 183.03904 c 0
 155.38245 180.46948 156.02928 180.10525 159.38295 180.10525 c 0
 162.21319 180.10525 163.69354 179.53111 165.05806 177.90431 c 0
 166.07337 176.69382 171.77314 166.92203 177.72416 156.18926 c 0
 192.5549 129.44177 186.59606 128.97716 192.22475 126.68495 c 0
 199.13506 123.87088 201.98853 120.27244 202.74784 113.41461 c 0
 203.09008 110.32417 203.96114 106.51953 204.68371 104.95984 c 0
 206.95925 100.04815 239.45952 82.204893 245.65854 78.247823 c 0
 253.73422 73.092673 259.708 71.281323 264.22604 72.617703 c 0
 270.2771 74.407583 277.71533 81.448003 288.13466 95.247733 c 0
 294.723 103.97357 301.50581 111.60373 308.39915 118.04369 c 0
 321.58255 130.36005 328.34572 138.48595 332.31261 146.77563 c 0
 337.26865 157.13218 353.08974 181.67895 360.10545 189.89692 c 0
 368.44674 199.66744 368.95354 200.76309 367.22887 205.29734 c 0
 365.2884 210.39893 365.55074 215.18485 368.02512 219.82284 c 0
 370.26685 224.02487 370.99995 224.58662 379.48793 228.60684 c 0
 384.50735 230.98424 384.72648 231.25016 387.77662 238.66627 c 0
 389.49971 242.85588 391.94769 248.48468 393.21647 251.17465 c 0
 394.48525 253.86466 401.21878 268.23214 408.17986 283.10242 c 0
 415.14093 297.97264 423.14483 313.91106 425.96629 318.52109 c 0
 432.66944 329.47345 435.06229 350.2676 435.35388 356.32898 c 0
 436.84051 387.22929 437.85139 457.07264 436.93943 501.39396 c 0
 430.95031 559.42278 440.93059 611.70059 436.89773 670.47031 c 0
 432.65993 681.52385 420.34897 695.67116 416.26237 702.67208 c 0
 386.72562 752.69328 393.01484 760.20049 391.62601 767.72237 c 0
 389.77298 777.75808 387.53694 781.97254 382.12437 785.63091 c 0
 378.23771 788.25796 377.64413 789.04547 378.17496 790.87078 c 0
 378.51838 792.05234 379.00797 795.78664 379.26261 799.1692 c 0
 379.67646 804.66699 379.4196 806.01589 376.84241 811.88555 c 0
 374.51374 817.18892 372.63505 821.40019 363.25842 829.91474 c 2
 352.5576 841.37776 l 1
 353.16391 845.56562 l 2
 354.91212 857.6407 356.89138 851.35796 350.98132 865.40429 c 0
 343.26173 883.75129 314.57162 916.53677 301.95119 931.51788 c 0
 295.93928 938.65439 268.21075 961.89212 265.85853 961.76526 c 0
 265.27854 961.73596 253.14298 953.26049 238.89052 942.93528 c 1
 238.89025 942.93528 l 1
268.3657 833.11996 m 2
 274.90938 829.57177 286.4237 819.28797 291.30479 812.63238 c 0
 299.0673 802.04792 306.09474 783.33209 311.13186 759.82803 c 0
 312.40013 753.91009 314.37756 718.52788 317.30356 702.67858 c 0
 324.06966 666.02878 326.45068 679.60055 333.3819 657.11918 c 0
 344.71188 620.37043 353.10224 569.94163 353.95001 507.3462 c 0
 354.90876 436.55847 345.51155 404.63016 333.73449 369.04533 c 0
 328.44229 353.05484 323.76738 333.28401 317.89073 302.04 c 0
 310.18305 261.06091 302.80537 253.69218 296.03 239.72883 c 0
 290.59071 228.51904 289.12936 213.21863 280.14618 205.56514 c 0
 265.76103 193.30927 259.63444 191.54875 249.57027 196.77885 c 0
 239.62277 201.94837 228.90394 209.55957 227.35588 221.56755 c 0
 226.36899 229.22251 217.80361 228.70594 206.17879 243.87025 c 0
 193.9192 259.86269 196.14539 271.04731 193.11218 280.90445 c 0
 191.69096 285.52312 189.89931 290.06525 189.13076 290.99813 c 0
 188.36221 291.93107 185.96548 292.98552 183.80468 293.3415 c 0
 179.14347 294.10933 177.05579 296.58827 174.86335 303.95855 c 0
 172.7716 310.99022 171.60369 313.32473 166.56399 320.54764 c 0
 158.89101 331.54458 159.87548 343.80423 154.08215 367.57804 c 0
 149.19967 387.61401 147.06406 400.77267 145.00273 423.52134 c 0
 143.32659 442.01876 143.99084 444.56056 138.81138 446.02707 c 0
 138.48584 449.07703 133.43874 450.28478 133.1867 454.10834 c 0
 133.07217 455.84724 134.63472 457.06049 135.3615 459.23778 c 0
 136.35895 462.22604 136.51942 466.15613 135.3376 467.79354 c 0
 132.47563 470.20989 129.27386 469.8414 126.0644 470.65945 c 0
 123.72414 471.28663 120.84957 472.50204 118.47986 473.22983 c 0
 117.27376 474.55477 123.61614 474.12126 127.24201 479.01086 c 0
 131.80488 485.16395 135.98383 478.69457 137.49895 488.40027 c 0
 138.73173 496.29719 140.67782 520.97967 137.00129 533.76431 c 0
 135.13595 540.25066 126.76971 541.5733 123.67262 544.70185 c 0
 109.4719 555.24783 139.18085 550.91094 133.95123 560.82506 c 2
 131.53644 564.83351 l 1
 133.72864 566.78609 l 2
 135.18611 568.08423 135.92079 569.73382 135.92079 571.70817 c 0
 135.92079 574.18096 136.40212 574.85745 138.79823 575.75253 c 0
 140.38079 576.3437 142.24892 577.72687 142.9496 578.82624 c 0
 145.12574 582.24044 146.96218 591.03163 147.94701 602.74915 c 0
 149.82332 625.07364 149.44256 644.46424 154.51346 664.45555 c 0
 160.27448 687.16757 166.74573 702.14025 174.82042 711.44029 c 0
 180.23005 717.67082 181.32403 720.42977 179.7037 723.75552 c 0
 178.7023 725.81091 178.81478 726.37725 180.65055 728.5238 c 0
 181.79632 729.86349 186.75317 733.22763 191.6658 735.99963 c 0
 200.74231 741.1211 208.25761 747.7631 210.59572 752.7298 c 0
 211.30647 754.23963 212.29054 757.99504 212.78255 761.07511 c 0
 214.43548 771.423 217.03335 776.57545 222.5139 780.37595 c 0
 227.28386 783.68368 230.24825 790.84063 231.35698 801.72588 c 0
 233.11181 818.95506 240.27791 829.89016 253.04824 834.82572 c 0
 258.49968 836.93269 262.06552 836.53558 268.36454 833.11996 c 2
 268.3657 833.11996 l 2
369.45116 671.36612 m 0
 388.93185 653.61495 393.09639 647.34169 394.09422 634.24541 c 0
 394.9667 622.79374 388.74575 593.37579 383.98375 586.43446 c 0
 379.17989 579.43213 367.12648 578.01602 364.15973 584.10536 c 0
 363.55083 585.35521 363.81233 587.69843 365.04704 592.05641 c 0
 366.96968 598.84229 366.74978 600.79971 363.68684 604.16433 c 0
 359.87592 608.35063 357.00949 625.9681 354.75263 659.07553 c 0
 353.19339 681.94876 353.12431 685.2736 354.21736 684.83427 c 0
 354.66354 684.65486 361.51878 678.59431 369.45116 671.36612 c 0
379.65698 430.39003 m 0
 381.62619 429.16486 384.06193 426.49876 385.139 424.3895 c 0
 389.57596 415.70058 394.8665 388.51699 394.12824 378.20189 c 0
 393.61306 371.00386 390.56287 363.37063 385.79681 357.35192 c 0
 382.23606 352.85534 354.18405 326.78115 353.59879 327.42403 c 0
 353.41793 327.62252 353.72599 338.05928 354.28379 350.61625 c 0
 355.91827 387.41974 358.68042 405.00389 363.62944 410.11118 c 0
 366.20935 412.77357 366.53021 416.63741 364.65636 422.47765 c 0
 363.20719 426.99435 364.04872 430.32325 366.9649 431.60981 c 0
 370.58706 433.20783 375.95746 432.69169 379.65698 430.39003 c 0
EndSplineSet
EndChar

StartChar: PePhoenician
Encoding: 41 67856 41
Width: 512
Flags: W
LayerCount: 2
Fore
SplineSet
366.98283 718.84244 m 0
 381.25556 660.27256 376.12717 603.42301 357.30258 549.05548 c 1
 324.09776 476.08939 284.20634 408.71566 243.71461 343.72982 c 0
 217.38816 301.47809 201.98307 281.47367 176.82186 240.36005 c 0
 156.85037 207.9322 118.42863 160.5146 114.24854 131.89507 c 1
 133.07816 68.429328 165.10119 75.887658 189.86479 87.278868 c 1
 220.21805 119.41184 249.07848 155.90086 276.10699 194.84988 c 0
 356.15162 310.19693 420.12971 443.57951 459.23485 552.82968 c 0
 479.64023 612.37219 486.06787 673.98578 471.62845 740.5071 c 0
 461.88671 777.98391 444.53562 803.91326 426.36575 826.64859 c 0
 408.52125 849.42258 384.36639 866.26736 357.39977 877.48433 c 0
 309.96436 897.21546 253.82873 899.53291 208.0354 886.07727 c 0
 184.22044 878.59113 162.06154 866.60232 142.17206 849.47939 c 0
 110.48696 820.99798 91.448904 784.50557 86.922623 747.34265 c 0
 82.74205 713.01816 90.941138 678.12168 112.98911 648.43694 c 0
 134.72804 620.09966 168.63952 602.34057 214.00724 593.96659 c 0
 239.33202 591.0218 267.6519 590.59022 288.37654 599.00513 c 0
 307.53437 608.38727 316.44064 624.34335 316.4387 639.29327 c 0
 313.1444 658.39115 304.07215 667.14165 292.24573 671.44175 c 0
 270.90291 679.20204 240.59014 672.46812 219.07974 685.89959 c 0
 204.13546 695.62719 195.45499 712.31825 194.83662 737.48612 c 0
 195.85845 758.29114 208.6249 773.51988 225.76233 782.81936 c 0
 246.1855 793.90183 272.81641 796.56346 293.17497 790.20681 c 0
 326.85674 778.99318 359.43965 747.0279 366.98283 718.84244 c 0
EndSplineSet
EndChar

StartChar: FinalTzadi
Encoding: 42 1509 42
Width: 900
Flags: W
LayerCount: 2
Fore
SplineSet
159.75653 324.51598 m 1
 158.95213 370.78328 159.41319 429.73398 137.2523 450.65608 c 0
 121.99648 464.85998 107.10644 480.98778 88.696551 499.57998 c 0
 44.906111 543.80378 13.944691 602.57118 22.627021 615.18298 c 0
 31.337311 627.83614 34.628711 643.02194 68.954131 641.51572 c 0
 80.444741 641.01647 104.62519 631.59948 121.16597 620.32138 c 0
 151.19154 599.84738 153.30161 594.99228 184.5881 570.69438 c 0
 203.60963 555.92088 201.79299 557.41938 214.3276 567.74378 c 1
 252.03075 622.74558 275.47216 647.22702 316.61447 697.79701 c 1
 342.8134 722.31094 458.37343 884.79131 483.27477 887.17002 c 1
 494.74527 858.71251 499.34554 814.80543 502.3863 768.46655 c 0
 506.32662 708.41321 507.64762 644.27639 517.90625 604.38338 c 0
 520.37168 602.14798 521.7069 594.13068 525.82919 583.65238 c 0
 529.42825 574.50318 533.26091 576.62158 543.71561 575.90198 c 1
 562.68846 588.58008 584.89753 607.13548 608.20553 625.81548 c 0
 632.11242 644.97635 657.17587 664.26737 681.09036 677.48372 c 0
 699.06838 687.41842 716.39711 693.91865 732.09719 694.34839 c 0
 756.31873 693.95784 737.19677 674.40076 731.95986 649.77168 c 1
 717.22518 627.01358 697.41078 607.50228 675.95142 590.21118 c 0
 650.12759 569.40298 621.92172 551.80808 597.31981 535.63468 c 0
 572.55813 519.34738 552.23706 505.66228 550.71827 500.36448 c 0
 542.91035 458.02648 555.13032 375.41148 556.03771 344.43308 c 0
 556.83475 313.41908 558.23252 272.65578 543.15229 243.00228 c 1
 516.70763 237.63078 495.81441 233.64498 478.37408 230.68788 c 0
 395.17005 222.39928 338.94065 218.44278 254.75588 223.20768 c 0
 203.44323 227.15348 199.97329 229.28038 178.80797 251.66418 c 0
 167.09996 264.04598 160.54854 285.88498 159.75689 324.51918 c 1
 159.75653 324.51598 l 1
472.85256 497.70578 m 0
 461.52909 614.73478 429.00964 721.72929 418.34047 721.72929 c 1
 396.95615 693.52798 375.73676 666.90442 355.09528 641.38668 c 0
 322.00687 600.48228 290.40328 562.42208 261.98601 525.26588 c 0
 252.36096 512.68118 243.10133 500.19948 234.27332 487.74718 c 1
 230.60768 464.21848 225.76756 434.31788 224.95397 404.51358 c 0
 223.94235 367.42678 229.16332 330.48878 250.6401 306.16348 c 1
 325.79943 295.07208 401.15655 281.32178 475.61498 309.75328 c 1
 483.44656 326.74388 484.20412 380.38698 472.85256 497.70578 c 0
77.512121 611.11578 m 0
 69.226101 611.47348 61.919951 603.98628 59.299411 599.07808 c 0
 55.438801 591.84758 66.937011 575.64808 70.690691 569.28898 c 0
 94.781021 540.34858 131.03466 509.18908 159.04017 487.14708 c 0
 166.56214 486.18148 166.44675 494.68248 170.39234 503.44858 c 0
 173.70435 510.80598 181.84003 517.95938 180.57176 523.70538 c 0
 150.16986 551.09838 114.82963 594.97928 77.512121 611.11578 c 0
EndSplineSet
EndChar

StartChar: Tzadi
Encoding: 43 1510 43
Width: 900
Flags: W
LayerCount: 2
Fore
SplineSet
349.43898 684.68431 m 1
 312.04922 675.20218 281.8023 688.99286 254.1687 708.16327 c 0
 231.37774 723.97416 210.3644 743.44447 188.58755 756.53588 c 0
 168.25674 768.55723 146.53749 776.98647 121.32232 778.3588 c 0
 88.842757 779.83468 57.932833 770.67742 48.273141 742.33116 c 0
 42.505095 723.65335 47.544094 700.58034 64.437749 679.18057 c 0
 90.533909 646.97353 152.78007 621.9035 187.0675 617.13976 c 0
 205.71176 615.35606 241.98277 616.61818 251.27356 613.58591 c 0
 253.69617 611.71854 258.95441 610.42086 261.90859 609.03291 c 0
 275.09305 602.83849 288.18576 599.55036 293.86822 585.20972 c 1
 271.60883 529.63391 266.51731 477.67207 253.89137 423.53827 c 0
 246.36018 392.13891 236.51002 365.4516 229.66304 336.35694 c 0
 224.10848 321.91729 223.58008 307.75458 228.98575 295.4592 c 0
 231.62239 289.46206 235.67077 283.90917 241.23625 278.98507 c 0
 262.13 261.4862 292.86259 260.36383 322.29982 262.77977 c 0
 338.53289 263.12031 352.26174 265.3096 363.52328 271.55774 c 0
 372.15331 276.34586 379.33439 283.51756 385.08315 294.06747 c 0
 395.40924 313.34494 399.22442 336.5199 405.0534 359.39012 c 0
 411.21466 383.49682 416.05679 408.17822 418.63296 426.71546 c 0
 421.53926 447.62822 426.45689 465.81884 428.66486 485.87511 c 0
 432.62666 521.86229 435.23362 554.79816 448.76729 578.6805 c 0
 461.87198 595.94915 457.32365 603.66246 487.5771 617.71003 c 0
 513.26036 626.84373 544.82045 632.50462 571.14802 641.7297 c 0
 592.80794 649.31942 623.50585 659.32144 631.89564 675.65464 c 1
 611.2011 681.88583 591.77985 686.02894 572.72155 688.47514 c 0
 550.1278 691.30269 527.80183 691.76489 506.76513 690.76426 c 0
 488.46659 689.86924 469.55804 687.87014 449.27952 685.09349 c 1
 448.98872 703.85137 449.05718 727.11091 452.06334 747.67213 c 0
 459.62022 799.35899 476.40277 851.77308 437.10656 879.92416 c 1
 405.68645 892.23394 378.35881 895.39401 357.30717 887.90744 c 0
 336.85441 880.63385 322.32565 863.31078 315.7233 834.56544 c 0
 307.32845 798.64839 327.51425 776.42751 337.72077 745.06441 c 0
 344.0828 724.49412 349.14824 704.21108 349.43898 684.68431 c 1
EndSplineSet
EndChar

StartChar: TsadePhoenician
Encoding: 44 67857 44
Width: 1024
Flags: W
LayerCount: 2
Fore
SplineSet
156.98229 306.4834 m 0
 156.17789 352.7507 159.41319 429.73398 137.2523 450.65608 c 0
 121.99648 464.85998 107.10644 480.98778 88.696551 499.57998 c 0
 44.906111 543.80378 13.944691 602.57118 22.627021 615.18298 c 0
 31.337311 627.83614 34.628711 643.02194 68.954131 641.51572 c 0
 80.444741 641.01647 104.62519 631.59948 121.16597 620.32138 c 0
 151.19154 599.84738 153.30161 594.99228 184.5881 570.69438 c 0
 203.60963 555.92088 201.79299 557.41938 214.3276 567.74378 c 1
 252.03075 622.74558 275.47216 647.22702 316.61447 697.79701 c 1
 342.8134 722.31094 481.91366 878.90626 506.815 881.28497 c 1
 518.2855 852.82746 513.07735 808.92037 516.11811 762.58149 c 0
 521.91214 705.04901 522.99169 639.67977 525.8292 583.65238 c 0
 529.42826 574.50318 533.26092 576.62158 543.71562 575.90198 c 1
 562.68847 588.58008 605.70436 622.39381 629.01236 641.07381 c 0
 652.91925 660.23468 673.82134 676.75146 697.73583 689.96781 c 0
 715.71385 699.90251 716.39712 693.91865 732.0972 694.34839 c 0
 742.38222 694.18255 744.85221 690.5609 743.88866 684.56253 c 0
 738.07077 665.23491 736.81629 656.25016 725.26502 641.60181 c 0
 712.24477 625.14778 678.63574 591.06687 662.08022 577.72709 c 0
 636.2562 556.91912 621.92173 551.80808 597.31982 535.63468 c 0
 572.55814 519.34738 540.46695 501.73891 538.94816 496.44111 c 0
 531.14024 454.10311 533.55179 347.94788 534.45918 316.96948 c 1
 540.43701 282.35747 529.12429 254.32514 514.57508 241.9644 c 0
 498.94287 228.68357 478.71766 232.2091 446.4703 226.52652 c 0
 363.26627 218.23792 338.94066 218.44278 254.75589 223.20768 c 0
 227.56352 224.25191 204.21574 231.91705 187.15419 245.30813 c 0
 168.98633 259.56751 157.94634 280.31947 156.98229 306.4834 c 0
457.15908 493.78241 m 0
 453.68235 614.73478 458.43493 751.15458 447.76576 751.15458 c 1
 426.38144 722.95327 375.73676 666.90442 355.09528 641.38668 c 0
 322.00687 600.48228 290.40328 562.42208 261.98601 525.26588 c 0
 252.36096 512.68118 251.42406 508.9982 242.59605 496.5459 c 1
 246.37715 437.89317 240.87683 364.11791 246.71673 312.04854 c 1
 325.79943 310.76557 371.73127 306.8237 455.99812 315.63834 c 1
 454.02127 334.59063 456.74052 382.34866 457.15908 493.78241 c 0
77.512121 611.11578 m 0
 69.226101 611.47348 61.919951 603.98628 59.299411 599.07808 c 0
 55.438801 591.84758 66.937011 575.64808 70.690691 569.28898 c 0
 94.781021 540.34858 131.03466 509.18908 159.04017 487.14708 c 0
 166.56214 486.18148 166.44675 494.68248 170.39234 503.44858 c 0
 173.70435 510.80598 181.84003 517.95938 180.57176 523.70538 c 0
 150.16986 551.09838 114.82963 594.97928 77.512121 611.11578 c 0
EndSplineSet
EndChar

StartChar: Qof
Encoding: 45 1511 45
Width: 900
Flags: W
LayerCount: 2
Fore
SplineSet
188.79229 658.53828 m 0
 194.35284 642.71861 203.52093 628.19524 210.55041 616.63028 c 0
 212.83985 612.92582 215.04272 609.87201 217.53075 607.41631 c 1
 181.99511 590.25191 148.2474 562.42479 116.81446 521.17356 c 0
 82.107528 475.62558 64.628126 419.66017 64.628126 354.21646 c 0
 64.628126 270.20544 88.317023 202.64222 135.76108 152.61483 c 0
 183.11048 102.68724 243.81574 77.428812 316.58504 77.428812 c 0
 341.23328 77.428812 366.02434 81.242242 391.37437 88.854182 c 0
 416.82428 96.496202 443.56379 109.07305 471.14965 126.44716 c 0
 499.33788 144.20064 523.43138 171.83801 543.27979 208.63577 c 0
 563.19937 245.56511 575.43285 288.48259 580.17587 337.63131 c 1
 580.17587 337.99987 l 1
 580.17587 338.36843 l 2
 580.17587 401.49457 558.60846 462.98616 516.35565 521.91068 c 0
 477.32426 576.34271 445.0959 605.56519 416.63655 609.62766 c 1
 418.29853 611.47045 l 2
 418.38363 611.55525 418.54637 611.75314 418.63039 611.83901 c 0
 430.08815 622.1889 439.35367 634.53911 446.44143 648.20088 c 0
 456.49834 668.86827 461.40611 692.15923 462.08281 715.8459 c 0
 462.27216 764.19367 449.68084 806.96919 425.82378 837.58607 c 0
 399.47933 871.39511 359.78581 890.60226 317.08497 891.1362 c 1
 276.82962 885.90929 241.43217 870.74054 215.58922 844.47094 c 0
 189.8382 815.32817 177.68916 782.03047 175.44216 747.44398 c 0
 173.53926 718.15278 178.73848 687.93722 188.79229 658.53828 c 0
318.91118 797.59261 m 0
 337.12389 797.59261 352.03389 790.62718 364.78197 776.2162 c 0
 377.52996 761.8052 383.7286 744.91864 383.7286 724.24942 c 0
 383.7286 707.49801 377.23458 694.08234 363.45238 682.60228 c 0
 349.58063 671.04762 333.54145 665.28002 314.25763 665.28002 c 0
 299.14415 665.28002 286.31649 671.0726 274.70239 682.97084 c 0
 263.22124 694.73295 257.41775 708.855 257.41775 726.82933 c 0
 257.41775 746.64182 263.37344 762.98428 275.36718 776.95333 c 0
 287.33465 790.89194 301.49263 797.59261 318.91118 797.59261 c 0
314.25816 546.23556 m 0
 314.4826 546.21906 314.69852 546.25326 314.92295 546.23556 c 0
 368.31858 542.06838 412.30688 514.22498 442.8958 471.41813 c 0
 470.29605 431.31995 485.62578 379.79358 480.45666 328.04879 c 0
 475.92011 287.51747 460.33404 252.11609 436.24785 226.32658 c 0
 408.07293 196.1593 368.52886 179.08179 321.90329 183.20521 c 0
 269.54528 188.92345 231.13509 202.97388 205.23194 231.85495 c 0
 182.11339 257.63121 168.26025 295.90056 164.67951 353.11078 c 0
 164.67877 353.23343 164.68005 353.35668 164.67951 353.47933 c 0
 164.46997 399.15861 174.32796 446.43569 193.26566 478.42075 c 0
 218.54804 517.15107 258.90497 543.78139 314.25816 546.23556 c 0
EndSplineSet
EndChar

StartChar: QofPhoenician
Encoding: 46 67858 46
Width: 1024
Flags: W
LayerCount: 2
Fore
SplineSet
188.79229 658.53828 m 0
 194.35284 642.71861 203.52093 628.19524 210.55041 616.63028 c 0
 212.83985 612.92582 215.04272 609.87201 217.53075 607.41631 c 1
 181.99511 590.25191 148.2474 562.42479 116.81446 521.17356 c 0
 82.107528 475.62558 64.628126 419.66017 64.628126 354.21646 c 0
 64.628126 270.20544 88.317023 202.64222 135.76108 152.61483 c 0
 183.11048 102.68724 243.81574 77.428812 316.58504 77.428812 c 0
 374.664 78.430322 426.73371 98.735222 471.14965 126.44716 c 0
 499.33788 144.20064 523.43138 171.83801 543.27979 208.63577 c 0
 563.19937 245.56511 575.43285 288.48259 580.17587 337.63131 c 1
 580.17587 337.99987 l 1
 580.17587 338.36843 l 2
 580.17587 401.49457 561.3827 465.7604 519.12989 524.68492 c 0
 480.0985 579.11695 445.0959 605.56519 416.63655 609.62766 c 1
 418.29853 611.47045 l 2
 418.38363 611.55525 418.54637 611.75314 418.63039 611.83901 c 0
 430.08815 622.1889 439.35367 634.53911 446.44143 648.20088 c 0
 456.49834 668.86827 461.40611 692.15923 462.08281 715.8459 c 0
 462.27216 764.19367 449.68084 806.96919 425.82378 837.58607 c 0
 399.47933 871.39511 359.78581 890.60226 317.08497 891.1362 c 1
 276.82962 885.90929 241.43217 870.74054 215.58922 844.47094 c 0
 189.8382 815.32817 177.68916 782.03047 175.44216 747.44398 c 0
 173.53926 718.15278 178.73848 687.93722 188.79229 658.53828 c 0
318.91118 797.59261 m 0
 337.12389 797.59261 352.03389 790.62718 364.78197 776.2162 c 0
 377.52996 761.8052 383.7286 744.91864 383.7286 724.24942 c 0
 383.7286 707.49801 377.23458 694.08234 363.45238 682.60228 c 0
 349.58063 671.04762 333.54145 665.28002 314.25763 665.28002 c 0
 299.14415 665.28002 286.31649 671.0726 274.70239 682.97084 c 0
 263.22124 694.73295 257.41775 708.855 257.41775 726.82933 c 0
 257.41775 746.64182 263.37344 762.98428 275.36718 776.95333 c 0
 287.33465 790.89194 301.49263 797.59261 318.91118 797.59261 c 0
314.25816 546.23556 m 0
 314.4826 546.21906 314.69852 546.25326 314.92295 546.23556 c 0
 368.31858 542.06838 412.30688 514.22498 442.8958 471.41813 c 0
 470.29605 431.31995 485.62578 379.79358 480.45666 328.04879 c 0
 475.92011 287.51747 460.33404 252.11609 436.24785 226.32658 c 0
 408.07293 196.1593 368.52886 179.08179 321.90329 183.20521 c 0
 269.54528 188.92345 231.13509 202.97388 205.23194 231.85495 c 0
 182.11339 257.63121 168.26025 295.90056 164.67951 353.11078 c 1
 168.70408 396.66665 173.70581 444.17531 193.26566 478.42075 c 0
 218.54804 517.15107 258.90497 543.78139 314.25816 546.23556 c 0
EndSplineSet
EndChar

StartChar: Resh
Encoding: 47 1512 47
Width: 900
Flags: W
LayerCount: 2
Fore
SplineSet
225.15077 497.87324 m 0
 226.60622 506.82089 231.57361 513.52828 240.0502 517.99625 c 0
 248.52848 522.46434 258.53564 523.80864 270.07627 522.03037 c 0
 281.61584 520.25197 282.08128 519.53291 288.72584 512.73351 c 0
 295.36845 505.93496 296.94915 498.16376 296.50597 489.11492 c 0
 295.77302 480.4299 290.32409 473.41654 283.51357 468.59586 c 0
 275.85856 463.1759 266.493 460.52678 260.20719 461.38845 c 0
 248.66761 463.16769 239.57547 467.45526 232.9309 474.25466 c 0
 226.2883 481.05321 223.69519 488.92643 225.15077 497.87324 c 0
310.14275 619.14332 m 0
 323.46525 616.11623 336.43254 612.09307 350.13422 607.15313 c 0
 367.87153 600.72376 385.28998 593.04716 396.95757 580.14597 c 0
 403.36471 574.40398 408.89583 568.28572 413.54988 561.79303 c 0
 418.20394 555.30202 421.67412 547.80336 423.96122 539.29778 c 0
 426.24833 530.79303 428.23517 524.20301 429.92151 519.52663 c 0
 431.60798 514.85097 432.80951 507.19268 433.52429 496.55236 c 0
 434.23762 485.91108 434.58185 479.23521 434.54782 476.52221 c 0
 434.54782 473.80897 434.34364 466.5314 434.05699 454.68842 c 0
 433.75988 442.84532 426.73849 432.16697 426.6309 431.50466 c 0
 437.16645 421.04848 515.32579 413.48921 545.56782 408.82719 c 1
 624.16431 510.32866 633.39178 678.56941 559.73716 773.61043 c 0
 527.59086 815.09088 475.98245 830.80397 413.62082 840.75614 c 0
 386.56154 844.92626 335.5895 839.92543 306.17153 834.61253 c 0
 282.55221 827.44563 256.44853 819.40655 231.92832 808.87186 c 0
 210.80853 799.79808 190.86344 788.87292 174.69232 775.05893 c 0
 166.59348 767.72951 147.12076 749.14641 140.66479 722.12728 c 0
 134.70306 682.7836 132.46949 664.32646 141.22499 653.51079 c 0
 150.25705 642.35391 170.91036 639.40054 206.39504 634.82609 c 0
 226.59274 632.54546 242.87315 629.47702 260.11269 626.97491 c 0
 275.89193 624.68496 292.65884 623.05167 310.14275 619.14332 c 0
587.2442 798.78374 m 1
 633.8542 734.24848 651.25368 633.3969 643.0284 544.96901 c 0
 636.22886 471.8678 611.19885 406.90112 577.0674 381.12076 c 1
 618.96681 190.64424 l 1
 592.04471 165.58125 573.41097 153.84659 563.06442 155.44168 c 0
 557.49442 156.29828 548.87701 164.76209 537.21598 180.82599 c 0
 525.55388 196.89061 519.46558 208.35939 518.9529 215.23184 c 0
 518.01445 219.45445 517.05977 227.41328 516.10862 239.10931 c 0
 515.15969 250.80534 514.23498 258.93021 513.34404 263.48294 c 0
 512.45401 268.03676 511.17172 275.19793 509.49925 284.96668 c 0
 507.82588 294.73639 505.89282 301.65775 503.70021 305.73219 c 0
 501.50866 309.80688 498.73557 315.32863 495.38318 322.30046 c 0
 492.0308 329.27133 488.18248 334.45039 483.83995 337.83741 c 0
 479.49636 341.22443 473.70569 344.49336 466.46782 347.64757 c 0
 459.23176 350.80119 451.63422 352.99182 443.67595 354.21888 c 0
 422.16076 358.82317 408.25476 375.58693 411.78056 394.60678 c 0
 415.44904 414.39338 386.09742 441.04603 388.4412 454.56562 c 0
 392.90979 473.99577 394.48395 490.24538 391.15945 505.05614 c 0
 387.27213 522.37499 376.68829 537.72429 356.20682 553.89457 c 0
 336.27783 568.79178 320.91009 579.03604 304.98348 583.08722 c 0
 284.9719 588.17787 264.07697 583.49286 232.14297 565.96685 c 0
 219.29885 558.75678 206.57802 543.04221 195.40741 532.67334 c 0
 186.67233 524.56659 169.0972 520.09331 160.46211 510.67908 c 0
 148.04181 496.34214 132.34685 471.7735 127.38692 450.2853 c 0
 124.47575 437.67338 183.03421 426.12177 190.35468 418.32546 c 0
 201.6885 407.84828 215.85732 398.53512 230.72443 389.91953 c 0
 252.54367 377.27706 275.8668 366.13781 293.93878 355.03526 c 0
 319.16342 339.59781 337.25948 327.97653 348.22617 320.17117 c 0
 367.66381 304.26702 379.51503 289.36244 383.77865 275.45682 c 0
 388.18702 260.92776 388.55612 250.2278 386.09742 240.72615 c 0
 383.79081 231.8181 378.99764 223.96492 372.71562 215 c 0
 367.38843 207.32891 362.3942 200.45562 357.73453 194.37975 c 0
 353.07498 188.30484 348.7556 185.57361 344.7764 186.18714 c 0
 334.42998 187.78067 325.56048 195.94152 318.16868 210.66824 c 1
 326.14541 238.14561 338.05318 259.19996 335.23467 270.89514 c 0
 332.38581 282.72279 331.03218 288.13635 313.484 298.90309 c 0
 298.71429 307.53221 283.29472 316.21107 268.09216 324.66268 c 0
 242.50038 338.89131 217.52705 352.47658 197.31259 364.09316 c 0
 173.60845 374.14796 157.40553 386.29874 148.49506 401.10925 c 0
 139.89714 415.40031 80.319732 432.16431 85.118413 451.91119 c 0
 91.798184 479.12158 101.8221 507.26851 128.24724 534.8379 c 0
 139.12675 546.05213 158.50039 549.71809 169.05727 560.46672 c 0
 178.81326 570.40053 188.97239 580.71433 196.15464 592.47799 c 0
 202.122 602.94607 168.72103 599.43494 149.08758 606.83718 c 0
 123.81098 617.09221 113.65578 625.50504 105.94921 637.89114 c 0
 94.847578 668.11194 94.613025 699.08763 103.03124 724.32819 c 0
 110.99172 748.19661 121.13606 766.46103 138.75072 790.22252 c 0
 159.03912 815.48966 183.52635 834.07925 208.45533 847.29255 c 0
 235.34484 858.25777 265.94184 868.24753 297.22742 874.95319 c 0
 337.55292 882.82016 380.69994 883.09931 422.81871 875.93552 c 0
 483.63393 865.59133 542.30535 839.72922 587.2442 798.78374 c 1
EndSplineSet
EndChar

StartChar: RoshPhenician
Encoding: 48 67859 48
Width: 1024
Flags: W
LayerCount: 2
Fore
SplineSet
296.08106 300.5655 m 1
 287.35596 312.03701 285.00654 318.83329 286.00292 326.71073 c 0
 288.11238 338.35988 295.94165 347.28674 303.35517 352.72811 c 0
 315.29518 359.61405 326.81511 361.81578 337.26962 360.1571 c 0
 348.45417 358.38253 358.41935 352.18975 366.37501 342.58745 c 0
 369.35597 333.07532 368.87004 324.61147 366.23396 316.82761 c 0
 357.7485 296.46902 342.18929 286.8381 327.00448 287.15241 c 0
 316.65985 287.36686 307.93518 292.6285 296.08167 300.5655 c 1
 296.08106 300.5655 l 1
411.46179 402.48368 m 0
 430.96611 396.07252 432.65108 386.17693 445.48099 373.31214 c 0
 452.52647 367.58619 458.60857 361.48533 463.72625 355.01104 c 0
 475.1782 336.09658 491.29266 333.81557 491.26677 310.94904 c 0
 490.69942 305.13336 474.81951 303.2912 476.39334 293.16049 c 0
 478.53181 279.39515 483.16993 274.2005 489.03936 274.51054 c 0
 503.50101 277.87358 505.94496 284.14764 515.09947 290.19199 c 0
 524.6179 296.47669 511.40212 309.55323 516.77851 321.98196 c 0
 518.91249 330.3027 526.851 334.54692 531.67236 344.35417 c 0
 535.88073 352.91448 537.41128 367.34506 534.56711 371.23425 c 0
 524.81888 384.56422 502.77679 379.89484 509.98017 394.49724 c 1
 506.91307 415.94204 509.33092 424.58956 516.16552 440.88262 c 0
 520.28279 450.69798 551.21693 449.09747 560.57598 457.72119 c 0
 569.56997 466.0087 556.88769 484.52439 566.02249 493.66672 c 0
 589.84085 517.58434 586.56605 510.27874 589.3704 525.1418 c 0
 593.11115 544.96737 583.46385 557.33694 574.58671 563.8488 c 0
 541.07133 589.29251 528.54285 652.48548 489.81326 658.53769 c 0
 460.05828 662.69615 438.94566 666.67254 406.59717 661.37439 c 0
 370.89161 654.47536 345.70281 627.77414 321.69624 604.18644 c 0
 307.02403 589.77013 300.42011 593.81243 297.64369 511.22187 c 0
 300.29546 494.04988 294.37752 469.02902 296.22156 459.85909 c 1
 310.69275 458.36228 326.72688 451.99194 339.5949 445.16364 c 0
 365.98005 431.16214 387.2065 411.57406 411.46179 402.48368 c 0
580.05625 679.42384 m 1
 606.07905 673.00903 619.34465 655.15084 630.51206 641.94994 c 0
 641.58468 628.49007 650.47739 604.20853 663.29327 574.68701 c 0
 668.33903 563.064 669.88306 537.51123 675.65287 522.90936 c 0
 688.53564 490.30636 700.91092 495.66524 671.54013 465.10501 c 0
 642.70041 435.09745 629.11621 405.17259 629.11621 405.17259 c 1
 624.61573 380.09586 595.236 384.92737 608.51008 332.74017 c 0
 611.75364 319.98822 584.53628 278.1032 588.26373 263.81356 c 0
 590.87452 253.80493 586.03728 243.44537 595.06997 236.08954 c 0
 609.52023 224.32187 640.0115 216.7474 646.69691 204.27 c 0
 662.71989 174.3657 665.89209 134.29589 642.28577 118.83168 c 1
 622.22799 94.706349 l 2
 613.29391 83.641339 587.97963 76.623449 564.46167 75.043709 c 0
 539.95216 73.397069 517.39364 77.656899 517.35993 89.397199 c 1
 504.53615 105.4165 497.84135 116.85278 497.27759 123.70574 c 0
 496.24492 127.91648 495.19585 135.85279 494.14989 147.51572 c 0
 493.10601 159.17874 492.08957 167.28048 491.10985 171.82053 c 0
 490.13116 176.36127 488.72125 183.50239 486.88217 193.24353 c 0
 485.04203 202.98546 482.91646 209.88727 480.50544 213.95036 c 0
 478.09543 218.01344 475.04623 223.51961 471.35987 230.47166 c 0
 467.6735 237.42292 463.44173 242.58713 458.66657 245.96473 c 0
 453.8904 249.34224 447.52285 252.60177 439.56393 255.74721 c 0
 421.29534 258.27285 414.49794 266.39457 414.65575 276.47715 c 0
 414.81161 286.43493 421.75159 298.30516 431.12531 308.58579 c 1
 430.91978 322.15778 424.55892 336.73453 411.92512 347.14615 c 0
 389.56806 369.29659 362.6957 391.62118 337.60439 405.54139 c 0
 308.91288 418.18676 277.27799 420.42469 253.98949 414.7203 c 0
 236.83491 410.51828 226.88346 402.56087 212.27969 388.44189 c 0
 192.89046 369.46473 179.04871 346.38925 166.1947 325.13761 c 0
 152.08611 301.66105 140.14495 277.31831 133.39443 251.54895 c 0
 131.81083 245.32722 131.4238 234.83815 129.23017 220.80429 c 0
 126.9897 206.4712 139.6417 186.59533 143.70881 182.66716 c 0
 147.89576 181.95124 180.06486 167.59863 188.82387 168.09051 c 0
 194.25645 168.39549 201.13347 177.60953 204.32609 179.01398 c 0
 214.45857 183.4716 212.84556 190.21129 219.04208 193.8773 c 0
 226.89874 204.1479 225.53171 204.17476 237.04674 204.86853 c 0
 240.9638 203.67827 244.77132 200.68675 249.96903 195.83083 c 1
 256.33774 196.27019 270.70298 203.82382 280.88196 206.56409 c 0
 291.76512 209.49386 293.24752 204.98774 297.42151 202.69462 c 0
 327.35395 184.99588 310.04989 144.87906 304.67009 127.84496 c 0
 303.06151 122.75165 304.20104 119.57804 305.64719 115.48137 c 0
 313.25857 112.98024 326.25924 123.90258 331.16975 126.51979 c 0
 350.47128 136.80566 338.88577 173.02553 355.6125 173.29911 c 0
 370.13044 171.66512 380.49633 154.85245 397.56003 127.30338 c 0
 409.99509 101.47735 392.20117 117.15374 397.22211 100.49552 c 0
 401.20564 87.279179 386.3689 86.667479 386.4448 80.307779 c 0
 387.98915 66.174509 376.01336 62.720149 370.20921 61.329999 c 0
 364.56221 59.977619 365.23289 60.426759 356.14456 65.714549 c 0
 353.57338 69.643759 348.79942 74.109419 353.7243 83.670029 c 0
 364.57167 100.06313 378.21287 118.12265 364.25021 124.50425 c 1
 341.6139 103.00764 338.54114 83.167349 321.67585 74.494719 c 0
 310.08792 70.317649 298.46273 75.054349 291.2578 76.121909 c 0
 283.81347 79.084719 278.09681 82.483959 273.79763 86.209629 c 0
 264.63054 94.153869 273.35736 99.584069 274.07209 109.42883 c 0
 275.09914 123.57449 277.24733 129.84724 280.71718 143.53462 c 0
 284.27012 157.54981 289.05463 178.86842 282.0967 183.63834 c 1
 257.99115 174.47114 231.40455 143.22345 217.33199 129.75411 c 0
 202.87418 115.91613 200.9542 120.08229 177.45169 128.33526 c 0
 152.80325 137.67253 113.43197 164.03588 109.8816 169.38768 c 0
 102.1854 174.86865 92.159706 190.1491 75.114217 207.7137 c 0
 60.879583 222.38202 73.460762 251.32813 75.861763 260.289 c 0
 78.762156 268.10357 81.813711 276.17461 85.137933 284.36515 c 0
 98.082491 316.26038 111.34437 354.53923 139.72725 381.99672 c 0
 145.79777 390.82712 150.16798 396.18145 158.82158 406.38176 c 0
 169.35002 419.39979 176.06809 432.35065 189.7555 440.49287 c 0
 206.38574 450.38558 206.10457 464.54791 221.04824 466.67927 c 1
 222.17776 487.13133 223.36742 491.13447 224.2851 503.37804 c 0
 227.30622 543.68529 218.21513 608.17716 231.75435 624.38781 c 0
 238.97657 633.03545 246.94359 650.17849 261.53158 666.9876 c 0
 280.32489 688.64242 318.60543 713.5343 352.61477 732.55465 c 0
 361.75729 737.66774 378.60895 738.57053 393.37354 760.92875 c 0
 405.65182 779.52186 404.25305 836.6973 414.45602 836.06303 c 0
 428.00833 834.53593 439.38682 830.93109 451.86282 826.11562 c 0
 464.60537 818.72873 463.01069 808.17691 464.58773 797.78985 c 0
 466.74647 783.57166 447.3982 750.06741 451.02182 740.36398 c 0
 461.92738 723.97473 497.94113 723.43352 513.58901 723.08034 c 1
 530.8777 745.99967 527.78978 771.16617 555.30137 776.01912 c 0
 601.49384 780.82296 571.4658 725.58222 566.85752 711.98523 c 0
 565.70971 698.2125 572.30052 688.19103 580.05625 679.42384 c 1
EndSplineSet
EndChar

StartChar: Shin
Encoding: 49 1513 49
Width: 1000
Flags: W
LayerCount: 2
Fore
SplineSet
240.1993 671.22559 m 1
 249.34888 647.25463 249.00807 630.54344 243.2009 617.93568 c 0
 234.29735 598.60547 197.58852 603.87731 177.4908 592.46352 c 0
 157.76085 581.25858 154.582 553.43074 151.76533 528.12897 c 0
 151.76533 507.89191 157.79546 484.84414 169.85562 458.98558 c 1
 193.97539 427.50562 217.77805 411.76571 241.26362 411.76571 c 0
 267.92247 411.76571 294.26396 431.15955 320.28806 469.94722 c 1
 349.48614 525.03716 399.94779 552.58207 471.6733 552.58207 c 1
 540.22455 544.14988 590.05134 516.60497 621.15349 469.94722 c 1
 661.14211 429.47308 692.56176 409.23602 715.41245 409.23602 c 0
 738.26288 409.23602 758.89172 425.25705 777.29925 457.29911 c 1
 786.18531 481.47122 790.62834 503.95699 790.62834 524.75617 c 0
 790.62834 577.03543 757.62225 616.10421 691.60993 641.96266 c 0
 690.97437 645.8977 690.65727 650.81642 690.65727 656.71891 c 0
 690.65727 662.62141 691.29146 667.68068 692.5619 671.89671 c 0
 693.83164 676.11287 696.52887 680.04778 700.65453 683.70171 c 0
 704.78047 687.35563 707.79561 689.88533 709.69968 691.29054 c 0
 711.60376 692.69602 716.2056 694.80403 723.50509 697.61472 c 0
 730.80457 700.42541 734.77169 702.11188 735.40629 702.67399 c 0
 828.713 674.56684 875.36637 620.03913 875.36637 539.09074 c 0
 875.36637 501.98941 865.8453 458.70446 846.80318 409.23602 c 1
 827.7609 381.12886 809.67088 359.48645 792.53309 344.30865 c 0
 775.39491 329.13082 755.08329 321.54191 731.59813 321.54191 c 0
 684.62781 321.54191 647.81302 335.87644 621.15363 364.54571 c 0
 619.24955 367.3564 614.17165 374.38326 605.91978 385.62614 c 0
 597.6686 396.86877 592.11478 404.03606 589.25846 407.12799 c 0
 586.40214 410.21981 580.84805 416.12231 572.59632 424.83549 c 0
 564.34501 433.54868 557.20434 439.45118 551.17419 442.54299 c 0
 545.14406 445.63467 537.05101 449.42915 526.89534 453.92631 c 0
 516.73954 458.42334 505.94899 461.51515 494.52386 463.2016 c 0
 483.09871 464.88795 470.40381 465.73118 456.43944 465.73118 c 0
 434.8585 465.73118 417.40322 461.6557 404.07359 453.50462 c 0
 390.74436 445.35355 377.25619 431.72166 363.60906 412.60894 c 0
 349.96206 393.49597 339.96507 380.84774 333.61783 374.66425 c 0
 292.35987 339.8115 255.22785 322.10396 222.22176 321.54191 c 0
 176.52064 321.54191 134.62781 353.02184 96.543275 415.98174 c 1
 67.066739 479.00643 59.979454 540.36404 74.655454 603.14792 c 0
 86.61131 652.17791 111.95865 685.56676 158.28054 693.16878 c 0
 171.83734 695.39363 187.77289 695.29327 206.61807 692.54519 c 0
 232.78883 687.52141 226.65672 678.75156 240.1993 671.22559 c 1
EndSplineSet
EndChar

StartChar: ShenPhoenician
Encoding: 50 67860 50
Width: 1024
Flags: W
LayerCount: 2
Fore
SplineSet
232.28028 726.63517 m 1
 241.42986 702.66421 241.08898 685.95305 235.28188 673.34526 c 0
 217.63771 635.03858 149.53215 634.61373 143.84631 583.53855 c 0
 143.84631 563.30149 149.87644 540.25372 161.9366 514.39516 c 1
 186.05637 482.9152 209.85903 467.17529 233.3446 467.17529 c 0
 260.00345 467.17529 286.34494 486.56913 312.36904 525.3568 c 1
 341.56712 580.44674 392.02877 607.99165 463.75428 607.99165 c 1
 532.30553 599.55946 582.13232 572.01455 613.23447 525.3568 c 1
 653.22309 484.88266 684.64274 464.6456 707.49343 464.6456 c 0
 730.34386 464.6456 750.9727 480.66663 769.38023 512.70869 c 1
 778.26629 536.8808 782.70932 559.36657 782.70932 580.16575 c 0
 782.70932 632.44501 749.70323 671.51379 683.69091 697.37224 c 0
 683.05535 701.30728 682.73825 706.226 682.73825 712.12849 c 0
 682.73825 718.03099 683.37244 723.09026 684.64288 727.30629 c 0
 685.91262 731.52245 688.60985 735.45736 692.73551 739.11129 c 0
 696.86145 742.76521 699.87659 745.29491 701.78066 746.70012 c 0
 703.68474 748.1056 708.28658 750.21361 715.58607 753.0243 c 0
 722.88555 755.83499 726.85267 757.52146 727.48727 758.08357 c 0
 820.79398 729.97642 867.44735 675.44871 867.44735 594.50032 c 0
 867.44735 557.39899 857.92628 514.11404 838.88416 464.6456 c 1
 819.84188 436.53844 801.75186 414.89603 784.61407 399.71823 c 0
 767.47589 384.5404 747.16427 376.95149 723.67911 376.95149 c 0
 676.70879 376.95149 639.894 391.28602 613.23461 419.95529 c 0
 611.33053 422.76598 606.25263 429.79284 598.00076 441.03572 c 0
 589.74958 452.27835 584.19576 459.44564 581.33944 462.53757 c 0
 578.48312 465.62939 572.92903 471.53189 564.6773 480.24507 c 0
 556.42599 488.95826 549.28532 494.86076 543.25517 497.95257 c 0
 537.22504 501.04425 529.13199 504.83873 518.97632 509.33589 c 0
 508.82052 513.83292 498.02997 516.92473 486.60484 518.61118 c 0
 475.17969 520.29753 462.48479 521.14076 448.52042 521.14076 c 0
 426.93948 521.14076 409.4842 517.06528 396.15457 508.9142 c 0
 382.82534 500.76313 369.33717 487.13124 355.69004 468.01852 c 0
 342.04304 448.90555 332.04605 436.25732 325.69881 430.07383 c 0
 284.44085 395.22108 247.30883 377.51354 214.30274 376.95149 c 0
 168.60162 376.95149 126.70879 408.43142 88.624264 471.39132 c 1
 69.58199 512.98981 60.060926 551.49648 60.060926 586.91135 c 1
 74.662908 671.25194 84.084884 737.70151 150.36152 748.57836 c 0
 163.91832 750.80323 179.85387 750.70285 198.69905 747.95477 c 0
 224.86981 742.93099 218.7377 734.16114 232.28028 726.63517 c 1
EndSplineSet
EndChar

StartChar: Tav
Encoding: 51 1514 51
Width: 1159
Flags: W
LayerCount: 2
Fore
SplineSet
565.55804 493.58511 m 1
 595.83599 471.91769 625.66101 448.93941 654.60402 426.0296 c 0
 687.36238 400.09998 718.9914 374.2579 748.86968 350.5038 c 0
 776.79209 328.39084 806.76159 303.81209 834.50897 282.01781 c 1
 862.63665 253.28515 878.02066 228.89236 877.91956 205.96264 c 0
 877.82756 185.16499 867.5578 169.81828 849.70856 165.48241 c 0
 838.23346 162.69402 823.62431 164.45811 806.5716 172.25226 c 0
 776.73847 193.83565 746.83323 215.76048 717.45201 237.98914 c 0
 686.51651 261.39368 656.15962 285.13747 627.0775 309.17762 c 0
 580.20155 348.16245 552.90313 370.68833 491.40185 422.84588 c 1
 380.17532 283.09313 l 1
 317.48244 204.32432 l 2
 268.89426 138.95859 246.97146 80.628378 203.68666 70.009938 c 0
 183.20815 64.983948 155.50982 73.894918 137.60498 84.007748 c 1
 124.48811 99.915748 118.35429 132.85208 116.25502 151.71567 c 0
 111.6123 193.43702 143.44102 243.55513 177.0388 295.68043 c 0
 197.74214 327.78122 218.481 349.95269 231.13066 369.87272 c 2
 353.56293 526.7665 l 1
 330.6001 547.89059 292.79369 577.65451 257.69508 610.20543 c 0
 230.20184 635.70323 200.3023 663.22836 170.05356 690.46856 c 0
 140.82433 716.79117 111.27067 742.84888 83.251161 766.55344 c 0
 58.978019 782.63414 40.210585 812.04712 39.020968 833.12594 c 0
 37.722952 856.1288 49.217046 876.2878 71.421614 880.90201 c 0
 85.569103 883.46313 101.37225 881.39008 114.47328 875.06313 c 0
 137.93343 858.58939 170.99591 832.22612 207.47839 801.80645 c 0
 235.53309 778.41426 265.612 752.62156 294.90126 727.08414 c 0
 326.65897 699.3941 357.48702 672.00486 383.8059 648.29489 c 0
 397.88249 635.60767 410.66935 623.97818 421.61892 613.92142 c 1
 444.96561 638.39982 460.48776 655.21218 486.14358 683.02634 c 0
 529.26813 729.77114 574.06482 779.16017 615.18904 824.24672 c 0
 646.32986 858.39102 675.36664 890.06623 699.9766 916.25698 c 1
 738.40376 911.33295 744.36599 897.82828 775.06583 872.53007 c 0
 793.29953 857.8488 798.20103 844.94376 810.99687 827.43337 c 0
 824.46945 807.65708 817.28184 774.02409 814.06359 754.47791 c 1
 754.18407 692.95882 715.9867 650.47679 670.10156 607.70978 c 1
 639.46956 570.23686 592.14535 527.7436 565.55659 493.58279 c 1
 565.55804 493.58511 l 1
EndSplineSet
EndChar

StartChar: TauPhoenician-x10915
Encoding: 52 67861 52
Width: 1024
Flags: W
LayerCount: 2
Fore
SplineSet
462.23061 569.24717 m 1
 426.68807 588.53656 390.65359 607.12269 355.1628 625.29572 c 0
 329.61306 638.37849 304.34499 651.24717 279.74517 664.01001 c 0
 257.02308 674.63259 230.15534 691.46764 204.80402 702.62871 c 0
 188.87046 712.04115 164.68543 719.89854 146.65287 715.32134 c 0
 129.61146 710.99574 118.24091 695.01018 118.62358 677.31968 c 0
 119.48464 659.74835 137.93896 641.27472 160.4162 624.90895 c 0
 186.85016 605.66225 218.84799 589.33086 234.33695 580.81089 c 0
 260.68631 566.41128 287.61422 553.48955 314.39161 540.67617 c 0
 349.90622 523.68197 385.15603 506.87837 418.44053 487.07057 c 1
 348.59382 348.59083 l 1
 304.19578 268.62324 l 2
 266.58356 205.13093 228.22434 166.35971 230.03203 126.51233 c 0
 230.8854 107.65921 243.69141 87.674174 255.1976 76.283184 c 1
 269.93105 70.922314 295.73227 77.366384 310.19324 82.236794 c 0
 342.17668 93.009174 372.22901 137.1636 403.37428 183.49866 c 0
 422.55229 212.04413 434.35705 237.13356 446.30192 254.68243 c 2
 535.28088 411.92679 l 1
 563.60947 398.59247 586.52914 386.23828 614.49434 371.86806 c 0
 640.26494 359.90803 665.33815 346.35725 689.92416 332.97352 c 0
 715.76307 318.90772 741.06371 305.02632 766.07015 293.36982 c 0
 784.32945 284.97633 799.2384 276.09051 818.56864 270.62035 c 0
 825.2071 268.74182 834.45453 269.7094 841.70069 267.91713 c 0
 861.43968 270.61848 883.6551 291.47592 882.38975 319.33201 c 0
 880.1524 330.6609 872.69391 339.94879 863.04757 347.76851 c 0
 846.39049 361.27147 823.20996 370.39682 809.12429 378.09453 c 0
 759.86386 405.07363 694.42061 440.546 658.39841 459.07415 c 0
 629.11703 474.13513 645.03892 464.98064 618.65345 479.82713 c 0
 606.09403 487.11953 594.60785 493.70705 584.70033 499.31546 c 1
 589.13393 508.79585 593.54542 518.13577 597.94378 527.35882 c 0
 609.91869 552.46934 621.79615 576.71392 633.75773 600.57137 c 0
 657.93206 649.40755 684.05342 697.04006 706.88066 742.50198 c 0
 720.58585 769.85829 733.20647 796.93837 743.71151 824.42555 c 0
 751.24597 853.02979 737.68311 881.02366 706.91471 894.16201 c 0
 673.20791 906.14725 643.41806 896.46716 618.96091 874.57606 c 1
 602.23428 847.29115 586.04133 819.39796 570.54381 791.21287 c 0
 544.788 744.44116 521.70205 697.78596 501.25124 652.83811 c 0
 488.21197 624.15777 475.62888 595.87396 462.23061 569.24717 c 1
EndSplineSet
EndChar

StartChar: Separator
Encoding: 54 67871 53
Width: 1024
Flags: W
LayerCount: 2
Fore
SplineSet
507.5436 135.56079 m 1
 538.29465 175.23038 585.22308 221.88815 617.09141 268.32453 c 0
 660.74651 331.93582 697.38165 399.37977 704.89212 463.76239 c 0
 709.3463 509.72126 693.52543 564.55679 668.98345 612.30099 c 0
 620.95194 696.53154 576.6305 764.51579 507.37093 830.2615 c 1
 440.56795 789.2883 405.44543 712.66065 368.22787 655.32528 c 0
 341.90733 614.77727 324.43094 570.7256 317.8435 524.00203 c 0
 309.48363 464.89757 316.06613 393.55378 338.51468 335.37806 c 0
 367.97701 262.68214 441.33332 198.97357 507.5436 135.56079 c 1
473.32241 33.926672 m 1
 459.7378 53.681972 445.54344 92.673762 428.69549 109.89005 c 0
 346.43943 182.0448 293.14282 244.40386 258.17577 326.20757 c 0
 234.78834 380.92133 223.7617 449.85915 232.93241 521.90674 c 0
 241.44791 584.11639 264.51522 642.21646 300.74816 693.29881 c 0
 345.50009 756.30343 389.3907 813.60593 434.26049 858.37706 c 0
 453.76246 877.83614 475.16002 895.78326 500.09127 912.40119 c 0
 506.48091 917.39442 511.55681 918.77938 516.00928 917.86603 c 0
 522.35986 916.56332 527.44217 910.58503 533.25921 903.73211 c 0
 547.65879 886.55221 566.90841 867.81493 586.00759 848.96394 c 0
 605.11402 830.10581 615.01458 806.6062 628.81377 788.96577 c 0
 665.03254 742.66488 698.52185 696.16672 724.85617 651.00653 c 0
 754.39335 598.97444 779.07988 535.23141 779.26944 464.03505 c 0
 776.34711 377.85577 736.38405 297.90511 684.5587 225.64382 c 0
 656.83279 187.73714 590.56402 123.28013 564.85481 79.757402 c 0
 551.63892 57.384432 564.32799 55.082712 540.26514 34.906512 c 0
 524.91019 22.878062 517.28788 15.287142 512.58676 11.478962 c 0
 502.30473 3.149922 505.99649 12.916022 473.32241 33.926672 c 1
EndSplineSet
EndChar
